%FSLAX45Y45*%
G04 Gerber Fmt 4.5, Leading zero omitted, Abs format (unit mm)*
G04 Created by KiCad (PCBNEW 4.0.6) date 01/11/18 13:17:49*
%MOMM*%
%LPD*%
G01*
G04 APERTURE LIST*
%ADD10C,0.127000*%
%ADD11C,0.150000*%
%ADD12C,0.200000*%
%ADD13C,0.300000*%
G04 APERTURE END LIST*
D10*
D11*
X15500000Y-16000000D02*
X15500000Y-10000000D01*
X10000000Y-16000000D02*
X15500000Y-16000000D01*
X10000000Y-10000000D02*
X10000000Y-16000000D01*
X15500000Y-10000000D02*
X10000000Y-10000000D01*
D12*
X10252000Y-14634000D02*
X10322000Y-14704000D01*
X10322000Y-14634000D02*
X10252000Y-14704000D01*
X10252000Y-14824000D02*
X10322000Y-14894000D01*
X10322000Y-14824000D02*
X10252000Y-14894000D01*
X10252000Y-14824000D02*
X10322000Y-14894000D01*
X10322000Y-14824000D02*
X10252000Y-14894000D01*
X10379000Y-11776000D02*
X10449000Y-11846000D01*
X10449000Y-11776000D02*
X10379000Y-11846000D01*
X12665000Y-11776000D02*
X12735000Y-11846000D01*
X12735000Y-11776000D02*
X12665000Y-11846000D01*
X12919000Y-11776000D02*
X12989000Y-11846000D01*
X12989000Y-11776000D02*
X12919000Y-11846000D01*
X13300000Y-13808000D02*
X13370000Y-13878000D01*
X13370000Y-13808000D02*
X13300000Y-13878000D01*
X13681000Y-10887000D02*
X13751000Y-10957000D01*
X13751000Y-10887000D02*
X13681000Y-10957000D01*
X13681000Y-15070000D02*
X13751000Y-15140000D01*
X13751000Y-15070000D02*
X13681000Y-15140000D01*
X13935000Y-13935000D02*
X14005000Y-14005000D01*
X14005000Y-13935000D02*
X13935000Y-14005000D01*
X14062000Y-10252000D02*
X14132000Y-10322000D01*
X14132000Y-10252000D02*
X14062000Y-10322000D01*
X14062000Y-11268000D02*
X14132000Y-11338000D01*
X14132000Y-11268000D02*
X14062000Y-11338000D01*
X14697000Y-13173000D02*
X14767000Y-13243000D01*
X14767000Y-13173000D02*
X14697000Y-13243000D01*
X15205000Y-12284000D02*
X15275000Y-12354000D01*
X15275000Y-12284000D02*
X15205000Y-12354000D01*
X15205000Y-12474000D02*
X15275000Y-12544000D01*
X15275000Y-12474000D02*
X15205000Y-12544000D01*
X15205000Y-13046000D02*
X15275000Y-13116000D01*
X15275000Y-13046000D02*
X15205000Y-13116000D01*
X15205000Y-13236000D02*
X15275000Y-13306000D01*
X15275000Y-13236000D02*
X15205000Y-13306000D01*
X15224000Y-10633000D02*
X15294000Y-10703000D01*
X15294000Y-10633000D02*
X15224000Y-10703000D01*
X10327000Y-15240000D02*
G75*
G03X10327000Y-15240000I-40000J0D01*
G01*
X10327000Y-15494000D02*
G75*
G03X10327000Y-15494000I-40000J0D01*
G01*
X10327000Y-15748000D02*
G75*
G03X10327000Y-15748000I-40000J0D01*
G01*
X11089000Y-14478000D02*
G75*
G03X11089000Y-14478000I-40000J0D01*
G01*
X11089000Y-15494000D02*
G75*
G03X11089000Y-15494000I-40000J0D01*
G01*
X11724000Y-14478000D02*
G75*
G03X11724000Y-14478000I-40000J0D01*
G01*
X11724000Y-15494000D02*
G75*
G03X11724000Y-15494000I-40000J0D01*
G01*
X12486000Y-14478000D02*
G75*
G03X12486000Y-14478000I-40000J0D01*
G01*
X12486000Y-15494000D02*
G75*
G03X12486000Y-15494000I-40000J0D01*
G01*
X13121000Y-14478000D02*
G75*
G03X13121000Y-14478000I-40000J0D01*
G01*
X13121000Y-15494000D02*
G75*
G03X13121000Y-15494000I-40000J0D01*
G01*
X13756000Y-10422000D02*
G75*
G03X13756000Y-10422000I-40000J0D01*
G01*
X13756000Y-10672000D02*
G75*
G03X13756000Y-10672000I-40000J0D01*
G01*
X13756000Y-10922000D02*
G75*
G03X13756000Y-10922000I-40000J0D01*
G01*
X13756000Y-11172000D02*
G75*
G03X13756000Y-11172000I-40000J0D01*
G01*
X13756000Y-14855000D02*
G75*
G03X13756000Y-14855000I-40000J0D01*
G01*
X13756000Y-15105000D02*
G75*
G03X13756000Y-15105000I-40000J0D01*
G01*
X13756000Y-15355000D02*
G75*
G03X13756000Y-15355000I-40000J0D01*
G01*
X14137000Y-10287000D02*
G75*
G03X14137000Y-10287000I-40000J0D01*
G01*
X14137000Y-11303000D02*
G75*
G03X14137000Y-11303000I-40000J0D01*
G01*
X14137000Y-13716000D02*
G75*
G03X14137000Y-13716000I-40000J0D01*
G01*
X14499000Y-10668000D02*
G75*
G03X14499000Y-10668000I-40000J0D01*
G01*
X14772000Y-12192000D02*
G75*
G03X14772000Y-12192000I-40000J0D01*
G01*
X14772000Y-13208000D02*
G75*
G03X14772000Y-13208000I-40000J0D01*
G01*
X15153000Y-13716000D02*
G75*
G03X15153000Y-13716000I-40000J0D01*
G01*
X15299000Y-10668000D02*
G75*
G03X15299000Y-10668000I-40000J0D01*
G01*
X10414000Y-11770360D02*
X10414000Y-11851640D01*
X10373360Y-11811000D02*
X10454640Y-11811000D01*
X10414000Y-13294360D02*
X10414000Y-13375640D01*
X10373360Y-13335000D02*
X10454640Y-13335000D01*
X10668000Y-11770360D02*
X10668000Y-11851640D01*
X10627360Y-11811000D02*
X10708640Y-11811000D01*
X10668000Y-13294360D02*
X10668000Y-13375640D01*
X10627360Y-13335000D02*
X10708640Y-13335000D01*
X10922000Y-11770360D02*
X10922000Y-11851640D01*
X10881360Y-11811000D02*
X10962640Y-11811000D01*
X10922000Y-13294360D02*
X10922000Y-13375640D01*
X10881360Y-13335000D02*
X10962640Y-13335000D01*
X11176000Y-11770360D02*
X11176000Y-11851640D01*
X11135360Y-11811000D02*
X11216640Y-11811000D01*
X11176000Y-13294360D02*
X11176000Y-13375640D01*
X11135360Y-13335000D02*
X11216640Y-13335000D01*
X11430000Y-11770360D02*
X11430000Y-11851640D01*
X11389360Y-11811000D02*
X11470640Y-11811000D01*
X11430000Y-13294360D02*
X11430000Y-13375640D01*
X11389360Y-13335000D02*
X11470640Y-13335000D01*
X11684000Y-11770360D02*
X11684000Y-11851640D01*
X11643360Y-11811000D02*
X11724640Y-11811000D01*
X11684000Y-13294360D02*
X11684000Y-13375640D01*
X11643360Y-13335000D02*
X11724640Y-13335000D01*
X11938000Y-11770360D02*
X11938000Y-11851640D01*
X11897360Y-11811000D02*
X11978640Y-11811000D01*
X11938000Y-13294360D02*
X11938000Y-13375640D01*
X11897360Y-13335000D02*
X11978640Y-13335000D01*
X12192000Y-11770360D02*
X12192000Y-11851640D01*
X12151360Y-11811000D02*
X12232640Y-11811000D01*
X12192000Y-13294360D02*
X12192000Y-13375640D01*
X12151360Y-13335000D02*
X12232640Y-13335000D01*
X12446000Y-11770360D02*
X12446000Y-11851640D01*
X12405360Y-11811000D02*
X12486640Y-11811000D01*
X12446000Y-13294360D02*
X12446000Y-13375640D01*
X12405360Y-13335000D02*
X12486640Y-13335000D01*
X12700000Y-11770360D02*
X12700000Y-11851640D01*
X12659360Y-11811000D02*
X12740640Y-11811000D01*
X12700000Y-13294360D02*
X12700000Y-13375640D01*
X12659360Y-13335000D02*
X12740640Y-13335000D01*
X12954000Y-11770360D02*
X12954000Y-11851640D01*
X12913360Y-11811000D02*
X12994640Y-11811000D01*
X12954000Y-13294360D02*
X12954000Y-13375640D01*
X12913360Y-13335000D02*
X12994640Y-13335000D01*
X13208000Y-11770360D02*
X13208000Y-11851640D01*
X13167360Y-11811000D02*
X13248640Y-11811000D01*
X13208000Y-13294360D02*
X13208000Y-13375640D01*
X13167360Y-13335000D02*
X13248640Y-13335000D01*
X13462000Y-11770360D02*
X13462000Y-11851640D01*
X13421360Y-11811000D02*
X13502640Y-11811000D01*
X13462000Y-13294360D02*
X13462000Y-13375640D01*
X13421360Y-13335000D02*
X13502640Y-13335000D01*
X13716000Y-11770360D02*
X13716000Y-11851640D01*
X13675360Y-11811000D02*
X13756640Y-11811000D01*
X13716000Y-13294360D02*
X13716000Y-13375640D01*
X13675360Y-13335000D02*
X13756640Y-13335000D01*
X13970000Y-11770360D02*
X13970000Y-11851640D01*
X13929360Y-11811000D02*
X14010640Y-11811000D01*
X13970000Y-13294360D02*
X13970000Y-13375640D01*
X13929360Y-13335000D02*
X14010640Y-13335000D01*
X14823356Y-11494356D02*
X14823356Y-11423644D01*
X14752644Y-11423644D01*
X14752644Y-11494356D01*
X14823356Y-11494356D01*
X14823356Y-11944356D02*
X14823356Y-11873644D01*
X14752644Y-11873644D01*
X14752644Y-11944356D01*
X14823356Y-11944356D01*
X15473356Y-11494356D02*
X15473356Y-11423644D01*
X15402644Y-11423644D01*
X15402644Y-11494356D01*
X15473356Y-11494356D01*
X15473356Y-11944356D02*
X15473356Y-11873644D01*
X15402644Y-11873644D01*
X15402644Y-11944356D01*
X15473356Y-11944356D01*
D13*
X10263929Y-16473214D02*
X10263929Y-16173214D01*
X10335357Y-16173214D01*
X10378214Y-16187500D01*
X10406786Y-16216071D01*
X10421071Y-16244643D01*
X10435357Y-16301786D01*
X10435357Y-16344643D01*
X10421071Y-16401786D01*
X10406786Y-16430357D01*
X10378214Y-16458929D01*
X10335357Y-16473214D01*
X10263929Y-16473214D01*
X10563929Y-16473214D02*
X10563929Y-16273214D01*
X10563929Y-16330357D02*
X10578214Y-16301786D01*
X10592500Y-16287500D01*
X10621071Y-16273214D01*
X10649643Y-16273214D01*
X10749643Y-16473214D02*
X10749643Y-16273214D01*
X10749643Y-16173214D02*
X10735357Y-16187500D01*
X10749643Y-16201786D01*
X10763929Y-16187500D01*
X10749643Y-16173214D01*
X10749643Y-16201786D01*
X10935357Y-16473214D02*
X10906786Y-16458929D01*
X10892500Y-16430357D01*
X10892500Y-16173214D01*
X11092500Y-16473214D02*
X11063929Y-16458929D01*
X11049643Y-16430357D01*
X11049643Y-16173214D01*
X11435357Y-16473214D02*
X11435357Y-16173214D01*
X11535357Y-16387500D01*
X11635357Y-16173214D01*
X11635357Y-16473214D01*
X11906786Y-16473214D02*
X11906786Y-16316071D01*
X11892500Y-16287500D01*
X11863928Y-16273214D01*
X11806786Y-16273214D01*
X11778214Y-16287500D01*
X11906786Y-16458929D02*
X11878214Y-16473214D01*
X11806786Y-16473214D01*
X11778214Y-16458929D01*
X11763928Y-16430357D01*
X11763928Y-16401786D01*
X11778214Y-16373214D01*
X11806786Y-16358929D01*
X11878214Y-16358929D01*
X11906786Y-16344643D01*
X12049643Y-16273214D02*
X12049643Y-16573214D01*
X12049643Y-16287500D02*
X12078214Y-16273214D01*
X12135357Y-16273214D01*
X12163928Y-16287500D01*
X12178214Y-16301786D01*
X12192500Y-16330357D01*
X12192500Y-16416071D01*
X12178214Y-16444643D01*
X12163928Y-16458929D01*
X12135357Y-16473214D01*
X12078214Y-16473214D01*
X12049643Y-16458929D01*
X12321071Y-16444643D02*
X12335357Y-16458929D01*
X12321071Y-16473214D01*
X12306786Y-16458929D01*
X12321071Y-16444643D01*
X12321071Y-16473214D01*
X12321071Y-16287500D02*
X12335357Y-16301786D01*
X12321071Y-16316071D01*
X12306786Y-16301786D01*
X12321071Y-16287500D01*
X12321071Y-16316071D01*
X9922500Y-16932500D02*
X9992500Y-17002500D01*
X9992500Y-16932500D02*
X9922500Y-17002500D01*
X10321071Y-16803214D02*
X10349643Y-16803214D01*
X10378214Y-16817500D01*
X10392500Y-16831786D01*
X10406786Y-16860357D01*
X10421071Y-16917500D01*
X10421071Y-16988929D01*
X10406786Y-17046072D01*
X10392500Y-17074643D01*
X10378214Y-17088929D01*
X10349643Y-17103214D01*
X10321071Y-17103214D01*
X10292500Y-17088929D01*
X10278214Y-17074643D01*
X10263929Y-17046072D01*
X10249643Y-16988929D01*
X10249643Y-16917500D01*
X10263929Y-16860357D01*
X10278214Y-16831786D01*
X10292500Y-16817500D01*
X10321071Y-16803214D01*
X10549643Y-17074643D02*
X10563929Y-17088929D01*
X10549643Y-17103214D01*
X10535357Y-17088929D01*
X10549643Y-17074643D01*
X10549643Y-17103214D01*
X10663928Y-16803214D02*
X10863928Y-16803214D01*
X10735357Y-17103214D01*
X11035357Y-16803214D02*
X11063929Y-16803214D01*
X11092500Y-16817500D01*
X11106786Y-16831786D01*
X11121071Y-16860357D01*
X11135357Y-16917500D01*
X11135357Y-16988929D01*
X11121071Y-17046072D01*
X11106786Y-17074643D01*
X11092500Y-17088929D01*
X11063929Y-17103214D01*
X11035357Y-17103214D01*
X11006786Y-17088929D01*
X10992500Y-17074643D01*
X10978214Y-17046072D01*
X10963929Y-16988929D01*
X10963929Y-16917500D01*
X10978214Y-16860357D01*
X10992500Y-16831786D01*
X11006786Y-16817500D01*
X11035357Y-16803214D01*
X11263928Y-17103214D02*
X11263928Y-16903214D01*
X11263928Y-16931786D02*
X11278214Y-16917500D01*
X11306786Y-16903214D01*
X11349643Y-16903214D01*
X11378214Y-16917500D01*
X11392500Y-16946072D01*
X11392500Y-17103214D01*
X11392500Y-16946072D02*
X11406786Y-16917500D01*
X11435357Y-16903214D01*
X11478214Y-16903214D01*
X11506786Y-16917500D01*
X11521071Y-16946072D01*
X11521071Y-17103214D01*
X11663928Y-17103214D02*
X11663928Y-16903214D01*
X11663928Y-16931786D02*
X11678214Y-16917500D01*
X11706786Y-16903214D01*
X11749643Y-16903214D01*
X11778214Y-16917500D01*
X11792500Y-16946072D01*
X11792500Y-17103214D01*
X11792500Y-16946072D02*
X11806786Y-16917500D01*
X11835357Y-16903214D01*
X11878214Y-16903214D01*
X11906786Y-16917500D01*
X11921071Y-16946072D01*
X11921071Y-17103214D01*
X12506786Y-16788929D02*
X12249643Y-17174643D01*
X12892500Y-16803214D02*
X12921071Y-16803214D01*
X12949643Y-16817500D01*
X12963928Y-16831786D01*
X12978214Y-16860357D01*
X12992500Y-16917500D01*
X12992500Y-16988929D01*
X12978214Y-17046072D01*
X12963928Y-17074643D01*
X12949643Y-17088929D01*
X12921071Y-17103214D01*
X12892500Y-17103214D01*
X12863928Y-17088929D01*
X12849643Y-17074643D01*
X12835357Y-17046072D01*
X12821071Y-16988929D01*
X12821071Y-16917500D01*
X12835357Y-16860357D01*
X12849643Y-16831786D01*
X12863928Y-16817500D01*
X12892500Y-16803214D01*
X13121071Y-17074643D02*
X13135357Y-17088929D01*
X13121071Y-17103214D01*
X13106786Y-17088929D01*
X13121071Y-17074643D01*
X13121071Y-17103214D01*
X13321071Y-16803214D02*
X13349643Y-16803214D01*
X13378214Y-16817500D01*
X13392500Y-16831786D01*
X13406785Y-16860357D01*
X13421071Y-16917500D01*
X13421071Y-16988929D01*
X13406785Y-17046072D01*
X13392500Y-17074643D01*
X13378214Y-17088929D01*
X13349643Y-17103214D01*
X13321071Y-17103214D01*
X13292500Y-17088929D01*
X13278214Y-17074643D01*
X13263928Y-17046072D01*
X13249643Y-16988929D01*
X13249643Y-16917500D01*
X13263928Y-16860357D01*
X13278214Y-16831786D01*
X13292500Y-16817500D01*
X13321071Y-16803214D01*
X13535357Y-16831786D02*
X13549643Y-16817500D01*
X13578214Y-16803214D01*
X13649643Y-16803214D01*
X13678214Y-16817500D01*
X13692500Y-16831786D01*
X13706785Y-16860357D01*
X13706785Y-16888929D01*
X13692500Y-16931786D01*
X13521071Y-17103214D01*
X13706785Y-17103214D01*
X13878214Y-16931786D02*
X13849643Y-16917500D01*
X13835357Y-16903214D01*
X13821071Y-16874643D01*
X13821071Y-16860357D01*
X13835357Y-16831786D01*
X13849643Y-16817500D01*
X13878214Y-16803214D01*
X13935357Y-16803214D01*
X13963928Y-16817500D01*
X13978214Y-16831786D01*
X13992500Y-16860357D01*
X13992500Y-16874643D01*
X13978214Y-16903214D01*
X13963928Y-16917500D01*
X13935357Y-16931786D01*
X13878214Y-16931786D01*
X13849643Y-16946072D01*
X13835357Y-16960357D01*
X13821071Y-16988929D01*
X13821071Y-17046072D01*
X13835357Y-17074643D01*
X13849643Y-17088929D01*
X13878214Y-17103214D01*
X13935357Y-17103214D01*
X13963928Y-17088929D01*
X13978214Y-17074643D01*
X13992500Y-17046072D01*
X13992500Y-16988929D01*
X13978214Y-16960357D01*
X13963928Y-16946072D01*
X13935357Y-16931786D01*
X14106786Y-16803214D02*
X14106786Y-16860357D01*
X14221071Y-16803214D02*
X14221071Y-16860357D01*
X14663928Y-17217500D02*
X14649643Y-17203214D01*
X14621071Y-17160357D01*
X14606785Y-17131786D01*
X14592500Y-17088929D01*
X14578214Y-17017500D01*
X14578214Y-16960357D01*
X14592500Y-16888929D01*
X14606785Y-16846072D01*
X14621071Y-16817500D01*
X14649643Y-16774643D01*
X14663928Y-16760357D01*
X14935357Y-17103214D02*
X14763928Y-17103214D01*
X14849643Y-17103214D02*
X14849643Y-16803214D01*
X14821071Y-16846072D01*
X14792500Y-16874643D01*
X14763928Y-16888929D01*
X15106785Y-16931786D02*
X15078214Y-16917500D01*
X15063928Y-16903214D01*
X15049643Y-16874643D01*
X15049643Y-16860357D01*
X15063928Y-16831786D01*
X15078214Y-16817500D01*
X15106785Y-16803214D01*
X15163928Y-16803214D01*
X15192500Y-16817500D01*
X15206785Y-16831786D01*
X15221071Y-16860357D01*
X15221071Y-16874643D01*
X15206785Y-16903214D01*
X15192500Y-16917500D01*
X15163928Y-16931786D01*
X15106785Y-16931786D01*
X15078214Y-16946072D01*
X15063928Y-16960357D01*
X15049643Y-16988929D01*
X15049643Y-17046072D01*
X15063928Y-17074643D01*
X15078214Y-17088929D01*
X15106785Y-17103214D01*
X15163928Y-17103214D01*
X15192500Y-17088929D01*
X15206785Y-17074643D01*
X15221071Y-17046072D01*
X15221071Y-16988929D01*
X15206785Y-16960357D01*
X15192500Y-16946072D01*
X15163928Y-16931786D01*
X15578214Y-17103214D02*
X15578214Y-16803214D01*
X15706785Y-17103214D02*
X15706785Y-16946072D01*
X15692500Y-16917500D01*
X15663928Y-16903214D01*
X15621071Y-16903214D01*
X15592500Y-16917500D01*
X15578214Y-16931786D01*
X15892500Y-17103214D02*
X15863928Y-17088929D01*
X15849643Y-17074643D01*
X15835357Y-17046072D01*
X15835357Y-16960357D01*
X15849643Y-16931786D01*
X15863928Y-16917500D01*
X15892500Y-16903214D01*
X15935357Y-16903214D01*
X15963928Y-16917500D01*
X15978214Y-16931786D01*
X15992500Y-16960357D01*
X15992500Y-17046072D01*
X15978214Y-17074643D01*
X15963928Y-17088929D01*
X15935357Y-17103214D01*
X15892500Y-17103214D01*
X16163928Y-17103214D02*
X16135357Y-17088929D01*
X16121071Y-17060357D01*
X16121071Y-16803214D01*
X16392500Y-17088929D02*
X16363928Y-17103214D01*
X16306786Y-17103214D01*
X16278214Y-17088929D01*
X16263928Y-17060357D01*
X16263928Y-16946072D01*
X16278214Y-16917500D01*
X16306786Y-16903214D01*
X16363928Y-16903214D01*
X16392500Y-16917500D01*
X16406786Y-16946072D01*
X16406786Y-16974643D01*
X16263928Y-17003214D01*
X16521071Y-17088929D02*
X16549643Y-17103214D01*
X16606786Y-17103214D01*
X16635357Y-17088929D01*
X16649643Y-17060357D01*
X16649643Y-17046072D01*
X16635357Y-17017500D01*
X16606786Y-17003214D01*
X16563928Y-17003214D01*
X16535357Y-16988929D01*
X16521071Y-16960357D01*
X16521071Y-16946072D01*
X16535357Y-16917500D01*
X16563928Y-16903214D01*
X16606786Y-16903214D01*
X16635357Y-16917500D01*
X16749643Y-17217500D02*
X16763928Y-17203214D01*
X16792500Y-17160357D01*
X16806786Y-17131786D01*
X16821071Y-17088929D01*
X16835357Y-17017500D01*
X16835357Y-16960357D01*
X16821071Y-16888929D01*
X16806786Y-16846072D01*
X16792500Y-16817500D01*
X16763928Y-16774643D01*
X16749643Y-16760357D01*
X9992500Y-17363500D02*
G75*
G03X9992500Y-17363500I-40000J0D01*
G01*
X10321071Y-17199214D02*
X10349643Y-17199214D01*
X10378214Y-17213500D01*
X10392500Y-17227786D01*
X10406786Y-17256357D01*
X10421071Y-17313500D01*
X10421071Y-17384929D01*
X10406786Y-17442072D01*
X10392500Y-17470643D01*
X10378214Y-17484929D01*
X10349643Y-17499214D01*
X10321071Y-17499214D01*
X10292500Y-17484929D01*
X10278214Y-17470643D01*
X10263929Y-17442072D01*
X10249643Y-17384929D01*
X10249643Y-17313500D01*
X10263929Y-17256357D01*
X10278214Y-17227786D01*
X10292500Y-17213500D01*
X10321071Y-17199214D01*
X10549643Y-17470643D02*
X10563929Y-17484929D01*
X10549643Y-17499214D01*
X10535357Y-17484929D01*
X10549643Y-17470643D01*
X10549643Y-17499214D01*
X10735357Y-17327786D02*
X10706786Y-17313500D01*
X10692500Y-17299214D01*
X10678214Y-17270643D01*
X10678214Y-17256357D01*
X10692500Y-17227786D01*
X10706786Y-17213500D01*
X10735357Y-17199214D01*
X10792500Y-17199214D01*
X10821071Y-17213500D01*
X10835357Y-17227786D01*
X10849643Y-17256357D01*
X10849643Y-17270643D01*
X10835357Y-17299214D01*
X10821071Y-17313500D01*
X10792500Y-17327786D01*
X10735357Y-17327786D01*
X10706786Y-17342072D01*
X10692500Y-17356357D01*
X10678214Y-17384929D01*
X10678214Y-17442072D01*
X10692500Y-17470643D01*
X10706786Y-17484929D01*
X10735357Y-17499214D01*
X10792500Y-17499214D01*
X10821071Y-17484929D01*
X10835357Y-17470643D01*
X10849643Y-17442072D01*
X10849643Y-17384929D01*
X10835357Y-17356357D01*
X10821071Y-17342072D01*
X10792500Y-17327786D01*
X11035357Y-17199214D02*
X11063929Y-17199214D01*
X11092500Y-17213500D01*
X11106786Y-17227786D01*
X11121071Y-17256357D01*
X11135357Y-17313500D01*
X11135357Y-17384929D01*
X11121071Y-17442072D01*
X11106786Y-17470643D01*
X11092500Y-17484929D01*
X11063929Y-17499214D01*
X11035357Y-17499214D01*
X11006786Y-17484929D01*
X10992500Y-17470643D01*
X10978214Y-17442072D01*
X10963929Y-17384929D01*
X10963929Y-17313500D01*
X10978214Y-17256357D01*
X10992500Y-17227786D01*
X11006786Y-17213500D01*
X11035357Y-17199214D01*
X11263928Y-17499214D02*
X11263928Y-17299214D01*
X11263928Y-17327786D02*
X11278214Y-17313500D01*
X11306786Y-17299214D01*
X11349643Y-17299214D01*
X11378214Y-17313500D01*
X11392500Y-17342072D01*
X11392500Y-17499214D01*
X11392500Y-17342072D02*
X11406786Y-17313500D01*
X11435357Y-17299214D01*
X11478214Y-17299214D01*
X11506786Y-17313500D01*
X11521071Y-17342072D01*
X11521071Y-17499214D01*
X11663928Y-17499214D02*
X11663928Y-17299214D01*
X11663928Y-17327786D02*
X11678214Y-17313500D01*
X11706786Y-17299214D01*
X11749643Y-17299214D01*
X11778214Y-17313500D01*
X11792500Y-17342072D01*
X11792500Y-17499214D01*
X11792500Y-17342072D02*
X11806786Y-17313500D01*
X11835357Y-17299214D01*
X11878214Y-17299214D01*
X11906786Y-17313500D01*
X11921071Y-17342072D01*
X11921071Y-17499214D01*
X12506786Y-17184929D02*
X12249643Y-17570643D01*
X12892500Y-17199214D02*
X12921071Y-17199214D01*
X12949643Y-17213500D01*
X12963928Y-17227786D01*
X12978214Y-17256357D01*
X12992500Y-17313500D01*
X12992500Y-17384929D01*
X12978214Y-17442072D01*
X12963928Y-17470643D01*
X12949643Y-17484929D01*
X12921071Y-17499214D01*
X12892500Y-17499214D01*
X12863928Y-17484929D01*
X12849643Y-17470643D01*
X12835357Y-17442072D01*
X12821071Y-17384929D01*
X12821071Y-17313500D01*
X12835357Y-17256357D01*
X12849643Y-17227786D01*
X12863928Y-17213500D01*
X12892500Y-17199214D01*
X13121071Y-17470643D02*
X13135357Y-17484929D01*
X13121071Y-17499214D01*
X13106786Y-17484929D01*
X13121071Y-17470643D01*
X13121071Y-17499214D01*
X13321071Y-17199214D02*
X13349643Y-17199214D01*
X13378214Y-17213500D01*
X13392500Y-17227786D01*
X13406785Y-17256357D01*
X13421071Y-17313500D01*
X13421071Y-17384929D01*
X13406785Y-17442072D01*
X13392500Y-17470643D01*
X13378214Y-17484929D01*
X13349643Y-17499214D01*
X13321071Y-17499214D01*
X13292500Y-17484929D01*
X13278214Y-17470643D01*
X13263928Y-17442072D01*
X13249643Y-17384929D01*
X13249643Y-17313500D01*
X13263928Y-17256357D01*
X13278214Y-17227786D01*
X13292500Y-17213500D01*
X13321071Y-17199214D01*
X13521071Y-17199214D02*
X13706785Y-17199214D01*
X13606785Y-17313500D01*
X13649643Y-17313500D01*
X13678214Y-17327786D01*
X13692500Y-17342072D01*
X13706785Y-17370643D01*
X13706785Y-17442072D01*
X13692500Y-17470643D01*
X13678214Y-17484929D01*
X13649643Y-17499214D01*
X13563928Y-17499214D01*
X13535357Y-17484929D01*
X13521071Y-17470643D01*
X13992500Y-17499214D02*
X13821071Y-17499214D01*
X13906785Y-17499214D02*
X13906785Y-17199214D01*
X13878214Y-17242072D01*
X13849643Y-17270643D01*
X13821071Y-17284929D01*
X14106786Y-17199214D02*
X14106786Y-17256357D01*
X14221071Y-17199214D02*
X14221071Y-17256357D01*
X14663928Y-17613500D02*
X14649643Y-17599214D01*
X14621071Y-17556357D01*
X14606785Y-17527786D01*
X14592500Y-17484929D01*
X14578214Y-17413500D01*
X14578214Y-17356357D01*
X14592500Y-17284929D01*
X14606785Y-17242072D01*
X14621071Y-17213500D01*
X14649643Y-17170643D01*
X14663928Y-17156357D01*
X14763928Y-17227786D02*
X14778214Y-17213500D01*
X14806785Y-17199214D01*
X14878214Y-17199214D01*
X14906785Y-17213500D01*
X14921071Y-17227786D01*
X14935357Y-17256357D01*
X14935357Y-17284929D01*
X14921071Y-17327786D01*
X14749643Y-17499214D01*
X14935357Y-17499214D01*
X15192500Y-17199214D02*
X15135357Y-17199214D01*
X15106785Y-17213500D01*
X15092500Y-17227786D01*
X15063928Y-17270643D01*
X15049643Y-17327786D01*
X15049643Y-17442072D01*
X15063928Y-17470643D01*
X15078214Y-17484929D01*
X15106785Y-17499214D01*
X15163928Y-17499214D01*
X15192500Y-17484929D01*
X15206785Y-17470643D01*
X15221071Y-17442072D01*
X15221071Y-17370643D01*
X15206785Y-17342072D01*
X15192500Y-17327786D01*
X15163928Y-17313500D01*
X15106785Y-17313500D01*
X15078214Y-17327786D01*
X15063928Y-17342072D01*
X15049643Y-17370643D01*
X15578214Y-17499214D02*
X15578214Y-17199214D01*
X15706785Y-17499214D02*
X15706785Y-17342072D01*
X15692500Y-17313500D01*
X15663928Y-17299214D01*
X15621071Y-17299214D01*
X15592500Y-17313500D01*
X15578214Y-17327786D01*
X15892500Y-17499214D02*
X15863928Y-17484929D01*
X15849643Y-17470643D01*
X15835357Y-17442072D01*
X15835357Y-17356357D01*
X15849643Y-17327786D01*
X15863928Y-17313500D01*
X15892500Y-17299214D01*
X15935357Y-17299214D01*
X15963928Y-17313500D01*
X15978214Y-17327786D01*
X15992500Y-17356357D01*
X15992500Y-17442072D01*
X15978214Y-17470643D01*
X15963928Y-17484929D01*
X15935357Y-17499214D01*
X15892500Y-17499214D01*
X16163928Y-17499214D02*
X16135357Y-17484929D01*
X16121071Y-17456357D01*
X16121071Y-17199214D01*
X16392500Y-17484929D02*
X16363928Y-17499214D01*
X16306786Y-17499214D01*
X16278214Y-17484929D01*
X16263928Y-17456357D01*
X16263928Y-17342072D01*
X16278214Y-17313500D01*
X16306786Y-17299214D01*
X16363928Y-17299214D01*
X16392500Y-17313500D01*
X16406786Y-17342072D01*
X16406786Y-17370643D01*
X16263928Y-17399214D01*
X16521071Y-17484929D02*
X16549643Y-17499214D01*
X16606786Y-17499214D01*
X16635357Y-17484929D01*
X16649643Y-17456357D01*
X16649643Y-17442072D01*
X16635357Y-17413500D01*
X16606786Y-17399214D01*
X16563928Y-17399214D01*
X16535357Y-17384929D01*
X16521071Y-17356357D01*
X16521071Y-17342072D01*
X16535357Y-17313500D01*
X16563928Y-17299214D01*
X16606786Y-17299214D01*
X16635357Y-17313500D01*
X16749643Y-17613500D02*
X16763928Y-17599214D01*
X16792500Y-17556357D01*
X16806786Y-17527786D01*
X16821071Y-17484929D01*
X16835357Y-17413500D01*
X16835357Y-17356357D01*
X16821071Y-17284929D01*
X16806786Y-17242072D01*
X16792500Y-17213500D01*
X16763928Y-17170643D01*
X16749643Y-17156357D01*
X9951860Y-17718860D02*
X9951860Y-17800140D01*
X9911220Y-17759500D02*
X9992500Y-17759500D01*
X10321071Y-17595214D02*
X10349643Y-17595214D01*
X10378214Y-17609500D01*
X10392500Y-17623786D01*
X10406786Y-17652357D01*
X10421071Y-17709500D01*
X10421071Y-17780929D01*
X10406786Y-17838072D01*
X10392500Y-17866643D01*
X10378214Y-17880929D01*
X10349643Y-17895214D01*
X10321071Y-17895214D01*
X10292500Y-17880929D01*
X10278214Y-17866643D01*
X10263929Y-17838072D01*
X10249643Y-17780929D01*
X10249643Y-17709500D01*
X10263929Y-17652357D01*
X10278214Y-17623786D01*
X10292500Y-17609500D01*
X10321071Y-17595214D01*
X10549643Y-17866643D02*
X10563929Y-17880929D01*
X10549643Y-17895214D01*
X10535357Y-17880929D01*
X10549643Y-17866643D01*
X10549643Y-17895214D01*
X10735357Y-17723786D02*
X10706786Y-17709500D01*
X10692500Y-17695214D01*
X10678214Y-17666643D01*
X10678214Y-17652357D01*
X10692500Y-17623786D01*
X10706786Y-17609500D01*
X10735357Y-17595214D01*
X10792500Y-17595214D01*
X10821071Y-17609500D01*
X10835357Y-17623786D01*
X10849643Y-17652357D01*
X10849643Y-17666643D01*
X10835357Y-17695214D01*
X10821071Y-17709500D01*
X10792500Y-17723786D01*
X10735357Y-17723786D01*
X10706786Y-17738072D01*
X10692500Y-17752357D01*
X10678214Y-17780929D01*
X10678214Y-17838072D01*
X10692500Y-17866643D01*
X10706786Y-17880929D01*
X10735357Y-17895214D01*
X10792500Y-17895214D01*
X10821071Y-17880929D01*
X10835357Y-17866643D01*
X10849643Y-17838072D01*
X10849643Y-17780929D01*
X10835357Y-17752357D01*
X10821071Y-17738072D01*
X10792500Y-17723786D01*
X11135357Y-17895214D02*
X10963929Y-17895214D01*
X11049643Y-17895214D02*
X11049643Y-17595214D01*
X11021071Y-17638072D01*
X10992500Y-17666643D01*
X10963929Y-17680929D01*
X11263928Y-17895214D02*
X11263928Y-17695214D01*
X11263928Y-17723786D02*
X11278214Y-17709500D01*
X11306786Y-17695214D01*
X11349643Y-17695214D01*
X11378214Y-17709500D01*
X11392500Y-17738072D01*
X11392500Y-17895214D01*
X11392500Y-17738072D02*
X11406786Y-17709500D01*
X11435357Y-17695214D01*
X11478214Y-17695214D01*
X11506786Y-17709500D01*
X11521071Y-17738072D01*
X11521071Y-17895214D01*
X11663928Y-17895214D02*
X11663928Y-17695214D01*
X11663928Y-17723786D02*
X11678214Y-17709500D01*
X11706786Y-17695214D01*
X11749643Y-17695214D01*
X11778214Y-17709500D01*
X11792500Y-17738072D01*
X11792500Y-17895214D01*
X11792500Y-17738072D02*
X11806786Y-17709500D01*
X11835357Y-17695214D01*
X11878214Y-17695214D01*
X11906786Y-17709500D01*
X11921071Y-17738072D01*
X11921071Y-17895214D01*
X12506786Y-17580929D02*
X12249643Y-17966643D01*
X12892500Y-17595214D02*
X12921071Y-17595214D01*
X12949643Y-17609500D01*
X12963928Y-17623786D01*
X12978214Y-17652357D01*
X12992500Y-17709500D01*
X12992500Y-17780929D01*
X12978214Y-17838072D01*
X12963928Y-17866643D01*
X12949643Y-17880929D01*
X12921071Y-17895214D01*
X12892500Y-17895214D01*
X12863928Y-17880929D01*
X12849643Y-17866643D01*
X12835357Y-17838072D01*
X12821071Y-17780929D01*
X12821071Y-17709500D01*
X12835357Y-17652357D01*
X12849643Y-17623786D01*
X12863928Y-17609500D01*
X12892500Y-17595214D01*
X13121071Y-17866643D02*
X13135357Y-17880929D01*
X13121071Y-17895214D01*
X13106786Y-17880929D01*
X13121071Y-17866643D01*
X13121071Y-17895214D01*
X13321071Y-17595214D02*
X13349643Y-17595214D01*
X13378214Y-17609500D01*
X13392500Y-17623786D01*
X13406785Y-17652357D01*
X13421071Y-17709500D01*
X13421071Y-17780929D01*
X13406785Y-17838072D01*
X13392500Y-17866643D01*
X13378214Y-17880929D01*
X13349643Y-17895214D01*
X13321071Y-17895214D01*
X13292500Y-17880929D01*
X13278214Y-17866643D01*
X13263928Y-17838072D01*
X13249643Y-17780929D01*
X13249643Y-17709500D01*
X13263928Y-17652357D01*
X13278214Y-17623786D01*
X13292500Y-17609500D01*
X13321071Y-17595214D01*
X13521071Y-17595214D02*
X13706785Y-17595214D01*
X13606785Y-17709500D01*
X13649643Y-17709500D01*
X13678214Y-17723786D01*
X13692500Y-17738072D01*
X13706785Y-17766643D01*
X13706785Y-17838072D01*
X13692500Y-17866643D01*
X13678214Y-17880929D01*
X13649643Y-17895214D01*
X13563928Y-17895214D01*
X13535357Y-17880929D01*
X13521071Y-17866643D01*
X13821071Y-17623786D02*
X13835357Y-17609500D01*
X13863928Y-17595214D01*
X13935357Y-17595214D01*
X13963928Y-17609500D01*
X13978214Y-17623786D01*
X13992500Y-17652357D01*
X13992500Y-17680929D01*
X13978214Y-17723786D01*
X13806785Y-17895214D01*
X13992500Y-17895214D01*
X14106786Y-17595214D02*
X14106786Y-17652357D01*
X14221071Y-17595214D02*
X14221071Y-17652357D01*
X14663928Y-18009500D02*
X14649643Y-17995214D01*
X14621071Y-17952357D01*
X14606785Y-17923786D01*
X14592500Y-17880929D01*
X14578214Y-17809500D01*
X14578214Y-17752357D01*
X14592500Y-17680929D01*
X14606785Y-17638072D01*
X14621071Y-17609500D01*
X14649643Y-17566643D01*
X14663928Y-17552357D01*
X14749643Y-17595214D02*
X14935357Y-17595214D01*
X14835357Y-17709500D01*
X14878214Y-17709500D01*
X14906785Y-17723786D01*
X14921071Y-17738072D01*
X14935357Y-17766643D01*
X14935357Y-17838072D01*
X14921071Y-17866643D01*
X14906785Y-17880929D01*
X14878214Y-17895214D01*
X14792500Y-17895214D01*
X14763928Y-17880929D01*
X14749643Y-17866643D01*
X15121071Y-17595214D02*
X15149643Y-17595214D01*
X15178214Y-17609500D01*
X15192500Y-17623786D01*
X15206785Y-17652357D01*
X15221071Y-17709500D01*
X15221071Y-17780929D01*
X15206785Y-17838072D01*
X15192500Y-17866643D01*
X15178214Y-17880929D01*
X15149643Y-17895214D01*
X15121071Y-17895214D01*
X15092500Y-17880929D01*
X15078214Y-17866643D01*
X15063928Y-17838072D01*
X15049643Y-17780929D01*
X15049643Y-17709500D01*
X15063928Y-17652357D01*
X15078214Y-17623786D01*
X15092500Y-17609500D01*
X15121071Y-17595214D01*
X15578214Y-17895214D02*
X15578214Y-17595214D01*
X15706785Y-17895214D02*
X15706785Y-17738072D01*
X15692500Y-17709500D01*
X15663928Y-17695214D01*
X15621071Y-17695214D01*
X15592500Y-17709500D01*
X15578214Y-17723786D01*
X15892500Y-17895214D02*
X15863928Y-17880929D01*
X15849643Y-17866643D01*
X15835357Y-17838072D01*
X15835357Y-17752357D01*
X15849643Y-17723786D01*
X15863928Y-17709500D01*
X15892500Y-17695214D01*
X15935357Y-17695214D01*
X15963928Y-17709500D01*
X15978214Y-17723786D01*
X15992500Y-17752357D01*
X15992500Y-17838072D01*
X15978214Y-17866643D01*
X15963928Y-17880929D01*
X15935357Y-17895214D01*
X15892500Y-17895214D01*
X16163928Y-17895214D02*
X16135357Y-17880929D01*
X16121071Y-17852357D01*
X16121071Y-17595214D01*
X16392500Y-17880929D02*
X16363928Y-17895214D01*
X16306786Y-17895214D01*
X16278214Y-17880929D01*
X16263928Y-17852357D01*
X16263928Y-17738072D01*
X16278214Y-17709500D01*
X16306786Y-17695214D01*
X16363928Y-17695214D01*
X16392500Y-17709500D01*
X16406786Y-17738072D01*
X16406786Y-17766643D01*
X16263928Y-17795214D01*
X16521071Y-17880929D02*
X16549643Y-17895214D01*
X16606786Y-17895214D01*
X16635357Y-17880929D01*
X16649643Y-17852357D01*
X16649643Y-17838072D01*
X16635357Y-17809500D01*
X16606786Y-17795214D01*
X16563928Y-17795214D01*
X16535357Y-17780929D01*
X16521071Y-17752357D01*
X16521071Y-17738072D01*
X16535357Y-17709500D01*
X16563928Y-17695214D01*
X16606786Y-17695214D01*
X16635357Y-17709500D01*
X16749643Y-18009500D02*
X16763928Y-17995214D01*
X16792500Y-17952357D01*
X16806786Y-17923786D01*
X16821071Y-17880929D01*
X16835357Y-17809500D01*
X16835357Y-17752357D01*
X16821071Y-17680929D01*
X16806786Y-17638072D01*
X16792500Y-17609500D01*
X16763928Y-17566643D01*
X16749643Y-17552357D01*
X9977856Y-18190856D02*
X9977856Y-18120144D01*
X9907144Y-18120144D01*
X9907144Y-18190856D01*
X9977856Y-18190856D01*
X10421071Y-18291214D02*
X10249643Y-18291214D01*
X10335357Y-18291214D02*
X10335357Y-17991214D01*
X10306786Y-18034072D01*
X10278214Y-18062643D01*
X10249643Y-18076929D01*
X10549643Y-18262643D02*
X10563929Y-18276929D01*
X10549643Y-18291214D01*
X10535357Y-18276929D01*
X10549643Y-18262643D01*
X10549643Y-18291214D01*
X10749643Y-17991214D02*
X10778214Y-17991214D01*
X10806786Y-18005500D01*
X10821071Y-18019786D01*
X10835357Y-18048357D01*
X10849643Y-18105500D01*
X10849643Y-18176929D01*
X10835357Y-18234072D01*
X10821071Y-18262643D01*
X10806786Y-18276929D01*
X10778214Y-18291214D01*
X10749643Y-18291214D01*
X10721071Y-18276929D01*
X10706786Y-18262643D01*
X10692500Y-18234072D01*
X10678214Y-18176929D01*
X10678214Y-18105500D01*
X10692500Y-18048357D01*
X10706786Y-18019786D01*
X10721071Y-18005500D01*
X10749643Y-17991214D01*
X11035357Y-17991214D02*
X11063929Y-17991214D01*
X11092500Y-18005500D01*
X11106786Y-18019786D01*
X11121071Y-18048357D01*
X11135357Y-18105500D01*
X11135357Y-18176929D01*
X11121071Y-18234072D01*
X11106786Y-18262643D01*
X11092500Y-18276929D01*
X11063929Y-18291214D01*
X11035357Y-18291214D01*
X11006786Y-18276929D01*
X10992500Y-18262643D01*
X10978214Y-18234072D01*
X10963929Y-18176929D01*
X10963929Y-18105500D01*
X10978214Y-18048357D01*
X10992500Y-18019786D01*
X11006786Y-18005500D01*
X11035357Y-17991214D01*
X11263928Y-18291214D02*
X11263928Y-18091214D01*
X11263928Y-18119786D02*
X11278214Y-18105500D01*
X11306786Y-18091214D01*
X11349643Y-18091214D01*
X11378214Y-18105500D01*
X11392500Y-18134072D01*
X11392500Y-18291214D01*
X11392500Y-18134072D02*
X11406786Y-18105500D01*
X11435357Y-18091214D01*
X11478214Y-18091214D01*
X11506786Y-18105500D01*
X11521071Y-18134072D01*
X11521071Y-18291214D01*
X11663928Y-18291214D02*
X11663928Y-18091214D01*
X11663928Y-18119786D02*
X11678214Y-18105500D01*
X11706786Y-18091214D01*
X11749643Y-18091214D01*
X11778214Y-18105500D01*
X11792500Y-18134072D01*
X11792500Y-18291214D01*
X11792500Y-18134072D02*
X11806786Y-18105500D01*
X11835357Y-18091214D01*
X11878214Y-18091214D01*
X11906786Y-18105500D01*
X11921071Y-18134072D01*
X11921071Y-18291214D01*
X12506786Y-17976929D02*
X12249643Y-18362643D01*
X12892500Y-17991214D02*
X12921071Y-17991214D01*
X12949643Y-18005500D01*
X12963928Y-18019786D01*
X12978214Y-18048357D01*
X12992500Y-18105500D01*
X12992500Y-18176929D01*
X12978214Y-18234072D01*
X12963928Y-18262643D01*
X12949643Y-18276929D01*
X12921071Y-18291214D01*
X12892500Y-18291214D01*
X12863928Y-18276929D01*
X12849643Y-18262643D01*
X12835357Y-18234072D01*
X12821071Y-18176929D01*
X12821071Y-18105500D01*
X12835357Y-18048357D01*
X12849643Y-18019786D01*
X12863928Y-18005500D01*
X12892500Y-17991214D01*
X13121071Y-18262643D02*
X13135357Y-18276929D01*
X13121071Y-18291214D01*
X13106786Y-18276929D01*
X13121071Y-18262643D01*
X13121071Y-18291214D01*
X13321071Y-17991214D02*
X13349643Y-17991214D01*
X13378214Y-18005500D01*
X13392500Y-18019786D01*
X13406785Y-18048357D01*
X13421071Y-18105500D01*
X13421071Y-18176929D01*
X13406785Y-18234072D01*
X13392500Y-18262643D01*
X13378214Y-18276929D01*
X13349643Y-18291214D01*
X13321071Y-18291214D01*
X13292500Y-18276929D01*
X13278214Y-18262643D01*
X13263928Y-18234072D01*
X13249643Y-18176929D01*
X13249643Y-18105500D01*
X13263928Y-18048357D01*
X13278214Y-18019786D01*
X13292500Y-18005500D01*
X13321071Y-17991214D01*
X13521071Y-17991214D02*
X13706785Y-17991214D01*
X13606785Y-18105500D01*
X13649643Y-18105500D01*
X13678214Y-18119786D01*
X13692500Y-18134072D01*
X13706785Y-18162643D01*
X13706785Y-18234072D01*
X13692500Y-18262643D01*
X13678214Y-18276929D01*
X13649643Y-18291214D01*
X13563928Y-18291214D01*
X13535357Y-18276929D01*
X13521071Y-18262643D01*
X13849643Y-18291214D02*
X13906785Y-18291214D01*
X13935357Y-18276929D01*
X13949643Y-18262643D01*
X13978214Y-18219786D01*
X13992500Y-18162643D01*
X13992500Y-18048357D01*
X13978214Y-18019786D01*
X13963928Y-18005500D01*
X13935357Y-17991214D01*
X13878214Y-17991214D01*
X13849643Y-18005500D01*
X13835357Y-18019786D01*
X13821071Y-18048357D01*
X13821071Y-18119786D01*
X13835357Y-18148357D01*
X13849643Y-18162643D01*
X13878214Y-18176929D01*
X13935357Y-18176929D01*
X13963928Y-18162643D01*
X13978214Y-18148357D01*
X13992500Y-18119786D01*
X14106786Y-17991214D02*
X14106786Y-18048357D01*
X14221071Y-17991214D02*
X14221071Y-18048357D01*
X14663928Y-18405500D02*
X14649643Y-18391214D01*
X14621071Y-18348357D01*
X14606785Y-18319786D01*
X14592500Y-18276929D01*
X14578214Y-18205500D01*
X14578214Y-18148357D01*
X14592500Y-18076929D01*
X14606785Y-18034072D01*
X14621071Y-18005500D01*
X14649643Y-17962643D01*
X14663928Y-17948357D01*
X14906785Y-18091214D02*
X14906785Y-18291214D01*
X14835357Y-17976929D02*
X14763928Y-18191214D01*
X14949643Y-18191214D01*
X15292500Y-18291214D02*
X15292500Y-17991214D01*
X15421071Y-18291214D02*
X15421071Y-18134072D01*
X15406785Y-18105500D01*
X15378214Y-18091214D01*
X15335357Y-18091214D01*
X15306785Y-18105500D01*
X15292500Y-18119786D01*
X15606785Y-18291214D02*
X15578214Y-18276929D01*
X15563928Y-18262643D01*
X15549643Y-18234072D01*
X15549643Y-18148357D01*
X15563928Y-18119786D01*
X15578214Y-18105500D01*
X15606785Y-18091214D01*
X15649643Y-18091214D01*
X15678214Y-18105500D01*
X15692500Y-18119786D01*
X15706785Y-18148357D01*
X15706785Y-18234072D01*
X15692500Y-18262643D01*
X15678214Y-18276929D01*
X15649643Y-18291214D01*
X15606785Y-18291214D01*
X15878214Y-18291214D02*
X15849643Y-18276929D01*
X15835357Y-18248357D01*
X15835357Y-17991214D01*
X16106786Y-18276929D02*
X16078214Y-18291214D01*
X16021071Y-18291214D01*
X15992500Y-18276929D01*
X15978214Y-18248357D01*
X15978214Y-18134072D01*
X15992500Y-18105500D01*
X16021071Y-18091214D01*
X16078214Y-18091214D01*
X16106786Y-18105500D01*
X16121071Y-18134072D01*
X16121071Y-18162643D01*
X15978214Y-18191214D01*
X16235357Y-18276929D02*
X16263928Y-18291214D01*
X16321071Y-18291214D01*
X16349643Y-18276929D01*
X16363928Y-18248357D01*
X16363928Y-18234072D01*
X16349643Y-18205500D01*
X16321071Y-18191214D01*
X16278214Y-18191214D01*
X16249643Y-18176929D01*
X16235357Y-18148357D01*
X16235357Y-18134072D01*
X16249643Y-18105500D01*
X16278214Y-18091214D01*
X16321071Y-18091214D01*
X16349643Y-18105500D01*
X16463928Y-18405500D02*
X16478214Y-18391214D01*
X16506786Y-18348357D01*
X16521071Y-18319786D01*
X16535357Y-18276929D01*
X16549643Y-18205500D01*
X16549643Y-18148357D01*
X16535357Y-18076929D01*
X16521071Y-18034072D01*
X16506786Y-18005500D01*
X16478214Y-17962643D01*
X16463928Y-17948357D01*
M02*
