M48
;DRILL file {KiCad 4.0.6} date 01/11/18 12:12:56
;FORMAT={-:-/ absolute / inch / decimal}
FMAT,2
INCH,TZ
T1C0.028
T2C0.031
T3C0.032
T4C0.039
%
G90
G05
M72
T1
X4.05Y-5.7752
X4.05Y-5.85
X4.05Y-5.85
X4.1Y-4.65
X5.Y-4.65
X5.1Y-4.65
X5.25Y-5.45
X5.4Y-4.3
X5.4Y-5.9469
X5.5Y-5.5
X5.55Y-4.05
X5.55Y-4.45
X5.8Y-5.2
X6.Y-4.85
X6.Y-4.9248
X6.Y-5.15
X6.Y-5.2248
X6.0075Y-4.2
T2
X4.05Y-6.
X4.05Y-6.1
X4.05Y-6.2
X4.35Y-5.7
X4.35Y-6.1
X4.6Y-5.7
X4.6Y-6.1
X4.9Y-5.7
X4.9Y-6.1
X5.15Y-5.7
X5.15Y-6.1
X5.4Y-4.1031
X5.4Y-4.2016
X5.4Y-4.3
X5.4Y-4.3984
X5.4Y-5.8484
X5.4Y-5.9469
X5.4Y-6.0453
X5.55Y-4.05
X5.55Y-4.45
X5.55Y-5.4
X5.6925Y-4.2
X5.8Y-4.8
X5.8Y-5.2
X5.95Y-5.4
X6.0075Y-4.2
T3
X4.1Y-4.65
X4.1Y-5.25
X4.2Y-4.65
X4.2Y-5.25
X4.3Y-4.65
X4.3Y-5.25
X4.4Y-4.65
X4.4Y-5.25
X4.5Y-4.65
X4.5Y-5.25
X4.6Y-4.65
X4.6Y-5.25
X4.7Y-4.65
X4.7Y-5.25
X4.8Y-4.65
X4.8Y-5.25
X4.9Y-4.65
X4.9Y-5.25
X5.Y-4.65
X5.Y-5.25
X5.1Y-4.65
X5.1Y-5.25
X5.2Y-4.65
X5.2Y-5.25
X5.3Y-4.65
X5.3Y-5.25
X5.4Y-4.65
X5.4Y-5.25
X5.5Y-4.65
X5.5Y-5.25
T4
X5.822Y-4.5114
X5.822Y-4.6886
X6.078Y-4.5114
X6.078Y-4.6886
T0
M30
