M48
;DRILL file {KiCad 4.0.2-stable} date 06.03.2017 18:44:39
;FORMAT={-:-/ absolute / metric / decimal}
FMAT,2
METRIC,TZ
T1C0.700
T2C0.800
T3C0.813
T4C1.000
T5C1.001
%
G90
G05
M71
T1
X113.5Y-136.5
X125.Y-154.
X133.89Y-133.62
X136.Y-152.5
X141.51Y-133.62
T2
X102.96Y-150.96
X102.96Y-153.5
X102.96Y-156.04
X136.Y-147.5
X136.Y-150.
X136.Y-152.5
X137.5Y-104.5
X137.5Y-107.
X137.5Y-109.5
X137.5Y-112.
X144.5Y-135.075
X148.5Y-103.
X148.5Y-111.
X152.12Y-135.075
T3
X105.95Y-118.38
X105.95Y-133.62
X108.49Y-118.38
X108.49Y-133.62
X111.03Y-118.38
X111.03Y-133.62
X113.57Y-118.38
X113.57Y-133.62
X116.11Y-118.38
X116.11Y-133.62
X118.65Y-118.38
X118.65Y-133.62
X121.19Y-118.38
X121.19Y-133.62
X123.73Y-118.38
X123.73Y-133.62
X126.27Y-118.38
X126.27Y-133.62
X128.81Y-118.38
X128.81Y-133.62
X131.35Y-118.38
X131.35Y-133.62
X133.89Y-118.38
X133.89Y-133.62
X136.43Y-118.38
X136.43Y-133.62
X138.97Y-118.38
X138.97Y-133.62
X141.51Y-118.38
X141.51Y-133.62
T4
X146.75Y-115.25
X146.75Y-119.75
X153.25Y-115.25
X153.25Y-119.75
T5
X104.5Y-142.96
X104.5Y-145.5
X113.5Y-144.
X113.5Y-154.16
X119.Y-143.84
X119.Y-154.
X125.Y-143.84
X125.Y-154.
X131.Y-144.
X131.Y-154.16
X151.Y-126.5
X151.Y-129.04
T0
M30
