M48
;DRILL file {KiCad 4.0.6} date 01/11/18 13:17:46
;FORMAT={-:-/ absolute / metric / decimal}
FMAT,2
METRIC,TZ
T1C0.700
T2C0.800
T3C0.813
T4C1.000
%
G90
G05
M71
T1
X102.87Y-146.69
X102.87Y-148.59
X102.87Y-148.59
X104.14Y-118.11
X127.Y-118.11
X129.54Y-118.11
X133.35Y-138.43
X137.16Y-109.22
X137.16Y-151.05
X139.7Y-139.7
X140.97Y-102.87
X140.97Y-113.03
X147.32Y-132.08
X152.4Y-123.19
X152.4Y-125.09
X152.4Y-130.81
X152.4Y-132.71
X152.59Y-106.68
T2
X102.87Y-152.4
X102.87Y-154.94
X102.87Y-157.48
X110.49Y-144.78
X110.49Y-154.94
X116.84Y-144.78
X116.84Y-154.94
X124.46Y-144.78
X124.46Y-154.94
X130.81Y-144.78
X130.81Y-154.94
X137.16Y-104.22
X137.16Y-106.72
X137.16Y-109.22
X137.16Y-111.72
X137.16Y-148.55
X137.16Y-151.05
X137.16Y-153.55
X140.97Y-102.87
X140.97Y-113.03
X140.97Y-137.16
X144.59Y-106.68
X147.32Y-121.92
X147.32Y-132.08
X151.13Y-137.16
X152.59Y-106.68
T3
X104.14Y-118.11
X104.14Y-133.35
X106.68Y-118.11
X106.68Y-133.35
X109.22Y-118.11
X109.22Y-133.35
X111.76Y-118.11
X111.76Y-133.35
X114.3Y-118.11
X114.3Y-133.35
X116.84Y-118.11
X116.84Y-133.35
X119.38Y-118.11
X119.38Y-133.35
X121.92Y-118.11
X121.92Y-133.35
X124.46Y-118.11
X124.46Y-133.35
X127.Y-118.11
X127.Y-133.35
X129.54Y-118.11
X129.54Y-133.35
X132.08Y-118.11
X132.08Y-133.35
X134.62Y-118.11
X134.62Y-133.35
X137.16Y-118.11
X137.16Y-133.35
X139.7Y-118.11
X139.7Y-133.35
T4
X147.88Y-114.59
X147.88Y-119.09
X154.38Y-114.59
X154.38Y-119.09
T0
M30
