%TF.GenerationSoftware,KiCad,Pcbnew,4.0.6*%
%TF.CreationDate,2018-01-11T13:18:02+01:00*%
%TF.ProjectId,BrausteuerungV3,42726175737465756572756E6756332E,rev?*%
%TF.FileFunction,Legend,Top*%
%FSLAX46Y46*%
G04 Gerber Fmt 4.6, Leading zero omitted, Abs format (unit mm)*
G04 Created by KiCad (PCBNEW 4.0.6) date 01/11/18 13:18:02*
%MOMM*%
%LPD*%
G01*
G04 APERTURE LIST*
%ADD10C,0.100000*%
%ADD11C,0.150000*%
%ADD12C,0.300000*%
%ADD13C,0.400000*%
%ADD14C,0.120000*%
%ADD15C,0.381000*%
%ADD16C,0.304800*%
G04 APERTURE END LIST*
D10*
D11*
X177002200Y-166007200D02*
X177002200Y-198007200D01*
X285002200Y-198007200D01*
X285002200Y-166007200D01*
X177002200Y-166007200D01*
D10*
D11*
X10000000Y-10000000D02*
X10000000Y-200007200D01*
X287002200Y-200007200D01*
X287002200Y-10000000D01*
X10000000Y-10000000D01*
D10*
D11*
X12000000Y-12000000D02*
X12000000Y-198007200D01*
X285002200Y-198007200D01*
X285002200Y-12000000D01*
X12000000Y-12000000D01*
D10*
D11*
X60000000Y-12000000D02*
X60000000Y-10000000D01*
D10*
D11*
X110000000Y-12000000D02*
X110000000Y-10000000D01*
D10*
D11*
X160000000Y-12000000D02*
X160000000Y-10000000D01*
D10*
D11*
X210000000Y-12000000D02*
X210000000Y-10000000D01*
D10*
D11*
X260000000Y-12000000D02*
X260000000Y-10000000D01*
D10*
D11*
X35990476Y-11588095D02*
X35247619Y-11588095D01*
X35619048Y-11588095D02*
X35619048Y-10288095D01*
X35495238Y-10473810D01*
X35371429Y-10597619D01*
X35247619Y-10659524D01*
D10*
D11*
X85247619Y-10411905D02*
X85309524Y-10350000D01*
X85433333Y-10288095D01*
X85742857Y-10288095D01*
X85866667Y-10350000D01*
X85928571Y-10411905D01*
X85990476Y-10535714D01*
X85990476Y-10659524D01*
X85928571Y-10845238D01*
X85185714Y-11588095D01*
X85990476Y-11588095D01*
D10*
D11*
X135185714Y-10288095D02*
X135990476Y-10288095D01*
X135557143Y-10783333D01*
X135742857Y-10783333D01*
X135866667Y-10845238D01*
X135928571Y-10907143D01*
X135990476Y-11030952D01*
X135990476Y-11340476D01*
X135928571Y-11464286D01*
X135866667Y-11526190D01*
X135742857Y-11588095D01*
X135371429Y-11588095D01*
X135247619Y-11526190D01*
X135185714Y-11464286D01*
D10*
D11*
X185866667Y-10721429D02*
X185866667Y-11588095D01*
X185557143Y-10226190D02*
X185247619Y-11154762D01*
X186052381Y-11154762D01*
D10*
D11*
X235928571Y-10288095D02*
X235309524Y-10288095D01*
X235247619Y-10907143D01*
X235309524Y-10845238D01*
X235433333Y-10783333D01*
X235742857Y-10783333D01*
X235866667Y-10845238D01*
X235928571Y-10907143D01*
X235990476Y-11030952D01*
X235990476Y-11340476D01*
X235928571Y-11464286D01*
X235866667Y-11526190D01*
X235742857Y-11588095D01*
X235433333Y-11588095D01*
X235309524Y-11526190D01*
X235247619Y-11464286D01*
D10*
D11*
X285866667Y-10288095D02*
X285619048Y-10288095D01*
X285495238Y-10350000D01*
X285433333Y-10411905D01*
X285309524Y-10597619D01*
X285247619Y-10845238D01*
X285247619Y-11340476D01*
X285309524Y-11464286D01*
X285371429Y-11526190D01*
X285495238Y-11588095D01*
X285742857Y-11588095D01*
X285866667Y-11526190D01*
X285928571Y-11464286D01*
X285990476Y-11340476D01*
X285990476Y-11030952D01*
X285928571Y-10907143D01*
X285866667Y-10845238D01*
X285742857Y-10783333D01*
X285495238Y-10783333D01*
X285371429Y-10845238D01*
X285309524Y-10907143D01*
X285247619Y-11030952D01*
D10*
D11*
X60000000Y-198007200D02*
X60000000Y-200007200D01*
D10*
D11*
X110000000Y-198007200D02*
X110000000Y-200007200D01*
D10*
D11*
X160000000Y-198007200D02*
X160000000Y-200007200D01*
D10*
D11*
X210000000Y-198007200D02*
X210000000Y-200007200D01*
D10*
D11*
X260000000Y-198007200D02*
X260000000Y-200007200D01*
D10*
D11*
X35990476Y-199595295D02*
X35247619Y-199595295D01*
X35619048Y-199595295D02*
X35619048Y-198295295D01*
X35495238Y-198481010D01*
X35371429Y-198604819D01*
X35247619Y-198666724D01*
D10*
D11*
X85247619Y-198419105D02*
X85309524Y-198357200D01*
X85433333Y-198295295D01*
X85742857Y-198295295D01*
X85866667Y-198357200D01*
X85928571Y-198419105D01*
X85990476Y-198542914D01*
X85990476Y-198666724D01*
X85928571Y-198852438D01*
X85185714Y-199595295D01*
X85990476Y-199595295D01*
D10*
D11*
X135185714Y-198295295D02*
X135990476Y-198295295D01*
X135557143Y-198790533D01*
X135742857Y-198790533D01*
X135866667Y-198852438D01*
X135928571Y-198914343D01*
X135990476Y-199038152D01*
X135990476Y-199347676D01*
X135928571Y-199471486D01*
X135866667Y-199533390D01*
X135742857Y-199595295D01*
X135371429Y-199595295D01*
X135247619Y-199533390D01*
X135185714Y-199471486D01*
D10*
D11*
X185866667Y-198728629D02*
X185866667Y-199595295D01*
X185557143Y-198233390D02*
X185247619Y-199161962D01*
X186052381Y-199161962D01*
D10*
D11*
X235928571Y-198295295D02*
X235309524Y-198295295D01*
X235247619Y-198914343D01*
X235309524Y-198852438D01*
X235433333Y-198790533D01*
X235742857Y-198790533D01*
X235866667Y-198852438D01*
X235928571Y-198914343D01*
X235990476Y-199038152D01*
X235990476Y-199347676D01*
X235928571Y-199471486D01*
X235866667Y-199533390D01*
X235742857Y-199595295D01*
X235433333Y-199595295D01*
X235309524Y-199533390D01*
X235247619Y-199471486D01*
D10*
D11*
X285866667Y-198295295D02*
X285619048Y-198295295D01*
X285495238Y-198357200D01*
X285433333Y-198419105D01*
X285309524Y-198604819D01*
X285247619Y-198852438D01*
X285247619Y-199347676D01*
X285309524Y-199471486D01*
X285371429Y-199533390D01*
X285495238Y-199595295D01*
X285742857Y-199595295D01*
X285866667Y-199533390D01*
X285928571Y-199471486D01*
X285990476Y-199347676D01*
X285990476Y-199038152D01*
X285928571Y-198914343D01*
X285866667Y-198852438D01*
X285742857Y-198790533D01*
X285495238Y-198790533D01*
X285371429Y-198852438D01*
X285309524Y-198914343D01*
X285247619Y-199038152D01*
D10*
D11*
X10000000Y-60000000D02*
X12000000Y-60000000D01*
D10*
D11*
X10000000Y-110000000D02*
X12000000Y-110000000D01*
D10*
D11*
X10000000Y-160000000D02*
X12000000Y-160000000D01*
D10*
D11*
X10690476Y-35216667D02*
X11309524Y-35216667D01*
X10566667Y-35588095D02*
X11000000Y-34288095D01*
X11433333Y-35588095D01*
D10*
D11*
X11092857Y-84907143D02*
X11278571Y-84969048D01*
X11340476Y-85030952D01*
X11402381Y-85154762D01*
X11402381Y-85340476D01*
X11340476Y-85464286D01*
X11278571Y-85526190D01*
X11154762Y-85588095D01*
X10659524Y-85588095D01*
X10659524Y-84288095D01*
X11092857Y-84288095D01*
X11216667Y-84350000D01*
X11278571Y-84411905D01*
X11340476Y-84535714D01*
X11340476Y-84659524D01*
X11278571Y-84783333D01*
X11216667Y-84845238D01*
X11092857Y-84907143D01*
X10659524Y-84907143D01*
D10*
D11*
X11402381Y-135464286D02*
X11340476Y-135526190D01*
X11154762Y-135588095D01*
X11030952Y-135588095D01*
X10845238Y-135526190D01*
X10721429Y-135402381D01*
X10659524Y-135278571D01*
X10597619Y-135030952D01*
X10597619Y-134845238D01*
X10659524Y-134597619D01*
X10721429Y-134473810D01*
X10845238Y-134350000D01*
X11030952Y-134288095D01*
X11154762Y-134288095D01*
X11340476Y-134350000D01*
X11402381Y-134411905D01*
D10*
D11*
X10659524Y-185588095D02*
X10659524Y-184288095D01*
X10969048Y-184288095D01*
X11154762Y-184350000D01*
X11278571Y-184473810D01*
X11340476Y-184597619D01*
X11402381Y-184845238D01*
X11402381Y-185030952D01*
X11340476Y-185278571D01*
X11278571Y-185402381D01*
X11154762Y-185526190D01*
X10969048Y-185588095D01*
X10659524Y-185588095D01*
D10*
D11*
X287002200Y-60000000D02*
X285002200Y-60000000D01*
D10*
D11*
X287002200Y-110000000D02*
X285002200Y-110000000D01*
D10*
D11*
X287002200Y-160000000D02*
X285002200Y-160000000D01*
D10*
D11*
X285692676Y-35216667D02*
X286311724Y-35216667D01*
X285568867Y-35588095D02*
X286002200Y-34288095D01*
X286435533Y-35588095D01*
D10*
D11*
X286095057Y-84907143D02*
X286280771Y-84969048D01*
X286342676Y-85030952D01*
X286404581Y-85154762D01*
X286404581Y-85340476D01*
X286342676Y-85464286D01*
X286280771Y-85526190D01*
X286156962Y-85588095D01*
X285661724Y-85588095D01*
X285661724Y-84288095D01*
X286095057Y-84288095D01*
X286218867Y-84350000D01*
X286280771Y-84411905D01*
X286342676Y-84535714D01*
X286342676Y-84659524D01*
X286280771Y-84783333D01*
X286218867Y-84845238D01*
X286095057Y-84907143D01*
X285661724Y-84907143D01*
D10*
D11*
X286404581Y-135464286D02*
X286342676Y-135526190D01*
X286156962Y-135588095D01*
X286033152Y-135588095D01*
X285847438Y-135526190D01*
X285723629Y-135402381D01*
X285661724Y-135278571D01*
X285599819Y-135030952D01*
X285599819Y-134845238D01*
X285661724Y-134597619D01*
X285723629Y-134473810D01*
X285847438Y-134350000D01*
X286033152Y-134288095D01*
X286156962Y-134288095D01*
X286342676Y-134350000D01*
X286404581Y-134411905D01*
D10*
D11*
X285661724Y-185588095D02*
X285661724Y-184288095D01*
X285971248Y-184288095D01*
X286156962Y-184350000D01*
X286280771Y-184473810D01*
X286342676Y-184597619D01*
X286404581Y-184845238D01*
X286404581Y-185030952D01*
X286342676Y-185278571D01*
X286280771Y-185402381D01*
X286156962Y-185526190D01*
X285971248Y-185588095D01*
X285661724Y-185588095D01*
D10*
D11*
X200359343Y-193785771D02*
X200359343Y-192285771D01*
X200716486Y-192285771D01*
X200930771Y-192357200D01*
X201073629Y-192500057D01*
X201145057Y-192642914D01*
X201216486Y-192928629D01*
X201216486Y-193142914D01*
X201145057Y-193428629D01*
X201073629Y-193571486D01*
X200930771Y-193714343D01*
X200716486Y-193785771D01*
X200359343Y-193785771D01*
X202502200Y-193785771D02*
X202502200Y-193000057D01*
X202430771Y-192857200D01*
X202287914Y-192785771D01*
X202002200Y-192785771D01*
X201859343Y-192857200D01*
X202502200Y-193714343D02*
X202359343Y-193785771D01*
X202002200Y-193785771D01*
X201859343Y-193714343D01*
X201787914Y-193571486D01*
X201787914Y-193428629D01*
X201859343Y-193285771D01*
X202002200Y-193214343D01*
X202359343Y-193214343D01*
X202502200Y-193142914D01*
X203002200Y-192785771D02*
X203573629Y-192785771D01*
X203216486Y-192285771D02*
X203216486Y-193571486D01*
X203287914Y-193714343D01*
X203430772Y-193785771D01*
X203573629Y-193785771D01*
X204645057Y-193714343D02*
X204502200Y-193785771D01*
X204216486Y-193785771D01*
X204073629Y-193714343D01*
X204002200Y-193571486D01*
X204002200Y-193000057D01*
X204073629Y-192857200D01*
X204216486Y-192785771D01*
X204502200Y-192785771D01*
X204645057Y-192857200D01*
X204716486Y-193000057D01*
X204716486Y-193142914D01*
X204002200Y-193285771D01*
X205359343Y-193642914D02*
X205430771Y-193714343D01*
X205359343Y-193785771D01*
X205287914Y-193714343D01*
X205359343Y-193642914D01*
X205359343Y-193785771D01*
X205359343Y-192857200D02*
X205430771Y-192928629D01*
X205359343Y-193000057D01*
X205287914Y-192928629D01*
X205359343Y-192857200D01*
X205359343Y-193000057D01*
D10*
D11*
X177002200Y-194507200D02*
X285002200Y-194507200D01*
D10*
D11*
X178359343Y-196585771D02*
X178359343Y-195085771D01*
X179216486Y-196585771D02*
X178573629Y-195728629D01*
X179216486Y-195085771D02*
X178359343Y-195942914D01*
X179859343Y-196585771D02*
X179859343Y-195585771D01*
X179859343Y-195085771D02*
X179787914Y-195157200D01*
X179859343Y-195228629D01*
X179930771Y-195157200D01*
X179859343Y-195085771D01*
X179859343Y-195228629D01*
X181430772Y-196442914D02*
X181359343Y-196514343D01*
X181145057Y-196585771D01*
X181002200Y-196585771D01*
X180787915Y-196514343D01*
X180645057Y-196371486D01*
X180573629Y-196228629D01*
X180502200Y-195942914D01*
X180502200Y-195728629D01*
X180573629Y-195442914D01*
X180645057Y-195300057D01*
X180787915Y-195157200D01*
X181002200Y-195085771D01*
X181145057Y-195085771D01*
X181359343Y-195157200D01*
X181430772Y-195228629D01*
X182716486Y-196585771D02*
X182716486Y-195800057D01*
X182645057Y-195657200D01*
X182502200Y-195585771D01*
X182216486Y-195585771D01*
X182073629Y-195657200D01*
X182716486Y-196514343D02*
X182573629Y-196585771D01*
X182216486Y-196585771D01*
X182073629Y-196514343D01*
X182002200Y-196371486D01*
X182002200Y-196228629D01*
X182073629Y-196085771D01*
X182216486Y-196014343D01*
X182573629Y-196014343D01*
X182716486Y-195942914D01*
X184073629Y-196585771D02*
X184073629Y-195085771D01*
X184073629Y-196514343D02*
X183930772Y-196585771D01*
X183645058Y-196585771D01*
X183502200Y-196514343D01*
X183430772Y-196442914D01*
X183359343Y-196300057D01*
X183359343Y-195871486D01*
X183430772Y-195728629D01*
X183502200Y-195657200D01*
X183645058Y-195585771D01*
X183930772Y-195585771D01*
X184073629Y-195657200D01*
X185930772Y-195800057D02*
X186430772Y-195800057D01*
X186645058Y-196585771D02*
X185930772Y-196585771D01*
X185930772Y-195085771D01*
X186645058Y-195085771D01*
X187287915Y-196442914D02*
X187359343Y-196514343D01*
X187287915Y-196585771D01*
X187216486Y-196514343D01*
X187287915Y-196442914D01*
X187287915Y-196585771D01*
X188002201Y-196585771D02*
X188002201Y-195085771D01*
X188359344Y-195085771D01*
X188573629Y-195157200D01*
X188716487Y-195300057D01*
X188787915Y-195442914D01*
X188859344Y-195728629D01*
X188859344Y-195942914D01*
X188787915Y-196228629D01*
X188716487Y-196371486D01*
X188573629Y-196514343D01*
X188359344Y-196585771D01*
X188002201Y-196585771D01*
X189502201Y-196442914D02*
X189573629Y-196514343D01*
X189502201Y-196585771D01*
X189430772Y-196514343D01*
X189502201Y-196442914D01*
X189502201Y-196585771D01*
X190145058Y-196157200D02*
X190859344Y-196157200D01*
X190002201Y-196585771D02*
X190502201Y-195085771D01*
X191002201Y-196585771D01*
X191502201Y-196442914D02*
X191573629Y-196514343D01*
X191502201Y-196585771D01*
X191430772Y-196514343D01*
X191502201Y-196442914D01*
X191502201Y-196585771D01*
X194502201Y-196585771D02*
X194502201Y-195085771D01*
X194645058Y-196014343D02*
X195073629Y-196585771D01*
X195073629Y-195585771D02*
X194502201Y-196157200D01*
X195716487Y-196585771D02*
X195716487Y-195585771D01*
X195716487Y-195085771D02*
X195645058Y-195157200D01*
X195716487Y-195228629D01*
X195787915Y-195157200D01*
X195716487Y-195085771D01*
X195716487Y-195228629D01*
X197073630Y-196514343D02*
X196930773Y-196585771D01*
X196645059Y-196585771D01*
X196502201Y-196514343D01*
X196430773Y-196442914D01*
X196359344Y-196300057D01*
X196359344Y-195871486D01*
X196430773Y-195728629D01*
X196502201Y-195657200D01*
X196645059Y-195585771D01*
X196930773Y-195585771D01*
X197073630Y-195657200D01*
X198359344Y-196585771D02*
X198359344Y-195800057D01*
X198287915Y-195657200D01*
X198145058Y-195585771D01*
X197859344Y-195585771D01*
X197716487Y-195657200D01*
X198359344Y-196514343D02*
X198216487Y-196585771D01*
X197859344Y-196585771D01*
X197716487Y-196514343D01*
X197645058Y-196371486D01*
X197645058Y-196228629D01*
X197716487Y-196085771D01*
X197859344Y-196014343D01*
X198216487Y-196014343D01*
X198359344Y-195942914D01*
X199716487Y-196585771D02*
X199716487Y-195085771D01*
X199716487Y-196514343D02*
X199573630Y-196585771D01*
X199287916Y-196585771D01*
X199145058Y-196514343D01*
X199073630Y-196442914D01*
X199002201Y-196300057D01*
X199002201Y-195871486D01*
X199073630Y-195728629D01*
X199145058Y-195657200D01*
X199287916Y-195585771D01*
X199573630Y-195585771D01*
X199716487Y-195657200D01*
X202216487Y-195585771D02*
X202216487Y-196585771D01*
X201859344Y-195014343D02*
X201502201Y-196085771D01*
X202430773Y-196085771D01*
X203002201Y-196442914D02*
X203073629Y-196514343D01*
X203002201Y-196585771D01*
X202930772Y-196514343D01*
X203002201Y-196442914D01*
X203002201Y-196585771D01*
X204002201Y-195085771D02*
X204145058Y-195085771D01*
X204287915Y-195157200D01*
X204359344Y-195228629D01*
X204430773Y-195371486D01*
X204502201Y-195657200D01*
X204502201Y-196014343D01*
X204430773Y-196300057D01*
X204359344Y-196442914D01*
X204287915Y-196514343D01*
X204145058Y-196585771D01*
X204002201Y-196585771D01*
X203859344Y-196514343D01*
X203787915Y-196442914D01*
X203716487Y-196300057D01*
X203645058Y-196014343D01*
X203645058Y-195657200D01*
X203716487Y-195371486D01*
X203787915Y-195228629D01*
X203859344Y-195157200D01*
X204002201Y-195085771D01*
X205145058Y-196442914D02*
X205216486Y-196514343D01*
X205145058Y-196585771D01*
X205073629Y-196514343D01*
X205145058Y-196442914D01*
X205145058Y-196585771D01*
X206502201Y-195085771D02*
X206216487Y-195085771D01*
X206073630Y-195157200D01*
X206002201Y-195228629D01*
X205859344Y-195442914D01*
X205787915Y-195728629D01*
X205787915Y-196300057D01*
X205859344Y-196442914D01*
X205930772Y-196514343D01*
X206073630Y-196585771D01*
X206359344Y-196585771D01*
X206502201Y-196514343D01*
X206573630Y-196442914D01*
X206645058Y-196300057D01*
X206645058Y-195942914D01*
X206573630Y-195800057D01*
X206502201Y-195728629D01*
X206359344Y-195657200D01*
X206073630Y-195657200D01*
X205930772Y-195728629D01*
X205859344Y-195800057D01*
X205787915Y-195942914D01*
D10*
D11*
X177002200Y-191507200D02*
X285002200Y-191507200D01*
D10*
D12*
X264216486Y-193785771D02*
X263716486Y-193071486D01*
X263359343Y-193785771D02*
X263359343Y-192285771D01*
X263930771Y-192285771D01*
X264073629Y-192357200D01*
X264145057Y-192428629D01*
X264216486Y-192571486D01*
X264216486Y-192785771D01*
X264145057Y-192928629D01*
X264073629Y-193000057D01*
X263930771Y-193071486D01*
X263359343Y-193071486D01*
X265430771Y-193714343D02*
X265287914Y-193785771D01*
X265002200Y-193785771D01*
X264859343Y-193714343D01*
X264787914Y-193571486D01*
X264787914Y-193000057D01*
X264859343Y-192857200D01*
X265002200Y-192785771D01*
X265287914Y-192785771D01*
X265430771Y-192857200D01*
X265502200Y-193000057D01*
X265502200Y-193142914D01*
X264787914Y-193285771D01*
X266002200Y-192785771D02*
X266359343Y-193785771D01*
X266716485Y-192785771D01*
X267287914Y-193642914D02*
X267359342Y-193714343D01*
X267287914Y-193785771D01*
X267216485Y-193714343D01*
X267287914Y-193642914D01*
X267287914Y-193785771D01*
X267287914Y-192857200D02*
X267359342Y-192928629D01*
X267287914Y-193000057D01*
X267216485Y-192928629D01*
X267287914Y-192857200D01*
X267287914Y-193000057D01*
D10*
D11*
X178287914Y-193714343D02*
X178502200Y-193785771D01*
X178859343Y-193785771D01*
X179002200Y-193714343D01*
X179073629Y-193642914D01*
X179145057Y-193500057D01*
X179145057Y-193357200D01*
X179073629Y-193214343D01*
X179002200Y-193142914D01*
X178859343Y-193071486D01*
X178573629Y-193000057D01*
X178430771Y-192928629D01*
X178359343Y-192857200D01*
X178287914Y-192714343D01*
X178287914Y-192571486D01*
X178359343Y-192428629D01*
X178430771Y-192357200D01*
X178573629Y-192285771D01*
X178930771Y-192285771D01*
X179145057Y-192357200D01*
X179787914Y-193785771D02*
X179787914Y-192785771D01*
X179787914Y-192285771D02*
X179716485Y-192357200D01*
X179787914Y-192428629D01*
X179859342Y-192357200D01*
X179787914Y-192285771D01*
X179787914Y-192428629D01*
X180359343Y-192785771D02*
X181145057Y-192785771D01*
X180359343Y-193785771D01*
X181145057Y-193785771D01*
X182287914Y-193714343D02*
X182145057Y-193785771D01*
X181859343Y-193785771D01*
X181716486Y-193714343D01*
X181645057Y-193571486D01*
X181645057Y-193000057D01*
X181716486Y-192857200D01*
X181859343Y-192785771D01*
X182145057Y-192785771D01*
X182287914Y-192857200D01*
X182359343Y-193000057D01*
X182359343Y-193142914D01*
X181645057Y-193285771D01*
X183002200Y-193642914D02*
X183073628Y-193714343D01*
X183002200Y-193785771D01*
X182930771Y-193714343D01*
X183002200Y-193642914D01*
X183002200Y-193785771D01*
X183002200Y-192857200D02*
X183073628Y-192928629D01*
X183002200Y-193000057D01*
X182930771Y-192928629D01*
X183002200Y-192857200D01*
X183002200Y-193000057D01*
X184787914Y-193357200D02*
X185502200Y-193357200D01*
X184645057Y-193785771D02*
X185145057Y-192285771D01*
X185645057Y-193785771D01*
X186787914Y-192785771D02*
X186787914Y-193785771D01*
X186430771Y-192214343D02*
X186073628Y-193285771D01*
X187002200Y-193285771D01*
D10*
D11*
X263359343Y-196585771D02*
X263359343Y-195085771D01*
X264716486Y-196585771D02*
X264716486Y-195085771D01*
X264716486Y-196514343D02*
X264573629Y-196585771D01*
X264287915Y-196585771D01*
X264145057Y-196514343D01*
X264073629Y-196442914D01*
X264002200Y-196300057D01*
X264002200Y-195871486D01*
X264073629Y-195728629D01*
X264145057Y-195657200D01*
X264287915Y-195585771D01*
X264573629Y-195585771D01*
X264716486Y-195657200D01*
X265430772Y-196442914D02*
X265502200Y-196514343D01*
X265430772Y-196585771D01*
X265359343Y-196514343D01*
X265430772Y-196442914D01*
X265430772Y-196585771D01*
X265430772Y-195657200D02*
X265502200Y-195728629D01*
X265430772Y-195800057D01*
X265359343Y-195728629D01*
X265430772Y-195657200D01*
X265430772Y-195800057D01*
X268073629Y-196585771D02*
X267216486Y-196585771D01*
X267645058Y-196585771D02*
X267645058Y-195085771D01*
X267502201Y-195300057D01*
X267359343Y-195442914D01*
X267216486Y-195514343D01*
X269787914Y-195014343D02*
X268502200Y-196942914D01*
X271073629Y-196585771D02*
X270216486Y-196585771D01*
X270645058Y-196585771D02*
X270645058Y-195085771D01*
X270502201Y-195300057D01*
X270359343Y-195442914D01*
X270216486Y-195514343D01*
D10*
D11*
X177002200Y-187507200D02*
X285002200Y-187507200D01*
D10*
D13*
X178454581Y-188211962D02*
X179597438Y-188211962D01*
X178776010Y-190211962D02*
X179026010Y-188211962D01*
X180014105Y-190211962D02*
X180180771Y-188878629D01*
X180264105Y-188211962D02*
X180156962Y-188307200D01*
X180240295Y-188402438D01*
X180347439Y-188307200D01*
X180264105Y-188211962D01*
X180240295Y-188402438D01*
X180847438Y-188878629D02*
X181609343Y-188878629D01*
X181216486Y-188211962D02*
X181002200Y-189926248D01*
X181073630Y-190116724D01*
X181252201Y-190211962D01*
X181442677Y-190211962D01*
X182395058Y-190211962D02*
X182216487Y-190116724D01*
X182145057Y-189926248D01*
X182359343Y-188211962D01*
X183930772Y-190116724D02*
X183728391Y-190211962D01*
X183347439Y-190211962D01*
X183168867Y-190116724D01*
X183097438Y-189926248D01*
X183192676Y-189164343D01*
X183311724Y-188973867D01*
X183514105Y-188878629D01*
X183895057Y-188878629D01*
X184073629Y-188973867D01*
X184145057Y-189164343D01*
X184121248Y-189354819D01*
X183145057Y-189545295D01*
X184895057Y-190021486D02*
X184978392Y-190116724D01*
X184871248Y-190211962D01*
X184787915Y-190116724D01*
X184895057Y-190021486D01*
X184871248Y-190211962D01*
X185026010Y-188973867D02*
X185109344Y-189069105D01*
X185002200Y-189164343D01*
X184918867Y-189069105D01*
X185026010Y-188973867D01*
X185002200Y-189164343D01*
D10*
D11*
X178859343Y-185600057D02*
X178359343Y-185600057D01*
X178359343Y-186385771D02*
X178359343Y-184885771D01*
X179073629Y-184885771D01*
X179645057Y-186385771D02*
X179645057Y-185385771D01*
X179645057Y-184885771D02*
X179573628Y-184957200D01*
X179645057Y-185028629D01*
X179716485Y-184957200D01*
X179645057Y-184885771D01*
X179645057Y-185028629D01*
X180573629Y-186385771D02*
X180430771Y-186314343D01*
X180359343Y-186171486D01*
X180359343Y-184885771D01*
X181716485Y-186314343D02*
X181573628Y-186385771D01*
X181287914Y-186385771D01*
X181145057Y-186314343D01*
X181073628Y-186171486D01*
X181073628Y-185600057D01*
X181145057Y-185457200D01*
X181287914Y-185385771D01*
X181573628Y-185385771D01*
X181716485Y-185457200D01*
X181787914Y-185600057D01*
X181787914Y-185742914D01*
X181073628Y-185885771D01*
X182430771Y-186242914D02*
X182502199Y-186314343D01*
X182430771Y-186385771D01*
X182359342Y-186314343D01*
X182430771Y-186242914D01*
X182430771Y-186385771D01*
X182430771Y-185457200D02*
X182502199Y-185528629D01*
X182430771Y-185600057D01*
X182359342Y-185528629D01*
X182430771Y-185457200D01*
X182430771Y-185600057D01*
X184787914Y-185600057D02*
X185002200Y-185671486D01*
X185073628Y-185742914D01*
X185145057Y-185885771D01*
X185145057Y-186100057D01*
X185073628Y-186242914D01*
X185002200Y-186314343D01*
X184859342Y-186385771D01*
X184287914Y-186385771D01*
X184287914Y-184885771D01*
X184787914Y-184885771D01*
X184930771Y-184957200D01*
X185002200Y-185028629D01*
X185073628Y-185171486D01*
X185073628Y-185314343D01*
X185002200Y-185457200D01*
X184930771Y-185528629D01*
X184787914Y-185600057D01*
X184287914Y-185600057D01*
X185787914Y-186385771D02*
X185787914Y-185385771D01*
X185787914Y-185671486D02*
X185859342Y-185528629D01*
X185930771Y-185457200D01*
X186073628Y-185385771D01*
X186216485Y-185385771D01*
X187359342Y-186385771D02*
X187359342Y-185600057D01*
X187287913Y-185457200D01*
X187145056Y-185385771D01*
X186859342Y-185385771D01*
X186716485Y-185457200D01*
X187359342Y-186314343D02*
X187216485Y-186385771D01*
X186859342Y-186385771D01*
X186716485Y-186314343D01*
X186645056Y-186171486D01*
X186645056Y-186028629D01*
X186716485Y-185885771D01*
X186859342Y-185814343D01*
X187216485Y-185814343D01*
X187359342Y-185742914D01*
X188716485Y-185385771D02*
X188716485Y-186385771D01*
X188073628Y-185385771D02*
X188073628Y-186171486D01*
X188145056Y-186314343D01*
X188287914Y-186385771D01*
X188502199Y-186385771D01*
X188645056Y-186314343D01*
X188716485Y-186242914D01*
X189359342Y-186314343D02*
X189502199Y-186385771D01*
X189787914Y-186385771D01*
X189930771Y-186314343D01*
X190002199Y-186171486D01*
X190002199Y-186100057D01*
X189930771Y-185957200D01*
X189787914Y-185885771D01*
X189573628Y-185885771D01*
X189430771Y-185814343D01*
X189359342Y-185671486D01*
X189359342Y-185600057D01*
X189430771Y-185457200D01*
X189573628Y-185385771D01*
X189787914Y-185385771D01*
X189930771Y-185457200D01*
X190430771Y-185385771D02*
X191002200Y-185385771D01*
X190645057Y-184885771D02*
X190645057Y-186171486D01*
X190716485Y-186314343D01*
X190859343Y-186385771D01*
X191002200Y-186385771D01*
X192073628Y-186314343D02*
X191930771Y-186385771D01*
X191645057Y-186385771D01*
X191502200Y-186314343D01*
X191430771Y-186171486D01*
X191430771Y-185600057D01*
X191502200Y-185457200D01*
X191645057Y-185385771D01*
X191930771Y-185385771D01*
X192073628Y-185457200D01*
X192145057Y-185600057D01*
X192145057Y-185742914D01*
X191430771Y-185885771D01*
X193430771Y-185385771D02*
X193430771Y-186385771D01*
X192787914Y-185385771D02*
X192787914Y-186171486D01*
X192859342Y-186314343D01*
X193002200Y-186385771D01*
X193216485Y-186385771D01*
X193359342Y-186314343D01*
X193430771Y-186242914D01*
X194716485Y-186314343D02*
X194573628Y-186385771D01*
X194287914Y-186385771D01*
X194145057Y-186314343D01*
X194073628Y-186171486D01*
X194073628Y-185600057D01*
X194145057Y-185457200D01*
X194287914Y-185385771D01*
X194573628Y-185385771D01*
X194716485Y-185457200D01*
X194787914Y-185600057D01*
X194787914Y-185742914D01*
X194073628Y-185885771D01*
X195430771Y-186385771D02*
X195430771Y-185385771D01*
X195430771Y-185671486D02*
X195502199Y-185528629D01*
X195573628Y-185457200D01*
X195716485Y-185385771D01*
X195859342Y-185385771D01*
X197002199Y-185385771D02*
X197002199Y-186385771D01*
X196359342Y-185385771D02*
X196359342Y-186171486D01*
X196430770Y-186314343D01*
X196573628Y-186385771D01*
X196787913Y-186385771D01*
X196930770Y-186314343D01*
X197002199Y-186242914D01*
X197716485Y-185385771D02*
X197716485Y-186385771D01*
X197716485Y-185528629D02*
X197787913Y-185457200D01*
X197930771Y-185385771D01*
X198145056Y-185385771D01*
X198287913Y-185457200D01*
X198359342Y-185600057D01*
X198359342Y-186385771D01*
X199716485Y-185385771D02*
X199716485Y-186600057D01*
X199645056Y-186742914D01*
X199573628Y-186814343D01*
X199430771Y-186885771D01*
X199216485Y-186885771D01*
X199073628Y-186814343D01*
X199716485Y-186314343D02*
X199573628Y-186385771D01*
X199287914Y-186385771D01*
X199145056Y-186314343D01*
X199073628Y-186242914D01*
X199002199Y-186100057D01*
X199002199Y-185671486D01*
X199073628Y-185528629D01*
X199145056Y-185457200D01*
X199287914Y-185385771D01*
X199573628Y-185385771D01*
X199716485Y-185457200D01*
X200216485Y-184885771D02*
X200716485Y-186385771D01*
X201216485Y-184885771D01*
X201573628Y-184885771D02*
X202502199Y-184885771D01*
X202002199Y-185457200D01*
X202216485Y-185457200D01*
X202359342Y-185528629D01*
X202430771Y-185600057D01*
X202502199Y-185742914D01*
X202502199Y-186100057D01*
X202430771Y-186242914D01*
X202359342Y-186314343D01*
X202216485Y-186385771D01*
X201787913Y-186385771D01*
X201645056Y-186314343D01*
X201573628Y-186242914D01*
X203145056Y-186242914D02*
X203216484Y-186314343D01*
X203145056Y-186385771D01*
X203073627Y-186314343D01*
X203145056Y-186242914D01*
X203145056Y-186385771D01*
X203859342Y-186385771D02*
X203859342Y-184885771D01*
X204002199Y-185814343D02*
X204430770Y-186385771D01*
X204430770Y-185385771D02*
X203859342Y-185957200D01*
X205073628Y-186385771D02*
X205073628Y-185385771D01*
X205073628Y-184885771D02*
X205002199Y-184957200D01*
X205073628Y-185028629D01*
X205145056Y-184957200D01*
X205073628Y-184885771D01*
X205073628Y-185028629D01*
X206430771Y-186314343D02*
X206287914Y-186385771D01*
X206002200Y-186385771D01*
X205859342Y-186314343D01*
X205787914Y-186242914D01*
X205716485Y-186100057D01*
X205716485Y-185671486D01*
X205787914Y-185528629D01*
X205859342Y-185457200D01*
X206002200Y-185385771D01*
X206287914Y-185385771D01*
X206430771Y-185457200D01*
X207716485Y-186385771D02*
X207716485Y-185600057D01*
X207645056Y-185457200D01*
X207502199Y-185385771D01*
X207216485Y-185385771D01*
X207073628Y-185457200D01*
X207716485Y-186314343D02*
X207573628Y-186385771D01*
X207216485Y-186385771D01*
X207073628Y-186314343D01*
X207002199Y-186171486D01*
X207002199Y-186028629D01*
X207073628Y-185885771D01*
X207216485Y-185814343D01*
X207573628Y-185814343D01*
X207716485Y-185742914D01*
X209073628Y-186385771D02*
X209073628Y-184885771D01*
X209073628Y-186314343D02*
X208930771Y-186385771D01*
X208645057Y-186385771D01*
X208502199Y-186314343D01*
X208430771Y-186242914D01*
X208359342Y-186100057D01*
X208359342Y-185671486D01*
X208430771Y-185528629D01*
X208502199Y-185457200D01*
X208645057Y-185385771D01*
X208930771Y-185385771D01*
X209073628Y-185457200D01*
X209430771Y-186528629D02*
X210573628Y-186528629D01*
X210930771Y-185385771D02*
X210930771Y-186885771D01*
X210930771Y-185457200D02*
X211073628Y-185385771D01*
X211359342Y-185385771D01*
X211502199Y-185457200D01*
X211573628Y-185528629D01*
X211645057Y-185671486D01*
X211645057Y-186100057D01*
X211573628Y-186242914D01*
X211502199Y-186314343D01*
X211359342Y-186385771D01*
X211073628Y-186385771D01*
X210930771Y-186314343D01*
X212930771Y-186314343D02*
X212787914Y-186385771D01*
X212502200Y-186385771D01*
X212359342Y-186314343D01*
X212287914Y-186242914D01*
X212216485Y-186100057D01*
X212216485Y-185671486D01*
X212287914Y-185528629D01*
X212359342Y-185457200D01*
X212502200Y-185385771D01*
X212787914Y-185385771D01*
X212930771Y-185457200D01*
X213573628Y-186385771D02*
X213573628Y-184885771D01*
X213573628Y-185457200D02*
X213716485Y-185385771D01*
X214002199Y-185385771D01*
X214145056Y-185457200D01*
X214216485Y-185528629D01*
X214287914Y-185671486D01*
X214287914Y-186100057D01*
X214216485Y-186242914D01*
X214145056Y-186314343D01*
X214002199Y-186385771D01*
X213716485Y-186385771D01*
X213573628Y-186314343D01*
D10*
D11*
X177002200Y-181507200D02*
X285002200Y-181507200D01*
D10*
D11*
X178287914Y-183614343D02*
X178502200Y-183685771D01*
X178859343Y-183685771D01*
X179002200Y-183614343D01*
X179073629Y-183542914D01*
X179145057Y-183400057D01*
X179145057Y-183257200D01*
X179073629Y-183114343D01*
X179002200Y-183042914D01*
X178859343Y-182971486D01*
X178573629Y-182900057D01*
X178430771Y-182828629D01*
X178359343Y-182757200D01*
X178287914Y-182614343D01*
X178287914Y-182471486D01*
X178359343Y-182328629D01*
X178430771Y-182257200D01*
X178573629Y-182185771D01*
X178930771Y-182185771D01*
X179145057Y-182257200D01*
X179787914Y-183685771D02*
X179787914Y-182185771D01*
X180430771Y-183685771D02*
X180430771Y-182900057D01*
X180359342Y-182757200D01*
X180216485Y-182685771D01*
X180002200Y-182685771D01*
X179859342Y-182757200D01*
X179787914Y-182828629D01*
X181716485Y-183614343D02*
X181573628Y-183685771D01*
X181287914Y-183685771D01*
X181145057Y-183614343D01*
X181073628Y-183471486D01*
X181073628Y-182900057D01*
X181145057Y-182757200D01*
X181287914Y-182685771D01*
X181573628Y-182685771D01*
X181716485Y-182757200D01*
X181787914Y-182900057D01*
X181787914Y-183042914D01*
X181073628Y-183185771D01*
X183002199Y-183614343D02*
X182859342Y-183685771D01*
X182573628Y-183685771D01*
X182430771Y-183614343D01*
X182359342Y-183471486D01*
X182359342Y-182900057D01*
X182430771Y-182757200D01*
X182573628Y-182685771D01*
X182859342Y-182685771D01*
X183002199Y-182757200D01*
X183073628Y-182900057D01*
X183073628Y-183042914D01*
X182359342Y-183185771D01*
X183502199Y-182685771D02*
X184073628Y-182685771D01*
X183716485Y-182185771D02*
X183716485Y-183471486D01*
X183787913Y-183614343D01*
X183930771Y-183685771D01*
X184073628Y-183685771D01*
X184573628Y-183542914D02*
X184645056Y-183614343D01*
X184573628Y-183685771D01*
X184502199Y-183614343D01*
X184573628Y-183542914D01*
X184573628Y-183685771D01*
X184573628Y-182757200D02*
X184645056Y-182828629D01*
X184573628Y-182900057D01*
X184502199Y-182828629D01*
X184573628Y-182757200D01*
X184573628Y-182900057D01*
D10*
D11*
X197002200Y-191507200D02*
X197002200Y-194507200D01*
D10*
D11*
X261002200Y-191507200D02*
X261002200Y-198007200D01*
D12*
X155160000Y-159550000D02*
X155160000Y-140550000D01*
X155160000Y-140550000D02*
X136160000Y-140550000D01*
X136160000Y-140550000D02*
X136160000Y-159550000D01*
X136160000Y-159550000D02*
X155160000Y-159550000D01*
D14*
X142840000Y-135850000D02*
X142840000Y-138470000D01*
X142840000Y-138470000D02*
X149260000Y-138470000D01*
X149260000Y-138470000D02*
X149260000Y-135850000D01*
X149260000Y-135850000D02*
X142840000Y-135850000D01*
X141950000Y-137160000D02*
X142840000Y-137160000D01*
X150150000Y-137160000D02*
X149260000Y-137160000D01*
X103730000Y-148590000D02*
G75*
G03X103730000Y-148590000I-860000J0D01*
G01*
X102870000Y-147730000D02*
X102870000Y-147690000D01*
D12*
X101330000Y-158940000D02*
X101330000Y-150940000D01*
X101330000Y-150940000D02*
X104330000Y-150940000D01*
X104330000Y-150940000D02*
X104330000Y-158940000D01*
X104330000Y-158940000D02*
X101330000Y-158940000D01*
X153130000Y-116840000D02*
G75*
G03X153130000Y-116840000I-2000000J0D01*
G01*
X154130000Y-119840000D02*
X154130000Y-113840000D01*
X154130000Y-113840000D02*
X148130000Y-113840000D01*
X148130000Y-113840000D02*
X148130000Y-119840000D01*
X148130000Y-119840000D02*
X154130000Y-119840000D01*
X154590000Y-106680000D02*
G75*
G03X154590000Y-106680000I-6000000J0D01*
G01*
D10*
X138160000Y-116220000D02*
X100160000Y-116220000D01*
X100160000Y-116220000D02*
X100160000Y-100220000D01*
X138160000Y-100220000D02*
X100160000Y-100220000D01*
X138160000Y-116220000D02*
X138160000Y-100220000D01*
D14*
X153260000Y-123190000D02*
G75*
G03X153260000Y-123190000I-860000J0D01*
G01*
X152400000Y-124050000D02*
X152400000Y-124090000D01*
X153260000Y-130810000D02*
G75*
G03X153260000Y-130810000I-860000J0D01*
G01*
X152400000Y-131670000D02*
X152400000Y-131710000D01*
X115530000Y-153070000D02*
X118150000Y-153070000D01*
X118150000Y-153070000D02*
X118150000Y-146650000D01*
X118150000Y-146650000D02*
X115530000Y-146650000D01*
X115530000Y-146650000D02*
X115530000Y-153070000D01*
X116840000Y-153960000D02*
X116840000Y-153070000D01*
X116840000Y-145760000D02*
X116840000Y-146650000D01*
X125770000Y-146650000D02*
X123150000Y-146650000D01*
X123150000Y-146650000D02*
X123150000Y-153070000D01*
X123150000Y-153070000D02*
X125770000Y-153070000D01*
X125770000Y-153070000D02*
X125770000Y-146650000D01*
X124460000Y-145760000D02*
X124460000Y-146650000D01*
X124460000Y-153960000D02*
X124460000Y-153070000D01*
X129500000Y-153070000D02*
X132120000Y-153070000D01*
X132120000Y-153070000D02*
X132120000Y-146650000D01*
X132120000Y-146650000D02*
X129500000Y-146650000D01*
X129500000Y-146650000D02*
X129500000Y-153070000D01*
X130810000Y-153960000D02*
X130810000Y-153070000D01*
X130810000Y-145760000D02*
X130810000Y-146650000D01*
X109180000Y-153070000D02*
X111800000Y-153070000D01*
X111800000Y-153070000D02*
X111800000Y-146650000D01*
X111800000Y-146650000D02*
X109180000Y-146650000D01*
X109180000Y-146650000D02*
X109180000Y-153070000D01*
X110490000Y-153960000D02*
X110490000Y-153070000D01*
X110490000Y-145760000D02*
X110490000Y-146650000D01*
X142280000Y-104740000D02*
X139660000Y-104740000D01*
X139660000Y-104740000D02*
X139660000Y-111160000D01*
X139660000Y-111160000D02*
X142280000Y-111160000D01*
X142280000Y-111160000D02*
X142280000Y-104740000D01*
X140970000Y-103850000D02*
X140970000Y-104740000D01*
X140970000Y-112050000D02*
X140970000Y-111160000D01*
X148630000Y-123790000D02*
X146010000Y-123790000D01*
X146010000Y-123790000D02*
X146010000Y-130210000D01*
X146010000Y-130210000D02*
X148630000Y-130210000D01*
X148630000Y-130210000D02*
X148630000Y-123790000D01*
X147320000Y-122900000D02*
X147320000Y-123790000D01*
X147320000Y-131100000D02*
X147320000Y-130210000D01*
D15*
X100330000Y-119380000D02*
X143510000Y-119380000D01*
X143510000Y-119380000D02*
X143510000Y-132080000D01*
X143510000Y-132080000D02*
X100330000Y-132080000D01*
X100330000Y-132080000D02*
X100330000Y-119380000D01*
X100330000Y-127000000D02*
X101600000Y-127000000D01*
X101600000Y-127000000D02*
X101600000Y-124460000D01*
X101600000Y-124460000D02*
X100330000Y-124460000D01*
D10*
X137872000Y-148550000D02*
G75*
G03X137872000Y-148550000I-712000J0D01*
G01*
X137872000Y-151050000D02*
G75*
G03X137872000Y-151050000I-712000J0D01*
G01*
X137872000Y-153550000D02*
G75*
G03X137872000Y-153550000I-712000J0D01*
G01*
X103582000Y-157480000D02*
G75*
G03X103582000Y-157480000I-712000J0D01*
G01*
X103582000Y-154940000D02*
G75*
G03X103582000Y-154940000I-712000J0D01*
G01*
X103582000Y-152400000D02*
G75*
G03X103582000Y-152400000I-712000J0D01*
G01*
X155030000Y-119090000D02*
G75*
G03X155030000Y-119090000I-650000J0D01*
G01*
X148530000Y-119090000D02*
G75*
G03X148530000Y-119090000I-650000J0D01*
G01*
X148530000Y-114590000D02*
G75*
G03X148530000Y-114590000I-650000J0D01*
G01*
X155030000Y-114590000D02*
G75*
G03X155030000Y-114590000I-650000J0D01*
G01*
X153302000Y-106680000D02*
G75*
G03X153302000Y-106680000I-712000J0D01*
G01*
X145302000Y-106680000D02*
G75*
G03X145302000Y-106680000I-712000J0D01*
G01*
X137860000Y-111720000D02*
G75*
G03X137860000Y-111720000I-700000J0D01*
G01*
X137860000Y-109220000D02*
G75*
G03X137860000Y-109220000I-700000J0D01*
G01*
X137860000Y-106720000D02*
G75*
G03X137860000Y-106720000I-700000J0D01*
G01*
X137860000Y-104220000D02*
G75*
G03X137860000Y-104220000I-700000J0D01*
G01*
X105942600Y-132994400D02*
X105942600Y-133705600D01*
X107417400Y-132994400D02*
X107417400Y-133705600D01*
X105942600Y-133705600D02*
G75*
G03X107417400Y-133705600I737400J0D01*
G01*
X107417400Y-132994400D02*
G75*
G03X105942600Y-132994400I-737400J0D01*
G01*
X108482600Y-132994400D02*
X108482600Y-133705600D01*
X109957400Y-132994400D02*
X109957400Y-133705600D01*
X108482600Y-133705600D02*
G75*
G03X109957400Y-133705600I737400J0D01*
G01*
X109957400Y-132994400D02*
G75*
G03X108482600Y-132994400I-737400J0D01*
G01*
X111022600Y-132994400D02*
X111022600Y-133705600D01*
X112497400Y-132994400D02*
X112497400Y-133705600D01*
X111022600Y-133705600D02*
G75*
G03X112497400Y-133705600I737400J0D01*
G01*
X112497400Y-132994400D02*
G75*
G03X111022600Y-132994400I-737400J0D01*
G01*
X113562600Y-132994400D02*
X113562600Y-133705600D01*
X115037400Y-132994400D02*
X115037400Y-133705600D01*
X113562600Y-133705600D02*
G75*
G03X115037400Y-133705600I737400J0D01*
G01*
X115037400Y-132994400D02*
G75*
G03X113562600Y-132994400I-737400J0D01*
G01*
X116102600Y-132994400D02*
X116102600Y-133705600D01*
X117577400Y-132994400D02*
X117577400Y-133705600D01*
X116102600Y-133705600D02*
G75*
G03X117577400Y-133705600I737400J0D01*
G01*
X117577400Y-132994400D02*
G75*
G03X116102600Y-132994400I-737400J0D01*
G01*
X118642600Y-132994400D02*
X118642600Y-133705600D01*
X120117400Y-132994400D02*
X120117400Y-133705600D01*
X118642600Y-133705600D02*
G75*
G03X120117400Y-133705600I737400J0D01*
G01*
X120117400Y-132994400D02*
G75*
G03X118642600Y-132994400I-737400J0D01*
G01*
X121182600Y-132994400D02*
X121182600Y-133705600D01*
X122657400Y-132994400D02*
X122657400Y-133705600D01*
X121182600Y-133705600D02*
G75*
G03X122657400Y-133705600I737400J0D01*
G01*
X122657400Y-132994400D02*
G75*
G03X121182600Y-132994400I-737400J0D01*
G01*
X123722600Y-132994400D02*
X123722600Y-133705600D01*
X125197400Y-132994400D02*
X125197400Y-133705600D01*
X123722600Y-133705600D02*
G75*
G03X125197400Y-133705600I737400J0D01*
G01*
X125197400Y-132994400D02*
G75*
G03X123722600Y-132994400I-737400J0D01*
G01*
X126262600Y-132994400D02*
X126262600Y-133705600D01*
X127737400Y-132994400D02*
X127737400Y-133705600D01*
X126262600Y-133705600D02*
G75*
G03X127737400Y-133705600I737400J0D01*
G01*
X127737400Y-132994400D02*
G75*
G03X126262600Y-132994400I-737400J0D01*
G01*
X128802600Y-132994400D02*
X128802600Y-133705600D01*
X130277400Y-132994400D02*
X130277400Y-133705600D01*
X128802600Y-133705600D02*
G75*
G03X130277400Y-133705600I737400J0D01*
G01*
X130277400Y-132994400D02*
G75*
G03X128802600Y-132994400I-737400J0D01*
G01*
X131342600Y-132994400D02*
X131342600Y-133705600D01*
X132817400Y-132994400D02*
X132817400Y-133705600D01*
X131342600Y-133705600D02*
G75*
G03X132817400Y-133705600I737400J0D01*
G01*
X132817400Y-132994400D02*
G75*
G03X131342600Y-132994400I-737400J0D01*
G01*
X133882600Y-132994400D02*
X133882600Y-133705600D01*
X135357400Y-132994400D02*
X135357400Y-133705600D01*
X133882600Y-133705600D02*
G75*
G03X135357400Y-133705600I737400J0D01*
G01*
X135357400Y-132994400D02*
G75*
G03X133882600Y-132994400I-737400J0D01*
G01*
X136422600Y-132994400D02*
X136422600Y-133705600D01*
X137897400Y-132994400D02*
X137897400Y-133705600D01*
X136422600Y-133705600D02*
G75*
G03X137897400Y-133705600I737400J0D01*
G01*
X137897400Y-132994400D02*
G75*
G03X136422600Y-132994400I-737400J0D01*
G01*
X138962600Y-132994400D02*
X138962600Y-133705600D01*
X140437400Y-132994400D02*
X140437400Y-133705600D01*
X138962600Y-133705600D02*
G75*
G03X140437400Y-133705600I737400J0D01*
G01*
X140437400Y-132994400D02*
G75*
G03X138962600Y-132994400I-737400J0D01*
G01*
X138962600Y-117754400D02*
X138962600Y-118465600D01*
X140437400Y-117754400D02*
X140437400Y-118465600D01*
X138962600Y-118465600D02*
G75*
G03X140437400Y-118465600I737400J0D01*
G01*
X140437400Y-117754400D02*
G75*
G03X138962600Y-117754400I-737400J0D01*
G01*
X136422600Y-117754400D02*
X136422600Y-118465600D01*
X137897400Y-117754400D02*
X137897400Y-118465600D01*
X136422600Y-118465600D02*
G75*
G03X137897400Y-118465600I737400J0D01*
G01*
X137897400Y-117754400D02*
G75*
G03X136422600Y-117754400I-737400J0D01*
G01*
X133882600Y-117754400D02*
X133882600Y-118465600D01*
X135357400Y-117754400D02*
X135357400Y-118465600D01*
X133882600Y-118465600D02*
G75*
G03X135357400Y-118465600I737400J0D01*
G01*
X135357400Y-117754400D02*
G75*
G03X133882600Y-117754400I-737400J0D01*
G01*
X131342600Y-117754400D02*
X131342600Y-118465600D01*
X132817400Y-117754400D02*
X132817400Y-118465600D01*
X131342600Y-118465600D02*
G75*
G03X132817400Y-118465600I737400J0D01*
G01*
X132817400Y-117754400D02*
G75*
G03X131342600Y-117754400I-737400J0D01*
G01*
X128802600Y-117754400D02*
X128802600Y-118465600D01*
X130277400Y-117754400D02*
X130277400Y-118465600D01*
X128802600Y-118465600D02*
G75*
G03X130277400Y-118465600I737400J0D01*
G01*
X130277400Y-117754400D02*
G75*
G03X128802600Y-117754400I-737400J0D01*
G01*
X126262600Y-117754400D02*
X126262600Y-118465600D01*
X127737400Y-117754400D02*
X127737400Y-118465600D01*
X126262600Y-118465600D02*
G75*
G03X127737400Y-118465600I737400J0D01*
G01*
X127737400Y-117754400D02*
G75*
G03X126262600Y-117754400I-737400J0D01*
G01*
X123722600Y-117754400D02*
X123722600Y-118465600D01*
X125197400Y-117754400D02*
X125197400Y-118465600D01*
X123722600Y-118465600D02*
G75*
G03X125197400Y-118465600I737400J0D01*
G01*
X125197400Y-117754400D02*
G75*
G03X123722600Y-117754400I-737400J0D01*
G01*
X121182600Y-117754400D02*
X121182600Y-118465600D01*
X122657400Y-117754400D02*
X122657400Y-118465600D01*
X121182600Y-118465600D02*
G75*
G03X122657400Y-118465600I737400J0D01*
G01*
X122657400Y-117754400D02*
G75*
G03X121182600Y-117754400I-737400J0D01*
G01*
X118642600Y-117754400D02*
X118642600Y-118465600D01*
X120117400Y-117754400D02*
X120117400Y-118465600D01*
X118642600Y-118465600D02*
G75*
G03X120117400Y-118465600I737400J0D01*
G01*
X120117400Y-117754400D02*
G75*
G03X118642600Y-117754400I-737400J0D01*
G01*
X116102600Y-117754400D02*
X116102600Y-118465600D01*
X117577400Y-117754400D02*
X117577400Y-118465600D01*
X116102600Y-118465600D02*
G75*
G03X117577400Y-118465600I737400J0D01*
G01*
X117577400Y-117754400D02*
G75*
G03X116102600Y-117754400I-737400J0D01*
G01*
X113562600Y-117754400D02*
X113562600Y-118465600D01*
X115037400Y-117754400D02*
X115037400Y-118465600D01*
X113562600Y-118465600D02*
G75*
G03X115037400Y-118465600I737400J0D01*
G01*
X115037400Y-117754400D02*
G75*
G03X113562600Y-117754400I-737400J0D01*
G01*
X111022600Y-117754400D02*
X111022600Y-118465600D01*
X112497400Y-117754400D02*
X112497400Y-118465600D01*
X111022600Y-118465600D02*
G75*
G03X112497400Y-118465600I737400J0D01*
G01*
X112497400Y-117754400D02*
G75*
G03X111022600Y-117754400I-737400J0D01*
G01*
X108482600Y-117754400D02*
X108482600Y-118465600D01*
X109957400Y-117754400D02*
X109957400Y-118465600D01*
X108482600Y-118465600D02*
G75*
G03X109957400Y-118465600I737400J0D01*
G01*
X109957400Y-117754400D02*
G75*
G03X108482600Y-117754400I-737400J0D01*
G01*
X105942600Y-117754400D02*
X105942600Y-118465600D01*
X107417400Y-117754400D02*
X107417400Y-118465600D01*
X105942600Y-118465600D02*
G75*
G03X107417400Y-118465600I737400J0D01*
G01*
X107417400Y-117754400D02*
G75*
G03X105942600Y-117754400I-737400J0D01*
G01*
X103402600Y-117754400D02*
X103402600Y-118465600D01*
X104877400Y-117754400D02*
X104877400Y-118465600D01*
X103402600Y-118465600D02*
G75*
G03X104877400Y-118465600I737400J0D01*
G01*
X104877400Y-117754400D02*
G75*
G03X103402600Y-117754400I-737400J0D01*
G01*
D11*
X136826667Y-155662381D02*
X136826667Y-156376667D01*
X136779047Y-156519524D01*
X136683809Y-156614762D01*
X136540952Y-156662381D01*
X136445714Y-156662381D01*
X137207619Y-155662381D02*
X137826667Y-155662381D01*
X137493333Y-156043333D01*
X137636191Y-156043333D01*
X137731429Y-156090952D01*
X137779048Y-156138571D01*
X137826667Y-156233810D01*
X137826667Y-156471905D01*
X137779048Y-156567143D01*
X137731429Y-156614762D01*
X137636191Y-156662381D01*
X137350476Y-156662381D01*
X137255238Y-156614762D01*
X137207619Y-156567143D01*
X145311905Y-137612381D02*
X145311905Y-136612381D01*
X145550000Y-136612381D01*
X145692858Y-136660000D01*
X145788096Y-136755238D01*
X145835715Y-136850476D01*
X145883334Y-137040952D01*
X145883334Y-137183810D01*
X145835715Y-137374286D01*
X145788096Y-137469524D01*
X145692858Y-137564762D01*
X145550000Y-137612381D01*
X145311905Y-137612381D01*
X146264286Y-136707619D02*
X146311905Y-136660000D01*
X146407143Y-136612381D01*
X146645239Y-136612381D01*
X146740477Y-136660000D01*
X146788096Y-136707619D01*
X146835715Y-136802857D01*
X146835715Y-136898095D01*
X146788096Y-137040952D01*
X146216667Y-137612381D01*
X146835715Y-137612381D01*
X101462381Y-148378095D02*
X100462381Y-148378095D01*
X100462381Y-148140000D01*
X100510000Y-147997142D01*
X100605238Y-147901904D01*
X100700476Y-147854285D01*
X100890952Y-147806666D01*
X101033810Y-147806666D01*
X101224286Y-147854285D01*
X101319524Y-147901904D01*
X101414762Y-147997142D01*
X101462381Y-148140000D01*
X101462381Y-148378095D01*
X101462381Y-146854285D02*
X101462381Y-147425714D01*
X101462381Y-147140000D02*
X100462381Y-147140000D01*
X100605238Y-147235238D01*
X100700476Y-147330476D01*
X100748095Y-147425714D01*
X105862381Y-155916190D02*
X104862381Y-155916190D01*
X105767143Y-154868571D02*
X105814762Y-154916190D01*
X105862381Y-155059047D01*
X105862381Y-155154285D01*
X105814762Y-155297143D01*
X105719524Y-155392381D01*
X105624286Y-155440000D01*
X105433810Y-155487619D01*
X105290952Y-155487619D01*
X105100476Y-155440000D01*
X105005238Y-155392381D01*
X104910000Y-155297143D01*
X104862381Y-155154285D01*
X104862381Y-155059047D01*
X104910000Y-154916190D01*
X104957619Y-154868571D01*
X105862381Y-153916190D02*
X105862381Y-154487619D01*
X105862381Y-154201905D02*
X104862381Y-154201905D01*
X105005238Y-154297143D01*
X105100476Y-154392381D01*
X105148095Y-154487619D01*
X150796667Y-120292381D02*
X150796667Y-121006667D01*
X150749047Y-121149524D01*
X150653809Y-121244762D01*
X150510952Y-121292381D01*
X150415714Y-121292381D01*
X151796667Y-121292381D02*
X151225238Y-121292381D01*
X151510952Y-121292381D02*
X151510952Y-120292381D01*
X151415714Y-120435238D01*
X151320476Y-120530476D01*
X151225238Y-120578095D01*
X148510667Y-108418381D02*
X148510667Y-109132667D01*
X148463047Y-109275524D01*
X148367809Y-109370762D01*
X148224952Y-109418381D01*
X148129714Y-109418381D01*
X148939238Y-108513619D02*
X148986857Y-108466000D01*
X149082095Y-108418381D01*
X149320191Y-108418381D01*
X149415429Y-108466000D01*
X149463048Y-108513619D01*
X149510667Y-108608857D01*
X149510667Y-108704095D01*
X149463048Y-108846952D01*
X148891619Y-109418381D01*
X149510667Y-109418381D01*
X131826667Y-106672381D02*
X131826667Y-107386667D01*
X131779047Y-107529524D01*
X131683809Y-107624762D01*
X131540952Y-107672381D01*
X131445714Y-107672381D01*
X132731429Y-107005714D02*
X132731429Y-107672381D01*
X132493333Y-106624762D02*
X132255238Y-107339048D01*
X132874286Y-107339048D01*
X154712381Y-124878095D02*
X153712381Y-124878095D01*
X153712381Y-124497142D01*
X153760000Y-124401904D01*
X153807619Y-124354285D01*
X153902857Y-124306666D01*
X154045714Y-124306666D01*
X154140952Y-124354285D01*
X154188571Y-124401904D01*
X154236190Y-124497142D01*
X154236190Y-124878095D01*
X154712381Y-123354285D02*
X154712381Y-123925714D01*
X154712381Y-123640000D02*
X153712381Y-123640000D01*
X153855238Y-123735238D01*
X153950476Y-123830476D01*
X153998095Y-123925714D01*
X154712381Y-132498095D02*
X153712381Y-132498095D01*
X153712381Y-132117142D01*
X153760000Y-132021904D01*
X153807619Y-131974285D01*
X153902857Y-131926666D01*
X154045714Y-131926666D01*
X154140952Y-131974285D01*
X154188571Y-132021904D01*
X154236190Y-132117142D01*
X154236190Y-132498095D01*
X153807619Y-131545714D02*
X153760000Y-131498095D01*
X153712381Y-131402857D01*
X153712381Y-131164761D01*
X153760000Y-131069523D01*
X153807619Y-131021904D01*
X153902857Y-130974285D01*
X153998095Y-130974285D01*
X154140952Y-131021904D01*
X154712381Y-131593333D01*
X154712381Y-130974285D01*
X117292381Y-150026666D02*
X116816190Y-150360000D01*
X117292381Y-150598095D02*
X116292381Y-150598095D01*
X116292381Y-150217142D01*
X116340000Y-150121904D01*
X116387619Y-150074285D01*
X116482857Y-150026666D01*
X116625714Y-150026666D01*
X116720952Y-150074285D01*
X116768571Y-150121904D01*
X116816190Y-150217142D01*
X116816190Y-150598095D01*
X117292381Y-149074285D02*
X117292381Y-149645714D01*
X117292381Y-149360000D02*
X116292381Y-149360000D01*
X116435238Y-149455238D01*
X116530476Y-149550476D01*
X116578095Y-149645714D01*
X124912381Y-150026666D02*
X124436190Y-150360000D01*
X124912381Y-150598095D02*
X123912381Y-150598095D01*
X123912381Y-150217142D01*
X123960000Y-150121904D01*
X124007619Y-150074285D01*
X124102857Y-150026666D01*
X124245714Y-150026666D01*
X124340952Y-150074285D01*
X124388571Y-150121904D01*
X124436190Y-150217142D01*
X124436190Y-150598095D01*
X124007619Y-149645714D02*
X123960000Y-149598095D01*
X123912381Y-149502857D01*
X123912381Y-149264761D01*
X123960000Y-149169523D01*
X124007619Y-149121904D01*
X124102857Y-149074285D01*
X124198095Y-149074285D01*
X124340952Y-149121904D01*
X124912381Y-149693333D01*
X124912381Y-149074285D01*
X131262381Y-150026666D02*
X130786190Y-150360000D01*
X131262381Y-150598095D02*
X130262381Y-150598095D01*
X130262381Y-150217142D01*
X130310000Y-150121904D01*
X130357619Y-150074285D01*
X130452857Y-150026666D01*
X130595714Y-150026666D01*
X130690952Y-150074285D01*
X130738571Y-150121904D01*
X130786190Y-150217142D01*
X130786190Y-150598095D01*
X130262381Y-149693333D02*
X130262381Y-149074285D01*
X130643333Y-149407619D01*
X130643333Y-149264761D01*
X130690952Y-149169523D01*
X130738571Y-149121904D01*
X130833810Y-149074285D01*
X131071905Y-149074285D01*
X131167143Y-149121904D01*
X131214762Y-149169523D01*
X131262381Y-149264761D01*
X131262381Y-149550476D01*
X131214762Y-149645714D01*
X131167143Y-149693333D01*
X110942381Y-150026666D02*
X110466190Y-150360000D01*
X110942381Y-150598095D02*
X109942381Y-150598095D01*
X109942381Y-150217142D01*
X109990000Y-150121904D01*
X110037619Y-150074285D01*
X110132857Y-150026666D01*
X110275714Y-150026666D01*
X110370952Y-150074285D01*
X110418571Y-150121904D01*
X110466190Y-150217142D01*
X110466190Y-150598095D01*
X110275714Y-149169523D02*
X110942381Y-149169523D01*
X109894762Y-149407619D02*
X110609048Y-149645714D01*
X110609048Y-149026666D01*
X141422381Y-108116666D02*
X140946190Y-108450000D01*
X141422381Y-108688095D02*
X140422381Y-108688095D01*
X140422381Y-108307142D01*
X140470000Y-108211904D01*
X140517619Y-108164285D01*
X140612857Y-108116666D01*
X140755714Y-108116666D01*
X140850952Y-108164285D01*
X140898571Y-108211904D01*
X140946190Y-108307142D01*
X140946190Y-108688095D01*
X140422381Y-107211904D02*
X140422381Y-107688095D01*
X140898571Y-107735714D01*
X140850952Y-107688095D01*
X140803333Y-107592857D01*
X140803333Y-107354761D01*
X140850952Y-107259523D01*
X140898571Y-107211904D01*
X140993810Y-107164285D01*
X141231905Y-107164285D01*
X141327143Y-107211904D01*
X141374762Y-107259523D01*
X141422381Y-107354761D01*
X141422381Y-107592857D01*
X141374762Y-107688095D01*
X141327143Y-107735714D01*
X147772381Y-127166666D02*
X147296190Y-127500000D01*
X147772381Y-127738095D02*
X146772381Y-127738095D01*
X146772381Y-127357142D01*
X146820000Y-127261904D01*
X146867619Y-127214285D01*
X146962857Y-127166666D01*
X147105714Y-127166666D01*
X147200952Y-127214285D01*
X147248571Y-127261904D01*
X147296190Y-127357142D01*
X147296190Y-127738095D01*
X146772381Y-126309523D02*
X146772381Y-126500000D01*
X146820000Y-126595238D01*
X146867619Y-126642857D01*
X147010476Y-126738095D01*
X147200952Y-126785714D01*
X147581905Y-126785714D01*
X147677143Y-126738095D01*
X147724762Y-126690476D01*
X147772381Y-126595238D01*
X147772381Y-126404761D01*
X147724762Y-126309523D01*
X147677143Y-126261904D01*
X147581905Y-126214285D01*
X147343810Y-126214285D01*
X147248571Y-126261904D01*
X147200952Y-126309523D01*
X147153333Y-126404761D01*
X147153333Y-126595238D01*
X147200952Y-126690476D01*
X147248571Y-126738095D01*
X147343810Y-126785714D01*
D16*
X107865333Y-120946333D02*
X107865333Y-122385667D01*
X107950000Y-122555000D01*
X108034667Y-122639667D01*
X108204000Y-122724333D01*
X108542667Y-122724333D01*
X108712000Y-122639667D01*
X108796667Y-122555000D01*
X108881333Y-122385667D01*
X108881333Y-120946333D01*
X110659334Y-122724333D02*
X109643334Y-122724333D01*
X110151334Y-122724333D02*
X110151334Y-120946333D01*
X109982000Y-121200333D01*
X109812667Y-121369667D01*
X109643334Y-121454333D01*
X114850331Y-129709333D02*
X114850331Y-128778000D01*
X114765665Y-128608667D01*
X114596331Y-128524000D01*
X114257665Y-128524000D01*
X114088331Y-128608667D01*
X114850331Y-129624667D02*
X114680998Y-129709333D01*
X114257665Y-129709333D01*
X114088331Y-129624667D01*
X114003665Y-129455333D01*
X114003665Y-129286000D01*
X114088331Y-129116667D01*
X114257665Y-129032000D01*
X114680998Y-129032000D01*
X114850331Y-128947333D01*
X115696998Y-129709333D02*
X115696998Y-128524000D01*
X115696998Y-128862667D02*
X115781665Y-128693333D01*
X115866332Y-128608667D01*
X116035665Y-128524000D01*
X116204998Y-128524000D01*
X117559665Y-129709333D02*
X117559665Y-127931333D01*
X117559665Y-129624667D02*
X117390332Y-129709333D01*
X117051665Y-129709333D01*
X116882332Y-129624667D01*
X116797665Y-129540000D01*
X116712999Y-129370667D01*
X116712999Y-128862667D01*
X116797665Y-128693333D01*
X116882332Y-128608667D01*
X117051665Y-128524000D01*
X117390332Y-128524000D01*
X117559665Y-128608667D01*
X119168332Y-128524000D02*
X119168332Y-129709333D01*
X118406332Y-128524000D02*
X118406332Y-129455333D01*
X118490999Y-129624667D01*
X118660332Y-129709333D01*
X118914332Y-129709333D01*
X119083666Y-129624667D01*
X119168332Y-129540000D01*
X120014999Y-129709333D02*
X120014999Y-128524000D01*
X120014999Y-127931333D02*
X119930333Y-128016000D01*
X120014999Y-128100667D01*
X120099666Y-128016000D01*
X120014999Y-127931333D01*
X120014999Y-128100667D01*
X120861666Y-128524000D02*
X120861666Y-129709333D01*
X120861666Y-128693333D02*
X120946333Y-128608667D01*
X121115666Y-128524000D01*
X121369666Y-128524000D01*
X121539000Y-128608667D01*
X121623666Y-128778000D01*
X121623666Y-129709333D01*
X122724333Y-129709333D02*
X122555000Y-129624667D01*
X122470333Y-129540000D01*
X122385667Y-129370667D01*
X122385667Y-128862667D01*
X122470333Y-128693333D01*
X122555000Y-128608667D01*
X122724333Y-128524000D01*
X122978333Y-128524000D01*
X123147667Y-128608667D01*
X123232333Y-128693333D01*
X123317000Y-128862667D01*
X123317000Y-129370667D01*
X123232333Y-129540000D01*
X123147667Y-129624667D01*
X122978333Y-129709333D01*
X122724333Y-129709333D01*
X123655667Y-129878667D02*
X125010334Y-129878667D01*
X125433667Y-128524000D02*
X125433667Y-129709333D01*
X125433667Y-128693333D02*
X125518334Y-128608667D01*
X125687667Y-128524000D01*
X125941667Y-128524000D01*
X126111001Y-128608667D01*
X126195667Y-128778000D01*
X126195667Y-129709333D01*
X127804334Y-129709333D02*
X127804334Y-128778000D01*
X127719668Y-128608667D01*
X127550334Y-128524000D01*
X127211668Y-128524000D01*
X127042334Y-128608667D01*
X127804334Y-129624667D02*
X127635001Y-129709333D01*
X127211668Y-129709333D01*
X127042334Y-129624667D01*
X126957668Y-129455333D01*
X126957668Y-129286000D01*
X127042334Y-129116667D01*
X127211668Y-129032000D01*
X127635001Y-129032000D01*
X127804334Y-128947333D01*
X128651001Y-128524000D02*
X128651001Y-129709333D01*
X128651001Y-128693333D02*
X128735668Y-128608667D01*
X128905001Y-128524000D01*
X129159001Y-128524000D01*
X129328335Y-128608667D01*
X129413001Y-128778000D01*
X129413001Y-129709333D01*
X130513668Y-129709333D02*
X130344335Y-129624667D01*
X130259668Y-129540000D01*
X130175002Y-129370667D01*
X130175002Y-128862667D01*
X130259668Y-128693333D01*
X130344335Y-128608667D01*
X130513668Y-128524000D01*
X130767668Y-128524000D01*
X130937002Y-128608667D01*
X131021668Y-128693333D01*
X131106335Y-128862667D01*
X131106335Y-129370667D01*
X131021668Y-129540000D01*
X130937002Y-129624667D01*
X130767668Y-129709333D01*
X130513668Y-129709333D01*
M02*
