%TF.GenerationSoftware,KiCad,Pcbnew,4.0.2-stable*%
%TF.CreationDate,2017-03-06T18:44:29+01:00*%
%TF.ProjectId,BrausteuerungV3,42726175737465756572756E6756332E,rev?*%
%TF.FileFunction,Legend,Top*%
%FSLAX46Y46*%
G04 Gerber Fmt 4.6, Leading zero omitted, Abs format (unit mm)*
G04 Created by KiCad (PCBNEW 4.0.2-stable) date 06.03.2017 18:44:29*
%MOMM*%
G01*
G04 APERTURE LIST*
%ADD10C,0.100000*%
%ADD11C,0.150000*%
%ADD12C,0.300000*%
%ADD13C,0.400000*%
%ADD14C,0.381000*%
%ADD15C,0.120000*%
%ADD16C,0.304800*%
G04 APERTURE END LIST*
D10*
D11*
X177002200Y-166007200D02*
X177002200Y-198007200D01*
X285002200Y-198007200D01*
X285002200Y-166007200D01*
X177002200Y-166007200D01*
D10*
D11*
X10000000Y-10000000D02*
X10000000Y-200007200D01*
X287002200Y-200007200D01*
X287002200Y-10000000D01*
X10000000Y-10000000D01*
D10*
D11*
X12000000Y-12000000D02*
X12000000Y-198007200D01*
X285002200Y-198007200D01*
X285002200Y-12000000D01*
X12000000Y-12000000D01*
D10*
D11*
X60000000Y-12000000D02*
X60000000Y-10000000D01*
D10*
D11*
X110000000Y-12000000D02*
X110000000Y-10000000D01*
D10*
D11*
X160000000Y-12000000D02*
X160000000Y-10000000D01*
D10*
D11*
X210000000Y-12000000D02*
X210000000Y-10000000D01*
D10*
D11*
X260000000Y-12000000D02*
X260000000Y-10000000D01*
D10*
D11*
X35990476Y-11588095D02*
X35247619Y-11588095D01*
X35619048Y-11588095D02*
X35619048Y-10288095D01*
X35495238Y-10473810D01*
X35371429Y-10597619D01*
X35247619Y-10659524D01*
D10*
D11*
X85247619Y-10411905D02*
X85309524Y-10350000D01*
X85433333Y-10288095D01*
X85742857Y-10288095D01*
X85866667Y-10350000D01*
X85928571Y-10411905D01*
X85990476Y-10535714D01*
X85990476Y-10659524D01*
X85928571Y-10845238D01*
X85185714Y-11588095D01*
X85990476Y-11588095D01*
D10*
D11*
X135185714Y-10288095D02*
X135990476Y-10288095D01*
X135557143Y-10783333D01*
X135742857Y-10783333D01*
X135866667Y-10845238D01*
X135928571Y-10907143D01*
X135990476Y-11030952D01*
X135990476Y-11340476D01*
X135928571Y-11464286D01*
X135866667Y-11526190D01*
X135742857Y-11588095D01*
X135371429Y-11588095D01*
X135247619Y-11526190D01*
X135185714Y-11464286D01*
D10*
D11*
X185866667Y-10721429D02*
X185866667Y-11588095D01*
X185557143Y-10226190D02*
X185247619Y-11154762D01*
X186052381Y-11154762D01*
D10*
D11*
X235928571Y-10288095D02*
X235309524Y-10288095D01*
X235247619Y-10907143D01*
X235309524Y-10845238D01*
X235433333Y-10783333D01*
X235742857Y-10783333D01*
X235866667Y-10845238D01*
X235928571Y-10907143D01*
X235990476Y-11030952D01*
X235990476Y-11340476D01*
X235928571Y-11464286D01*
X235866667Y-11526190D01*
X235742857Y-11588095D01*
X235433333Y-11588095D01*
X235309524Y-11526190D01*
X235247619Y-11464286D01*
D10*
D11*
X285866667Y-10288095D02*
X285619048Y-10288095D01*
X285495238Y-10350000D01*
X285433333Y-10411905D01*
X285309524Y-10597619D01*
X285247619Y-10845238D01*
X285247619Y-11340476D01*
X285309524Y-11464286D01*
X285371429Y-11526190D01*
X285495238Y-11588095D01*
X285742857Y-11588095D01*
X285866667Y-11526190D01*
X285928571Y-11464286D01*
X285990476Y-11340476D01*
X285990476Y-11030952D01*
X285928571Y-10907143D01*
X285866667Y-10845238D01*
X285742857Y-10783333D01*
X285495238Y-10783333D01*
X285371429Y-10845238D01*
X285309524Y-10907143D01*
X285247619Y-11030952D01*
D10*
D11*
X60000000Y-198007200D02*
X60000000Y-200007200D01*
D10*
D11*
X110000000Y-198007200D02*
X110000000Y-200007200D01*
D10*
D11*
X160000000Y-198007200D02*
X160000000Y-200007200D01*
D10*
D11*
X210000000Y-198007200D02*
X210000000Y-200007200D01*
D10*
D11*
X260000000Y-198007200D02*
X260000000Y-200007200D01*
D10*
D11*
X35990476Y-199595295D02*
X35247619Y-199595295D01*
X35619048Y-199595295D02*
X35619048Y-198295295D01*
X35495238Y-198481010D01*
X35371429Y-198604819D01*
X35247619Y-198666724D01*
D10*
D11*
X85247619Y-198419105D02*
X85309524Y-198357200D01*
X85433333Y-198295295D01*
X85742857Y-198295295D01*
X85866667Y-198357200D01*
X85928571Y-198419105D01*
X85990476Y-198542914D01*
X85990476Y-198666724D01*
X85928571Y-198852438D01*
X85185714Y-199595295D01*
X85990476Y-199595295D01*
D10*
D11*
X135185714Y-198295295D02*
X135990476Y-198295295D01*
X135557143Y-198790533D01*
X135742857Y-198790533D01*
X135866667Y-198852438D01*
X135928571Y-198914343D01*
X135990476Y-199038152D01*
X135990476Y-199347676D01*
X135928571Y-199471486D01*
X135866667Y-199533390D01*
X135742857Y-199595295D01*
X135371429Y-199595295D01*
X135247619Y-199533390D01*
X135185714Y-199471486D01*
D10*
D11*
X185866667Y-198728629D02*
X185866667Y-199595295D01*
X185557143Y-198233390D02*
X185247619Y-199161962D01*
X186052381Y-199161962D01*
D10*
D11*
X235928571Y-198295295D02*
X235309524Y-198295295D01*
X235247619Y-198914343D01*
X235309524Y-198852438D01*
X235433333Y-198790533D01*
X235742857Y-198790533D01*
X235866667Y-198852438D01*
X235928571Y-198914343D01*
X235990476Y-199038152D01*
X235990476Y-199347676D01*
X235928571Y-199471486D01*
X235866667Y-199533390D01*
X235742857Y-199595295D01*
X235433333Y-199595295D01*
X235309524Y-199533390D01*
X235247619Y-199471486D01*
D10*
D11*
X285866667Y-198295295D02*
X285619048Y-198295295D01*
X285495238Y-198357200D01*
X285433333Y-198419105D01*
X285309524Y-198604819D01*
X285247619Y-198852438D01*
X285247619Y-199347676D01*
X285309524Y-199471486D01*
X285371429Y-199533390D01*
X285495238Y-199595295D01*
X285742857Y-199595295D01*
X285866667Y-199533390D01*
X285928571Y-199471486D01*
X285990476Y-199347676D01*
X285990476Y-199038152D01*
X285928571Y-198914343D01*
X285866667Y-198852438D01*
X285742857Y-198790533D01*
X285495238Y-198790533D01*
X285371429Y-198852438D01*
X285309524Y-198914343D01*
X285247619Y-199038152D01*
D10*
D11*
X10000000Y-60000000D02*
X12000000Y-60000000D01*
D10*
D11*
X10000000Y-110000000D02*
X12000000Y-110000000D01*
D10*
D11*
X10000000Y-160000000D02*
X12000000Y-160000000D01*
D10*
D11*
X10690476Y-35216667D02*
X11309524Y-35216667D01*
X10566667Y-35588095D02*
X11000000Y-34288095D01*
X11433333Y-35588095D01*
D10*
D11*
X11092857Y-84907143D02*
X11278571Y-84969048D01*
X11340476Y-85030952D01*
X11402381Y-85154762D01*
X11402381Y-85340476D01*
X11340476Y-85464286D01*
X11278571Y-85526190D01*
X11154762Y-85588095D01*
X10659524Y-85588095D01*
X10659524Y-84288095D01*
X11092857Y-84288095D01*
X11216667Y-84350000D01*
X11278571Y-84411905D01*
X11340476Y-84535714D01*
X11340476Y-84659524D01*
X11278571Y-84783333D01*
X11216667Y-84845238D01*
X11092857Y-84907143D01*
X10659524Y-84907143D01*
D10*
D11*
X11402381Y-135464286D02*
X11340476Y-135526190D01*
X11154762Y-135588095D01*
X11030952Y-135588095D01*
X10845238Y-135526190D01*
X10721429Y-135402381D01*
X10659524Y-135278571D01*
X10597619Y-135030952D01*
X10597619Y-134845238D01*
X10659524Y-134597619D01*
X10721429Y-134473810D01*
X10845238Y-134350000D01*
X11030952Y-134288095D01*
X11154762Y-134288095D01*
X11340476Y-134350000D01*
X11402381Y-134411905D01*
D10*
D11*
X10659524Y-185588095D02*
X10659524Y-184288095D01*
X10969048Y-184288095D01*
X11154762Y-184350000D01*
X11278571Y-184473810D01*
X11340476Y-184597619D01*
X11402381Y-184845238D01*
X11402381Y-185030952D01*
X11340476Y-185278571D01*
X11278571Y-185402381D01*
X11154762Y-185526190D01*
X10969048Y-185588095D01*
X10659524Y-185588095D01*
D10*
D11*
X287002200Y-60000000D02*
X285002200Y-60000000D01*
D10*
D11*
X287002200Y-110000000D02*
X285002200Y-110000000D01*
D10*
D11*
X287002200Y-160000000D02*
X285002200Y-160000000D01*
D10*
D11*
X285692676Y-35216667D02*
X286311724Y-35216667D01*
X285568867Y-35588095D02*
X286002200Y-34288095D01*
X286435533Y-35588095D01*
D10*
D11*
X286095057Y-84907143D02*
X286280771Y-84969048D01*
X286342676Y-85030952D01*
X286404581Y-85154762D01*
X286404581Y-85340476D01*
X286342676Y-85464286D01*
X286280771Y-85526190D01*
X286156962Y-85588095D01*
X285661724Y-85588095D01*
X285661724Y-84288095D01*
X286095057Y-84288095D01*
X286218867Y-84350000D01*
X286280771Y-84411905D01*
X286342676Y-84535714D01*
X286342676Y-84659524D01*
X286280771Y-84783333D01*
X286218867Y-84845238D01*
X286095057Y-84907143D01*
X285661724Y-84907143D01*
D10*
D11*
X286404581Y-135464286D02*
X286342676Y-135526190D01*
X286156962Y-135588095D01*
X286033152Y-135588095D01*
X285847438Y-135526190D01*
X285723629Y-135402381D01*
X285661724Y-135278571D01*
X285599819Y-135030952D01*
X285599819Y-134845238D01*
X285661724Y-134597619D01*
X285723629Y-134473810D01*
X285847438Y-134350000D01*
X286033152Y-134288095D01*
X286156962Y-134288095D01*
X286342676Y-134350000D01*
X286404581Y-134411905D01*
D10*
D11*
X285661724Y-185588095D02*
X285661724Y-184288095D01*
X285971248Y-184288095D01*
X286156962Y-184350000D01*
X286280771Y-184473810D01*
X286342676Y-184597619D01*
X286404581Y-184845238D01*
X286404581Y-185030952D01*
X286342676Y-185278571D01*
X286280771Y-185402381D01*
X286156962Y-185526190D01*
X285971248Y-185588095D01*
X285661724Y-185588095D01*
D10*
D11*
X200359343Y-193785771D02*
X200359343Y-192285771D01*
X200716486Y-192285771D01*
X200930771Y-192357200D01*
X201073629Y-192500057D01*
X201145057Y-192642914D01*
X201216486Y-192928629D01*
X201216486Y-193142914D01*
X201145057Y-193428629D01*
X201073629Y-193571486D01*
X200930771Y-193714343D01*
X200716486Y-193785771D01*
X200359343Y-193785771D01*
X202502200Y-193785771D02*
X202502200Y-193000057D01*
X202430771Y-192857200D01*
X202287914Y-192785771D01*
X202002200Y-192785771D01*
X201859343Y-192857200D01*
X202502200Y-193714343D02*
X202359343Y-193785771D01*
X202002200Y-193785771D01*
X201859343Y-193714343D01*
X201787914Y-193571486D01*
X201787914Y-193428629D01*
X201859343Y-193285771D01*
X202002200Y-193214343D01*
X202359343Y-193214343D01*
X202502200Y-193142914D01*
X203002200Y-192785771D02*
X203573629Y-192785771D01*
X203216486Y-192285771D02*
X203216486Y-193571486D01*
X203287914Y-193714343D01*
X203430772Y-193785771D01*
X203573629Y-193785771D01*
X204645057Y-193714343D02*
X204502200Y-193785771D01*
X204216486Y-193785771D01*
X204073629Y-193714343D01*
X204002200Y-193571486D01*
X204002200Y-193000057D01*
X204073629Y-192857200D01*
X204216486Y-192785771D01*
X204502200Y-192785771D01*
X204645057Y-192857200D01*
X204716486Y-193000057D01*
X204716486Y-193142914D01*
X204002200Y-193285771D01*
X205359343Y-193642914D02*
X205430771Y-193714343D01*
X205359343Y-193785771D01*
X205287914Y-193714343D01*
X205359343Y-193642914D01*
X205359343Y-193785771D01*
X205359343Y-192857200D02*
X205430771Y-192928629D01*
X205359343Y-193000057D01*
X205287914Y-192928629D01*
X205359343Y-192857200D01*
X205359343Y-193000057D01*
D10*
D11*
X177002200Y-194507200D02*
X285002200Y-194507200D01*
D10*
D11*
X178359343Y-196585771D02*
X178359343Y-195085771D01*
X179216486Y-196585771D02*
X178573629Y-195728629D01*
X179216486Y-195085771D02*
X178359343Y-195942914D01*
X179859343Y-196585771D02*
X179859343Y-195585771D01*
X179859343Y-195085771D02*
X179787914Y-195157200D01*
X179859343Y-195228629D01*
X179930771Y-195157200D01*
X179859343Y-195085771D01*
X179859343Y-195228629D01*
X181430772Y-196442914D02*
X181359343Y-196514343D01*
X181145057Y-196585771D01*
X181002200Y-196585771D01*
X180787915Y-196514343D01*
X180645057Y-196371486D01*
X180573629Y-196228629D01*
X180502200Y-195942914D01*
X180502200Y-195728629D01*
X180573629Y-195442914D01*
X180645057Y-195300057D01*
X180787915Y-195157200D01*
X181002200Y-195085771D01*
X181145057Y-195085771D01*
X181359343Y-195157200D01*
X181430772Y-195228629D01*
X182716486Y-196585771D02*
X182716486Y-195800057D01*
X182645057Y-195657200D01*
X182502200Y-195585771D01*
X182216486Y-195585771D01*
X182073629Y-195657200D01*
X182716486Y-196514343D02*
X182573629Y-196585771D01*
X182216486Y-196585771D01*
X182073629Y-196514343D01*
X182002200Y-196371486D01*
X182002200Y-196228629D01*
X182073629Y-196085771D01*
X182216486Y-196014343D01*
X182573629Y-196014343D01*
X182716486Y-195942914D01*
X184073629Y-196585771D02*
X184073629Y-195085771D01*
X184073629Y-196514343D02*
X183930772Y-196585771D01*
X183645058Y-196585771D01*
X183502200Y-196514343D01*
X183430772Y-196442914D01*
X183359343Y-196300057D01*
X183359343Y-195871486D01*
X183430772Y-195728629D01*
X183502200Y-195657200D01*
X183645058Y-195585771D01*
X183930772Y-195585771D01*
X184073629Y-195657200D01*
X185930772Y-195800057D02*
X186430772Y-195800057D01*
X186645058Y-196585771D02*
X185930772Y-196585771D01*
X185930772Y-195085771D01*
X186645058Y-195085771D01*
X187287915Y-196442914D02*
X187359343Y-196514343D01*
X187287915Y-196585771D01*
X187216486Y-196514343D01*
X187287915Y-196442914D01*
X187287915Y-196585771D01*
X188002201Y-196585771D02*
X188002201Y-195085771D01*
X188359344Y-195085771D01*
X188573629Y-195157200D01*
X188716487Y-195300057D01*
X188787915Y-195442914D01*
X188859344Y-195728629D01*
X188859344Y-195942914D01*
X188787915Y-196228629D01*
X188716487Y-196371486D01*
X188573629Y-196514343D01*
X188359344Y-196585771D01*
X188002201Y-196585771D01*
X189502201Y-196442914D02*
X189573629Y-196514343D01*
X189502201Y-196585771D01*
X189430772Y-196514343D01*
X189502201Y-196442914D01*
X189502201Y-196585771D01*
X190145058Y-196157200D02*
X190859344Y-196157200D01*
X190002201Y-196585771D02*
X190502201Y-195085771D01*
X191002201Y-196585771D01*
X191502201Y-196442914D02*
X191573629Y-196514343D01*
X191502201Y-196585771D01*
X191430772Y-196514343D01*
X191502201Y-196442914D01*
X191502201Y-196585771D01*
X194502201Y-196585771D02*
X194502201Y-195085771D01*
X194645058Y-196014343D02*
X195073629Y-196585771D01*
X195073629Y-195585771D02*
X194502201Y-196157200D01*
X195716487Y-196585771D02*
X195716487Y-195585771D01*
X195716487Y-195085771D02*
X195645058Y-195157200D01*
X195716487Y-195228629D01*
X195787915Y-195157200D01*
X195716487Y-195085771D01*
X195716487Y-195228629D01*
X197073630Y-196514343D02*
X196930773Y-196585771D01*
X196645059Y-196585771D01*
X196502201Y-196514343D01*
X196430773Y-196442914D01*
X196359344Y-196300057D01*
X196359344Y-195871486D01*
X196430773Y-195728629D01*
X196502201Y-195657200D01*
X196645059Y-195585771D01*
X196930773Y-195585771D01*
X197073630Y-195657200D01*
X198359344Y-196585771D02*
X198359344Y-195800057D01*
X198287915Y-195657200D01*
X198145058Y-195585771D01*
X197859344Y-195585771D01*
X197716487Y-195657200D01*
X198359344Y-196514343D02*
X198216487Y-196585771D01*
X197859344Y-196585771D01*
X197716487Y-196514343D01*
X197645058Y-196371486D01*
X197645058Y-196228629D01*
X197716487Y-196085771D01*
X197859344Y-196014343D01*
X198216487Y-196014343D01*
X198359344Y-195942914D01*
X199716487Y-196585771D02*
X199716487Y-195085771D01*
X199716487Y-196514343D02*
X199573630Y-196585771D01*
X199287916Y-196585771D01*
X199145058Y-196514343D01*
X199073630Y-196442914D01*
X199002201Y-196300057D01*
X199002201Y-195871486D01*
X199073630Y-195728629D01*
X199145058Y-195657200D01*
X199287916Y-195585771D01*
X199573630Y-195585771D01*
X199716487Y-195657200D01*
X202216487Y-195585771D02*
X202216487Y-196585771D01*
X201859344Y-195014343D02*
X201502201Y-196085771D01*
X202430773Y-196085771D01*
X203002201Y-196442914D02*
X203073629Y-196514343D01*
X203002201Y-196585771D01*
X202930772Y-196514343D01*
X203002201Y-196442914D01*
X203002201Y-196585771D01*
X204002201Y-195085771D02*
X204145058Y-195085771D01*
X204287915Y-195157200D01*
X204359344Y-195228629D01*
X204430773Y-195371486D01*
X204502201Y-195657200D01*
X204502201Y-196014343D01*
X204430773Y-196300057D01*
X204359344Y-196442914D01*
X204287915Y-196514343D01*
X204145058Y-196585771D01*
X204002201Y-196585771D01*
X203859344Y-196514343D01*
X203787915Y-196442914D01*
X203716487Y-196300057D01*
X203645058Y-196014343D01*
X203645058Y-195657200D01*
X203716487Y-195371486D01*
X203787915Y-195228629D01*
X203859344Y-195157200D01*
X204002201Y-195085771D01*
X205145058Y-196442914D02*
X205216486Y-196514343D01*
X205145058Y-196585771D01*
X205073629Y-196514343D01*
X205145058Y-196442914D01*
X205145058Y-196585771D01*
X205787915Y-195228629D02*
X205859344Y-195157200D01*
X206002201Y-195085771D01*
X206359344Y-195085771D01*
X206502201Y-195157200D01*
X206573630Y-195228629D01*
X206645058Y-195371486D01*
X206645058Y-195514343D01*
X206573630Y-195728629D01*
X205716487Y-196585771D01*
X206645058Y-196585771D01*
X207287915Y-196014343D02*
X208430772Y-196014343D01*
X209073629Y-196514343D02*
X209216486Y-196585771D01*
X209502201Y-196585771D01*
X209645058Y-196514343D01*
X209716486Y-196371486D01*
X209716486Y-196300057D01*
X209645058Y-196157200D01*
X209502201Y-196085771D01*
X209287915Y-196085771D01*
X209145058Y-196014343D01*
X209073629Y-195871486D01*
X209073629Y-195800057D01*
X209145058Y-195657200D01*
X209287915Y-195585771D01*
X209502201Y-195585771D01*
X209645058Y-195657200D01*
X210145058Y-195585771D02*
X210716487Y-195585771D01*
X210359344Y-195085771D02*
X210359344Y-196371486D01*
X210430772Y-196514343D01*
X210573630Y-196585771D01*
X210716487Y-196585771D01*
X211859344Y-196585771D02*
X211859344Y-195800057D01*
X211787915Y-195657200D01*
X211645058Y-195585771D01*
X211359344Y-195585771D01*
X211216487Y-195657200D01*
X211859344Y-196514343D02*
X211716487Y-196585771D01*
X211359344Y-196585771D01*
X211216487Y-196514343D01*
X211145058Y-196371486D01*
X211145058Y-196228629D01*
X211216487Y-196085771D01*
X211359344Y-196014343D01*
X211716487Y-196014343D01*
X211859344Y-195942914D01*
X212573630Y-196585771D02*
X212573630Y-195085771D01*
X212573630Y-195657200D02*
X212716487Y-195585771D01*
X213002201Y-195585771D01*
X213145058Y-195657200D01*
X213216487Y-195728629D01*
X213287916Y-195871486D01*
X213287916Y-196300057D01*
X213216487Y-196442914D01*
X213145058Y-196514343D01*
X213002201Y-196585771D01*
X212716487Y-196585771D01*
X212573630Y-196514343D01*
X214145059Y-196585771D02*
X214002201Y-196514343D01*
X213930773Y-196371486D01*
X213930773Y-195085771D01*
X215287915Y-196514343D02*
X215145058Y-196585771D01*
X214859344Y-196585771D01*
X214716487Y-196514343D01*
X214645058Y-196371486D01*
X214645058Y-195800057D01*
X214716487Y-195657200D01*
X214859344Y-195585771D01*
X215145058Y-195585771D01*
X215287915Y-195657200D01*
X215359344Y-195800057D01*
X215359344Y-195942914D01*
X214645058Y-196085771D01*
D10*
D11*
X177002200Y-191507200D02*
X285002200Y-191507200D01*
D10*
D12*
X264216486Y-193785771D02*
X263716486Y-193071486D01*
X263359343Y-193785771D02*
X263359343Y-192285771D01*
X263930771Y-192285771D01*
X264073629Y-192357200D01*
X264145057Y-192428629D01*
X264216486Y-192571486D01*
X264216486Y-192785771D01*
X264145057Y-192928629D01*
X264073629Y-193000057D01*
X263930771Y-193071486D01*
X263359343Y-193071486D01*
X265430771Y-193714343D02*
X265287914Y-193785771D01*
X265002200Y-193785771D01*
X264859343Y-193714343D01*
X264787914Y-193571486D01*
X264787914Y-193000057D01*
X264859343Y-192857200D01*
X265002200Y-192785771D01*
X265287914Y-192785771D01*
X265430771Y-192857200D01*
X265502200Y-193000057D01*
X265502200Y-193142914D01*
X264787914Y-193285771D01*
X266002200Y-192785771D02*
X266359343Y-193785771D01*
X266716485Y-192785771D01*
X267287914Y-193642914D02*
X267359342Y-193714343D01*
X267287914Y-193785771D01*
X267216485Y-193714343D01*
X267287914Y-193642914D01*
X267287914Y-193785771D01*
X267287914Y-192857200D02*
X267359342Y-192928629D01*
X267287914Y-193000057D01*
X267216485Y-192928629D01*
X267287914Y-192857200D01*
X267287914Y-193000057D01*
D10*
D11*
X178287914Y-193714343D02*
X178502200Y-193785771D01*
X178859343Y-193785771D01*
X179002200Y-193714343D01*
X179073629Y-193642914D01*
X179145057Y-193500057D01*
X179145057Y-193357200D01*
X179073629Y-193214343D01*
X179002200Y-193142914D01*
X178859343Y-193071486D01*
X178573629Y-193000057D01*
X178430771Y-192928629D01*
X178359343Y-192857200D01*
X178287914Y-192714343D01*
X178287914Y-192571486D01*
X178359343Y-192428629D01*
X178430771Y-192357200D01*
X178573629Y-192285771D01*
X178930771Y-192285771D01*
X179145057Y-192357200D01*
X179787914Y-193785771D02*
X179787914Y-192785771D01*
X179787914Y-192285771D02*
X179716485Y-192357200D01*
X179787914Y-192428629D01*
X179859342Y-192357200D01*
X179787914Y-192285771D01*
X179787914Y-192428629D01*
X180359343Y-192785771D02*
X181145057Y-192785771D01*
X180359343Y-193785771D01*
X181145057Y-193785771D01*
X182287914Y-193714343D02*
X182145057Y-193785771D01*
X181859343Y-193785771D01*
X181716486Y-193714343D01*
X181645057Y-193571486D01*
X181645057Y-193000057D01*
X181716486Y-192857200D01*
X181859343Y-192785771D01*
X182145057Y-192785771D01*
X182287914Y-192857200D01*
X182359343Y-193000057D01*
X182359343Y-193142914D01*
X181645057Y-193285771D01*
X183002200Y-193642914D02*
X183073628Y-193714343D01*
X183002200Y-193785771D01*
X182930771Y-193714343D01*
X183002200Y-193642914D01*
X183002200Y-193785771D01*
X183002200Y-192857200D02*
X183073628Y-192928629D01*
X183002200Y-193000057D01*
X182930771Y-192928629D01*
X183002200Y-192857200D01*
X183002200Y-193000057D01*
X184787914Y-193357200D02*
X185502200Y-193357200D01*
X184645057Y-193785771D02*
X185145057Y-192285771D01*
X185645057Y-193785771D01*
X186787914Y-192785771D02*
X186787914Y-193785771D01*
X186430771Y-192214343D02*
X186073628Y-193285771D01*
X187002200Y-193285771D01*
D10*
D11*
X263359343Y-196585771D02*
X263359343Y-195085771D01*
X264716486Y-196585771D02*
X264716486Y-195085771D01*
X264716486Y-196514343D02*
X264573629Y-196585771D01*
X264287915Y-196585771D01*
X264145057Y-196514343D01*
X264073629Y-196442914D01*
X264002200Y-196300057D01*
X264002200Y-195871486D01*
X264073629Y-195728629D01*
X264145057Y-195657200D01*
X264287915Y-195585771D01*
X264573629Y-195585771D01*
X264716486Y-195657200D01*
X265430772Y-196442914D02*
X265502200Y-196514343D01*
X265430772Y-196585771D01*
X265359343Y-196514343D01*
X265430772Y-196442914D01*
X265430772Y-196585771D01*
X265430772Y-195657200D02*
X265502200Y-195728629D01*
X265430772Y-195800057D01*
X265359343Y-195728629D01*
X265430772Y-195657200D01*
X265430772Y-195800057D01*
X268073629Y-196585771D02*
X267216486Y-196585771D01*
X267645058Y-196585771D02*
X267645058Y-195085771D01*
X267502201Y-195300057D01*
X267359343Y-195442914D01*
X267216486Y-195514343D01*
X269787914Y-195014343D02*
X268502200Y-196942914D01*
X271073629Y-196585771D02*
X270216486Y-196585771D01*
X270645058Y-196585771D02*
X270645058Y-195085771D01*
X270502201Y-195300057D01*
X270359343Y-195442914D01*
X270216486Y-195514343D01*
D10*
D11*
X177002200Y-187507200D02*
X285002200Y-187507200D01*
D10*
D13*
X178454581Y-188211962D02*
X179597438Y-188211962D01*
X178776010Y-190211962D02*
X179026010Y-188211962D01*
X180014105Y-190211962D02*
X180180771Y-188878629D01*
X180264105Y-188211962D02*
X180156962Y-188307200D01*
X180240295Y-188402438D01*
X180347439Y-188307200D01*
X180264105Y-188211962D01*
X180240295Y-188402438D01*
X180847438Y-188878629D02*
X181609343Y-188878629D01*
X181216486Y-188211962D02*
X181002200Y-189926248D01*
X181073630Y-190116724D01*
X181252201Y-190211962D01*
X181442677Y-190211962D01*
X182395058Y-190211962D02*
X182216487Y-190116724D01*
X182145057Y-189926248D01*
X182359343Y-188211962D01*
X183930772Y-190116724D02*
X183728391Y-190211962D01*
X183347439Y-190211962D01*
X183168867Y-190116724D01*
X183097438Y-189926248D01*
X183192676Y-189164343D01*
X183311724Y-188973867D01*
X183514105Y-188878629D01*
X183895057Y-188878629D01*
X184073629Y-188973867D01*
X184145057Y-189164343D01*
X184121248Y-189354819D01*
X183145057Y-189545295D01*
X184895057Y-190021486D02*
X184978392Y-190116724D01*
X184871248Y-190211962D01*
X184787915Y-190116724D01*
X184895057Y-190021486D01*
X184871248Y-190211962D01*
X185026010Y-188973867D02*
X185109344Y-189069105D01*
X185002200Y-189164343D01*
X184918867Y-189069105D01*
X185026010Y-188973867D01*
X185002200Y-189164343D01*
D10*
D11*
X178859343Y-185600057D02*
X178359343Y-185600057D01*
X178359343Y-186385771D02*
X178359343Y-184885771D01*
X179073629Y-184885771D01*
X179645057Y-186385771D02*
X179645057Y-185385771D01*
X179645057Y-184885771D02*
X179573628Y-184957200D01*
X179645057Y-185028629D01*
X179716485Y-184957200D01*
X179645057Y-184885771D01*
X179645057Y-185028629D01*
X180573629Y-186385771D02*
X180430771Y-186314343D01*
X180359343Y-186171486D01*
X180359343Y-184885771D01*
X181716485Y-186314343D02*
X181573628Y-186385771D01*
X181287914Y-186385771D01*
X181145057Y-186314343D01*
X181073628Y-186171486D01*
X181073628Y-185600057D01*
X181145057Y-185457200D01*
X181287914Y-185385771D01*
X181573628Y-185385771D01*
X181716485Y-185457200D01*
X181787914Y-185600057D01*
X181787914Y-185742914D01*
X181073628Y-185885771D01*
X182430771Y-186242914D02*
X182502199Y-186314343D01*
X182430771Y-186385771D01*
X182359342Y-186314343D01*
X182430771Y-186242914D01*
X182430771Y-186385771D01*
X182430771Y-185457200D02*
X182502199Y-185528629D01*
X182430771Y-185600057D01*
X182359342Y-185528629D01*
X182430771Y-185457200D01*
X182430771Y-185600057D01*
X184787914Y-185600057D02*
X185002200Y-185671486D01*
X185073628Y-185742914D01*
X185145057Y-185885771D01*
X185145057Y-186100057D01*
X185073628Y-186242914D01*
X185002200Y-186314343D01*
X184859342Y-186385771D01*
X184287914Y-186385771D01*
X184287914Y-184885771D01*
X184787914Y-184885771D01*
X184930771Y-184957200D01*
X185002200Y-185028629D01*
X185073628Y-185171486D01*
X185073628Y-185314343D01*
X185002200Y-185457200D01*
X184930771Y-185528629D01*
X184787914Y-185600057D01*
X184287914Y-185600057D01*
X185787914Y-186385771D02*
X185787914Y-185385771D01*
X185787914Y-185671486D02*
X185859342Y-185528629D01*
X185930771Y-185457200D01*
X186073628Y-185385771D01*
X186216485Y-185385771D01*
X187359342Y-186385771D02*
X187359342Y-185600057D01*
X187287913Y-185457200D01*
X187145056Y-185385771D01*
X186859342Y-185385771D01*
X186716485Y-185457200D01*
X187359342Y-186314343D02*
X187216485Y-186385771D01*
X186859342Y-186385771D01*
X186716485Y-186314343D01*
X186645056Y-186171486D01*
X186645056Y-186028629D01*
X186716485Y-185885771D01*
X186859342Y-185814343D01*
X187216485Y-185814343D01*
X187359342Y-185742914D01*
X188716485Y-185385771D02*
X188716485Y-186385771D01*
X188073628Y-185385771D02*
X188073628Y-186171486D01*
X188145056Y-186314343D01*
X188287914Y-186385771D01*
X188502199Y-186385771D01*
X188645056Y-186314343D01*
X188716485Y-186242914D01*
X189359342Y-186314343D02*
X189502199Y-186385771D01*
X189787914Y-186385771D01*
X189930771Y-186314343D01*
X190002199Y-186171486D01*
X190002199Y-186100057D01*
X189930771Y-185957200D01*
X189787914Y-185885771D01*
X189573628Y-185885771D01*
X189430771Y-185814343D01*
X189359342Y-185671486D01*
X189359342Y-185600057D01*
X189430771Y-185457200D01*
X189573628Y-185385771D01*
X189787914Y-185385771D01*
X189930771Y-185457200D01*
X190430771Y-185385771D02*
X191002200Y-185385771D01*
X190645057Y-184885771D02*
X190645057Y-186171486D01*
X190716485Y-186314343D01*
X190859343Y-186385771D01*
X191002200Y-186385771D01*
X192073628Y-186314343D02*
X191930771Y-186385771D01*
X191645057Y-186385771D01*
X191502200Y-186314343D01*
X191430771Y-186171486D01*
X191430771Y-185600057D01*
X191502200Y-185457200D01*
X191645057Y-185385771D01*
X191930771Y-185385771D01*
X192073628Y-185457200D01*
X192145057Y-185600057D01*
X192145057Y-185742914D01*
X191430771Y-185885771D01*
X193430771Y-185385771D02*
X193430771Y-186385771D01*
X192787914Y-185385771D02*
X192787914Y-186171486D01*
X192859342Y-186314343D01*
X193002200Y-186385771D01*
X193216485Y-186385771D01*
X193359342Y-186314343D01*
X193430771Y-186242914D01*
X194716485Y-186314343D02*
X194573628Y-186385771D01*
X194287914Y-186385771D01*
X194145057Y-186314343D01*
X194073628Y-186171486D01*
X194073628Y-185600057D01*
X194145057Y-185457200D01*
X194287914Y-185385771D01*
X194573628Y-185385771D01*
X194716485Y-185457200D01*
X194787914Y-185600057D01*
X194787914Y-185742914D01*
X194073628Y-185885771D01*
X195430771Y-186385771D02*
X195430771Y-185385771D01*
X195430771Y-185671486D02*
X195502199Y-185528629D01*
X195573628Y-185457200D01*
X195716485Y-185385771D01*
X195859342Y-185385771D01*
X197002199Y-185385771D02*
X197002199Y-186385771D01*
X196359342Y-185385771D02*
X196359342Y-186171486D01*
X196430770Y-186314343D01*
X196573628Y-186385771D01*
X196787913Y-186385771D01*
X196930770Y-186314343D01*
X197002199Y-186242914D01*
X197716485Y-185385771D02*
X197716485Y-186385771D01*
X197716485Y-185528629D02*
X197787913Y-185457200D01*
X197930771Y-185385771D01*
X198145056Y-185385771D01*
X198287913Y-185457200D01*
X198359342Y-185600057D01*
X198359342Y-186385771D01*
X199716485Y-185385771D02*
X199716485Y-186600057D01*
X199645056Y-186742914D01*
X199573628Y-186814343D01*
X199430771Y-186885771D01*
X199216485Y-186885771D01*
X199073628Y-186814343D01*
X199716485Y-186314343D02*
X199573628Y-186385771D01*
X199287914Y-186385771D01*
X199145056Y-186314343D01*
X199073628Y-186242914D01*
X199002199Y-186100057D01*
X199002199Y-185671486D01*
X199073628Y-185528629D01*
X199145056Y-185457200D01*
X199287914Y-185385771D01*
X199573628Y-185385771D01*
X199716485Y-185457200D01*
X200216485Y-184885771D02*
X200716485Y-186385771D01*
X201216485Y-184885771D01*
X201573628Y-184885771D02*
X202502199Y-184885771D01*
X202002199Y-185457200D01*
X202216485Y-185457200D01*
X202359342Y-185528629D01*
X202430771Y-185600057D01*
X202502199Y-185742914D01*
X202502199Y-186100057D01*
X202430771Y-186242914D01*
X202359342Y-186314343D01*
X202216485Y-186385771D01*
X201787913Y-186385771D01*
X201645056Y-186314343D01*
X201573628Y-186242914D01*
X203145056Y-186242914D02*
X203216484Y-186314343D01*
X203145056Y-186385771D01*
X203073627Y-186314343D01*
X203145056Y-186242914D01*
X203145056Y-186385771D01*
X203859342Y-186385771D02*
X203859342Y-184885771D01*
X204002199Y-185814343D02*
X204430770Y-186385771D01*
X204430770Y-185385771D02*
X203859342Y-185957200D01*
X205073628Y-186385771D02*
X205073628Y-185385771D01*
X205073628Y-184885771D02*
X205002199Y-184957200D01*
X205073628Y-185028629D01*
X205145056Y-184957200D01*
X205073628Y-184885771D01*
X205073628Y-185028629D01*
X206430771Y-186314343D02*
X206287914Y-186385771D01*
X206002200Y-186385771D01*
X205859342Y-186314343D01*
X205787914Y-186242914D01*
X205716485Y-186100057D01*
X205716485Y-185671486D01*
X205787914Y-185528629D01*
X205859342Y-185457200D01*
X206002200Y-185385771D01*
X206287914Y-185385771D01*
X206430771Y-185457200D01*
X207716485Y-186385771D02*
X207716485Y-185600057D01*
X207645056Y-185457200D01*
X207502199Y-185385771D01*
X207216485Y-185385771D01*
X207073628Y-185457200D01*
X207716485Y-186314343D02*
X207573628Y-186385771D01*
X207216485Y-186385771D01*
X207073628Y-186314343D01*
X207002199Y-186171486D01*
X207002199Y-186028629D01*
X207073628Y-185885771D01*
X207216485Y-185814343D01*
X207573628Y-185814343D01*
X207716485Y-185742914D01*
X209073628Y-186385771D02*
X209073628Y-184885771D01*
X209073628Y-186314343D02*
X208930771Y-186385771D01*
X208645057Y-186385771D01*
X208502199Y-186314343D01*
X208430771Y-186242914D01*
X208359342Y-186100057D01*
X208359342Y-185671486D01*
X208430771Y-185528629D01*
X208502199Y-185457200D01*
X208645057Y-185385771D01*
X208930771Y-185385771D01*
X209073628Y-185457200D01*
X209430771Y-186528629D02*
X210573628Y-186528629D01*
X210930771Y-185385771D02*
X210930771Y-186885771D01*
X210930771Y-185457200D02*
X211073628Y-185385771D01*
X211359342Y-185385771D01*
X211502199Y-185457200D01*
X211573628Y-185528629D01*
X211645057Y-185671486D01*
X211645057Y-186100057D01*
X211573628Y-186242914D01*
X211502199Y-186314343D01*
X211359342Y-186385771D01*
X211073628Y-186385771D01*
X210930771Y-186314343D01*
X212930771Y-186314343D02*
X212787914Y-186385771D01*
X212502200Y-186385771D01*
X212359342Y-186314343D01*
X212287914Y-186242914D01*
X212216485Y-186100057D01*
X212216485Y-185671486D01*
X212287914Y-185528629D01*
X212359342Y-185457200D01*
X212502200Y-185385771D01*
X212787914Y-185385771D01*
X212930771Y-185457200D01*
X213573628Y-186385771D02*
X213573628Y-184885771D01*
X213573628Y-185457200D02*
X213716485Y-185385771D01*
X214002199Y-185385771D01*
X214145056Y-185457200D01*
X214216485Y-185528629D01*
X214287914Y-185671486D01*
X214287914Y-186100057D01*
X214216485Y-186242914D01*
X214145056Y-186314343D01*
X214002199Y-186385771D01*
X213716485Y-186385771D01*
X213573628Y-186314343D01*
D10*
D11*
X177002200Y-181507200D02*
X285002200Y-181507200D01*
D10*
D11*
X178287914Y-183614343D02*
X178502200Y-183685771D01*
X178859343Y-183685771D01*
X179002200Y-183614343D01*
X179073629Y-183542914D01*
X179145057Y-183400057D01*
X179145057Y-183257200D01*
X179073629Y-183114343D01*
X179002200Y-183042914D01*
X178859343Y-182971486D01*
X178573629Y-182900057D01*
X178430771Y-182828629D01*
X178359343Y-182757200D01*
X178287914Y-182614343D01*
X178287914Y-182471486D01*
X178359343Y-182328629D01*
X178430771Y-182257200D01*
X178573629Y-182185771D01*
X178930771Y-182185771D01*
X179145057Y-182257200D01*
X179787914Y-183685771D02*
X179787914Y-182185771D01*
X180430771Y-183685771D02*
X180430771Y-182900057D01*
X180359342Y-182757200D01*
X180216485Y-182685771D01*
X180002200Y-182685771D01*
X179859342Y-182757200D01*
X179787914Y-182828629D01*
X181716485Y-183614343D02*
X181573628Y-183685771D01*
X181287914Y-183685771D01*
X181145057Y-183614343D01*
X181073628Y-183471486D01*
X181073628Y-182900057D01*
X181145057Y-182757200D01*
X181287914Y-182685771D01*
X181573628Y-182685771D01*
X181716485Y-182757200D01*
X181787914Y-182900057D01*
X181787914Y-183042914D01*
X181073628Y-183185771D01*
X183002199Y-183614343D02*
X182859342Y-183685771D01*
X182573628Y-183685771D01*
X182430771Y-183614343D01*
X182359342Y-183471486D01*
X182359342Y-182900057D01*
X182430771Y-182757200D01*
X182573628Y-182685771D01*
X182859342Y-182685771D01*
X183002199Y-182757200D01*
X183073628Y-182900057D01*
X183073628Y-183042914D01*
X182359342Y-183185771D01*
X183502199Y-182685771D02*
X184073628Y-182685771D01*
X183716485Y-182185771D02*
X183716485Y-183471486D01*
X183787913Y-183614343D01*
X183930771Y-183685771D01*
X184073628Y-183685771D01*
X184573628Y-183542914D02*
X184645056Y-183614343D01*
X184573628Y-183685771D01*
X184502199Y-183614343D01*
X184573628Y-183542914D01*
X184573628Y-183685771D01*
X184573628Y-182757200D02*
X184645056Y-182828629D01*
X184573628Y-182900057D01*
X184502199Y-182828629D01*
X184573628Y-182757200D01*
X184573628Y-182900057D01*
D10*
D11*
X197002200Y-191507200D02*
X197002200Y-194507200D01*
D10*
D11*
X261002200Y-191507200D02*
X261002200Y-198007200D01*
D12*
X154500000Y-107000000D02*
G75*
G03X154500000Y-107000000I-6000000J0D01*
G01*
D11*
X105814000Y-145699000D02*
X105614000Y-145699000D01*
X103220000Y-145699000D02*
X103400000Y-145699000D01*
X103530357Y-142471256D02*
G75*
G03X103214000Y-145699000I1003643J-1727744D01*
G01*
X103400932Y-143146994D02*
G75*
G03X103400000Y-145250000I1133068J-1052006D01*
G01*
X105840726Y-145686220D02*
G75*
G03X105494000Y-142449000I-1306726J1497220D01*
G01*
X105613253Y-145212889D02*
G75*
G03X105594000Y-143165000I-1079253J1013889D01*
G01*
D12*
X104500000Y-149500000D02*
X104500000Y-157500000D01*
X104500000Y-157500000D02*
X101500000Y-157500000D01*
X101500000Y-157500000D02*
X101500000Y-149500000D01*
X101500000Y-149500000D02*
X104500000Y-149500000D01*
X152000000Y-117500000D02*
G75*
G03X152000000Y-117500000I-2000000J0D01*
G01*
X153000000Y-120500000D02*
X153000000Y-114500000D01*
X153000000Y-114500000D02*
X147000000Y-114500000D01*
X147000000Y-114500000D02*
X147000000Y-120500000D01*
X147000000Y-120500000D02*
X153000000Y-120500000D01*
X154000000Y-158500000D02*
X154000000Y-139500000D01*
X154000000Y-139500000D02*
X135000000Y-139500000D01*
X135000000Y-139500000D02*
X135000000Y-158500000D01*
X135000000Y-158500000D02*
X154000000Y-158500000D01*
D11*
X149686000Y-126301000D02*
X149886000Y-126301000D01*
X152280000Y-126301000D02*
X152100000Y-126301000D01*
X151969643Y-129528744D02*
G75*
G03X152286000Y-126301000I-1003643J1727744D01*
G01*
X152099068Y-128853006D02*
G75*
G03X152100000Y-126750000I-1133068J1052006D01*
G01*
X149659274Y-126313780D02*
G75*
G03X150006000Y-129551000I1306726J-1497220D01*
G01*
X149886747Y-126787111D02*
G75*
G03X149906000Y-128835000I1079253J-1013889D01*
G01*
X132270000Y-146540000D02*
X132270000Y-151620000D01*
X132270000Y-151620000D02*
X129730000Y-151620000D01*
X129730000Y-151620000D02*
X129730000Y-146540000D01*
X129730000Y-146540000D02*
X132270000Y-146540000D01*
X131000000Y-146540000D02*
X131000000Y-145270000D01*
X131000000Y-151620000D02*
X131000000Y-152890000D01*
X123730000Y-151460000D02*
X123730000Y-146380000D01*
X123730000Y-146380000D02*
X126270000Y-146380000D01*
X126270000Y-146380000D02*
X126270000Y-151460000D01*
X126270000Y-151460000D02*
X123730000Y-151460000D01*
X125000000Y-151460000D02*
X125000000Y-152730000D01*
X125000000Y-146380000D02*
X125000000Y-145110000D01*
X117730000Y-151460000D02*
X117730000Y-146380000D01*
X117730000Y-146380000D02*
X120270000Y-146380000D01*
X120270000Y-146380000D02*
X120270000Y-151460000D01*
X120270000Y-151460000D02*
X117730000Y-151460000D01*
X119000000Y-151460000D02*
X119000000Y-152730000D01*
X119000000Y-146380000D02*
X119000000Y-145110000D01*
X114770000Y-146540000D02*
X114770000Y-151620000D01*
X114770000Y-151620000D02*
X112230000Y-151620000D01*
X112230000Y-151620000D02*
X112230000Y-146540000D01*
X112230000Y-146540000D02*
X114770000Y-146540000D01*
X113500000Y-146540000D02*
X113500000Y-145270000D01*
X113500000Y-151620000D02*
X113500000Y-152890000D01*
D14*
X102140000Y-119650000D02*
X145320000Y-119650000D01*
X145320000Y-119650000D02*
X145320000Y-132350000D01*
X145320000Y-132350000D02*
X102140000Y-132350000D01*
X102140000Y-132350000D02*
X102140000Y-119650000D01*
X102140000Y-127270000D02*
X103410000Y-127270000D01*
X103410000Y-127270000D02*
X103410000Y-124730000D01*
X103410000Y-124730000D02*
X102140000Y-124730000D01*
D10*
X138500000Y-116500000D02*
X100500000Y-116500000D01*
X100500000Y-116500000D02*
X100500000Y-100500000D01*
X138500000Y-100500000D02*
X100500000Y-100500000D01*
X138500000Y-116500000D02*
X138500000Y-100500000D01*
D15*
X145100000Y-134095001D02*
X145100000Y-133765001D01*
X145100000Y-133765001D02*
X151520000Y-133765001D01*
X151520000Y-133765001D02*
X151520000Y-134095001D01*
X145100000Y-136055001D02*
X145100000Y-136385001D01*
X145100000Y-136385001D02*
X151520000Y-136385001D01*
X151520000Y-136385001D02*
X151520000Y-136055001D01*
D10*
X149212000Y-111000000D02*
G75*
G03X149212000Y-111000000I-712000J0D01*
G01*
X149212000Y-103000000D02*
G75*
G03X149212000Y-103000000I-712000J0D01*
G01*
X105450000Y-142960000D02*
G75*
G03X105450000Y-142960000I-950000J0D01*
G01*
X103810000Y-150960000D02*
G75*
G03X103810000Y-150960000I-850000J0D01*
G01*
X103810000Y-153500000D02*
G75*
G03X103810000Y-153500000I-850000J0D01*
G01*
X103810000Y-156040000D02*
G75*
G03X103810000Y-156040000I-850000J0D01*
G01*
X153900000Y-119750000D02*
G75*
G03X153900000Y-119750000I-650000J0D01*
G01*
X147600000Y-119750000D02*
G75*
G03X147600000Y-119750000I-850000J0D01*
G01*
X147600000Y-115250000D02*
G75*
G03X147600000Y-115250000I-850000J0D01*
G01*
X153900000Y-115250000D02*
G75*
G03X153900000Y-115250000I-650000J0D01*
G01*
X136850000Y-147500000D02*
G75*
G03X136850000Y-147500000I-850000J0D01*
G01*
X136850000Y-150000000D02*
G75*
G03X136850000Y-150000000I-850000J0D01*
G01*
X136850000Y-152500000D02*
G75*
G03X136850000Y-152500000I-850000J0D01*
G01*
X151950000Y-129040000D02*
G75*
G03X151950000Y-129040000I-950000J0D01*
G01*
X131949490Y-144000000D02*
G75*
G03X131949490Y-144000000I-949490J0D01*
G01*
X131949490Y-154160000D02*
G75*
G03X131949490Y-154160000I-949490J0D01*
G01*
X125949490Y-154000000D02*
G75*
G03X125949490Y-154000000I-949490J0D01*
G01*
X125949490Y-143840000D02*
G75*
G03X125949490Y-143840000I-949490J0D01*
G01*
X119949490Y-154000000D02*
G75*
G03X119949490Y-154000000I-949490J0D01*
G01*
X119949490Y-143840000D02*
G75*
G03X119949490Y-143840000I-949490J0D01*
G01*
X114449490Y-144000000D02*
G75*
G03X114449490Y-144000000I-949490J0D01*
G01*
X114449490Y-154160000D02*
G75*
G03X114449490Y-154160000I-949490J0D01*
G01*
X107752600Y-133264400D02*
X107752600Y-133975600D01*
X109227400Y-133264400D02*
X109227400Y-133975600D01*
X107752600Y-133975600D02*
G75*
G03X109227400Y-133975600I737400J0D01*
G01*
X109227400Y-133264400D02*
G75*
G03X107752600Y-133264400I-737400J0D01*
G01*
X110292600Y-133264400D02*
X110292600Y-133975600D01*
X111767400Y-133264400D02*
X111767400Y-133975600D01*
X110292600Y-133975600D02*
G75*
G03X111767400Y-133975600I737400J0D01*
G01*
X111767400Y-133264400D02*
G75*
G03X110292600Y-133264400I-737400J0D01*
G01*
X112832600Y-133264400D02*
X112832600Y-133975600D01*
X114307400Y-133264400D02*
X114307400Y-133975600D01*
X112832600Y-133975600D02*
G75*
G03X114307400Y-133975600I737400J0D01*
G01*
X114307400Y-133264400D02*
G75*
G03X112832600Y-133264400I-737400J0D01*
G01*
X115372600Y-133264400D02*
X115372600Y-133975600D01*
X116847400Y-133264400D02*
X116847400Y-133975600D01*
X115372600Y-133975600D02*
G75*
G03X116847400Y-133975600I737400J0D01*
G01*
X116847400Y-133264400D02*
G75*
G03X115372600Y-133264400I-737400J0D01*
G01*
X117912600Y-133264400D02*
X117912600Y-133975600D01*
X119387400Y-133264400D02*
X119387400Y-133975600D01*
X117912600Y-133975600D02*
G75*
G03X119387400Y-133975600I737400J0D01*
G01*
X119387400Y-133264400D02*
G75*
G03X117912600Y-133264400I-737400J0D01*
G01*
X120452600Y-133264400D02*
X120452600Y-133975600D01*
X121927400Y-133264400D02*
X121927400Y-133975600D01*
X120452600Y-133975600D02*
G75*
G03X121927400Y-133975600I737400J0D01*
G01*
X121927400Y-133264400D02*
G75*
G03X120452600Y-133264400I-737400J0D01*
G01*
X122992600Y-133264400D02*
X122992600Y-133975600D01*
X124467400Y-133264400D02*
X124467400Y-133975600D01*
X122992600Y-133975600D02*
G75*
G03X124467400Y-133975600I737400J0D01*
G01*
X124467400Y-133264400D02*
G75*
G03X122992600Y-133264400I-737400J0D01*
G01*
X125532600Y-133264400D02*
X125532600Y-133975600D01*
X127007400Y-133264400D02*
X127007400Y-133975600D01*
X125532600Y-133975600D02*
G75*
G03X127007400Y-133975600I737400J0D01*
G01*
X127007400Y-133264400D02*
G75*
G03X125532600Y-133264400I-737400J0D01*
G01*
X128072600Y-133264400D02*
X128072600Y-133975600D01*
X129547400Y-133264400D02*
X129547400Y-133975600D01*
X128072600Y-133975600D02*
G75*
G03X129547400Y-133975600I737400J0D01*
G01*
X129547400Y-133264400D02*
G75*
G03X128072600Y-133264400I-737400J0D01*
G01*
X130612600Y-133264400D02*
X130612600Y-133975600D01*
X132087400Y-133264400D02*
X132087400Y-133975600D01*
X130612600Y-133975600D02*
G75*
G03X132087400Y-133975600I737400J0D01*
G01*
X132087400Y-133264400D02*
G75*
G03X130612600Y-133264400I-737400J0D01*
G01*
X133152600Y-133264400D02*
X133152600Y-133975600D01*
X134627400Y-133264400D02*
X134627400Y-133975600D01*
X133152600Y-133975600D02*
G75*
G03X134627400Y-133975600I737400J0D01*
G01*
X134627400Y-133264400D02*
G75*
G03X133152600Y-133264400I-737400J0D01*
G01*
X135692600Y-133264400D02*
X135692600Y-133975600D01*
X137167400Y-133264400D02*
X137167400Y-133975600D01*
X135692600Y-133975600D02*
G75*
G03X137167400Y-133975600I737400J0D01*
G01*
X137167400Y-133264400D02*
G75*
G03X135692600Y-133264400I-737400J0D01*
G01*
X138232600Y-133264400D02*
X138232600Y-133975600D01*
X139707400Y-133264400D02*
X139707400Y-133975600D01*
X138232600Y-133975600D02*
G75*
G03X139707400Y-133975600I737400J0D01*
G01*
X139707400Y-133264400D02*
G75*
G03X138232600Y-133264400I-737400J0D01*
G01*
X140772600Y-133264400D02*
X140772600Y-133975600D01*
X142247400Y-133264400D02*
X142247400Y-133975600D01*
X140772600Y-133975600D02*
G75*
G03X142247400Y-133975600I737400J0D01*
G01*
X142247400Y-133264400D02*
G75*
G03X140772600Y-133264400I-737400J0D01*
G01*
X140772600Y-118024400D02*
X140772600Y-118735600D01*
X142247400Y-118024400D02*
X142247400Y-118735600D01*
X140772600Y-118735600D02*
G75*
G03X142247400Y-118735600I737400J0D01*
G01*
X142247400Y-118024400D02*
G75*
G03X140772600Y-118024400I-737400J0D01*
G01*
X138232600Y-118024400D02*
X138232600Y-118735600D01*
X139707400Y-118024400D02*
X139707400Y-118735600D01*
X138232600Y-118735600D02*
G75*
G03X139707400Y-118735600I737400J0D01*
G01*
X139707400Y-118024400D02*
G75*
G03X138232600Y-118024400I-737400J0D01*
G01*
X135692600Y-118024400D02*
X135692600Y-118735600D01*
X137167400Y-118024400D02*
X137167400Y-118735600D01*
X135692600Y-118735600D02*
G75*
G03X137167400Y-118735600I737400J0D01*
G01*
X137167400Y-118024400D02*
G75*
G03X135692600Y-118024400I-737400J0D01*
G01*
X133152600Y-118024400D02*
X133152600Y-118735600D01*
X134627400Y-118024400D02*
X134627400Y-118735600D01*
X133152600Y-118735600D02*
G75*
G03X134627400Y-118735600I737400J0D01*
G01*
X134627400Y-118024400D02*
G75*
G03X133152600Y-118024400I-737400J0D01*
G01*
X130612600Y-118024400D02*
X130612600Y-118735600D01*
X132087400Y-118024400D02*
X132087400Y-118735600D01*
X130612600Y-118735600D02*
G75*
G03X132087400Y-118735600I737400J0D01*
G01*
X132087400Y-118024400D02*
G75*
G03X130612600Y-118024400I-737400J0D01*
G01*
X128072600Y-118024400D02*
X128072600Y-118735600D01*
X129547400Y-118024400D02*
X129547400Y-118735600D01*
X128072600Y-118735600D02*
G75*
G03X129547400Y-118735600I737400J0D01*
G01*
X129547400Y-118024400D02*
G75*
G03X128072600Y-118024400I-737400J0D01*
G01*
X125532600Y-118024400D02*
X125532600Y-118735600D01*
X127007400Y-118024400D02*
X127007400Y-118735600D01*
X125532600Y-118735600D02*
G75*
G03X127007400Y-118735600I737400J0D01*
G01*
X127007400Y-118024400D02*
G75*
G03X125532600Y-118024400I-737400J0D01*
G01*
X122992600Y-118024400D02*
X122992600Y-118735600D01*
X124467400Y-118024400D02*
X124467400Y-118735600D01*
X122992600Y-118735600D02*
G75*
G03X124467400Y-118735600I737400J0D01*
G01*
X124467400Y-118024400D02*
G75*
G03X122992600Y-118024400I-737400J0D01*
G01*
X120452600Y-118024400D02*
X120452600Y-118735600D01*
X121927400Y-118024400D02*
X121927400Y-118735600D01*
X120452600Y-118735600D02*
G75*
G03X121927400Y-118735600I737400J0D01*
G01*
X121927400Y-118024400D02*
G75*
G03X120452600Y-118024400I-737400J0D01*
G01*
X117912600Y-118024400D02*
X117912600Y-118735600D01*
X119387400Y-118024400D02*
X119387400Y-118735600D01*
X117912600Y-118735600D02*
G75*
G03X119387400Y-118735600I737400J0D01*
G01*
X119387400Y-118024400D02*
G75*
G03X117912600Y-118024400I-737400J0D01*
G01*
X115372600Y-118024400D02*
X115372600Y-118735600D01*
X116847400Y-118024400D02*
X116847400Y-118735600D01*
X115372600Y-118735600D02*
G75*
G03X116847400Y-118735600I737400J0D01*
G01*
X116847400Y-118024400D02*
G75*
G03X115372600Y-118024400I-737400J0D01*
G01*
X112832600Y-118024400D02*
X112832600Y-118735600D01*
X114307400Y-118024400D02*
X114307400Y-118735600D01*
X112832600Y-118735600D02*
G75*
G03X114307400Y-118735600I737400J0D01*
G01*
X114307400Y-118024400D02*
G75*
G03X112832600Y-118024400I-737400J0D01*
G01*
X110292600Y-118024400D02*
X110292600Y-118735600D01*
X111767400Y-118024400D02*
X111767400Y-118735600D01*
X110292600Y-118735600D02*
G75*
G03X111767400Y-118735600I737400J0D01*
G01*
X111767400Y-118024400D02*
G75*
G03X110292600Y-118024400I-737400J0D01*
G01*
X107752600Y-118024400D02*
X107752600Y-118735600D01*
X109227400Y-118024400D02*
X109227400Y-118735600D01*
X107752600Y-118735600D02*
G75*
G03X109227400Y-118735600I737400J0D01*
G01*
X109227400Y-118024400D02*
G75*
G03X107752600Y-118024400I-737400J0D01*
G01*
X105212600Y-118024400D02*
X105212600Y-118735600D01*
X106687400Y-118024400D02*
X106687400Y-118735600D01*
X105212600Y-118735600D02*
G75*
G03X106687400Y-118735600I737400J0D01*
G01*
X106687400Y-118024400D02*
G75*
G03X105212600Y-118024400I-737400J0D01*
G01*
X138350000Y-112000000D02*
G75*
G03X138350000Y-112000000I-850000J0D01*
G01*
X138350000Y-109500000D02*
G75*
G03X138350000Y-109500000I-850000J0D01*
G01*
X138350000Y-107000000D02*
G75*
G03X138350000Y-107000000I-850000J0D01*
G01*
X138350000Y-104500000D02*
G75*
G03X138350000Y-104500000I-850000J0D01*
G01*
D11*
X145666381Y-107587333D02*
X146380667Y-107587333D01*
X146523524Y-107634953D01*
X146618762Y-107730191D01*
X146666381Y-107873048D01*
X146666381Y-107968286D01*
X145999714Y-106682571D02*
X146666381Y-106682571D01*
X145618762Y-106920667D02*
X146333048Y-107158762D01*
X146333048Y-106539714D01*
X108012381Y-144328095D02*
X107012381Y-144328095D01*
X107012381Y-144090000D01*
X107060000Y-143947142D01*
X107155238Y-143851904D01*
X107250476Y-143804285D01*
X107440952Y-143756666D01*
X107583810Y-143756666D01*
X107774286Y-143804285D01*
X107869524Y-143851904D01*
X107964762Y-143947142D01*
X108012381Y-144090000D01*
X108012381Y-144328095D01*
X108012381Y-142804285D02*
X108012381Y-143375714D01*
X108012381Y-143090000D02*
X107012381Y-143090000D01*
X107155238Y-143185238D01*
X107250476Y-143280476D01*
X107298095Y-143375714D01*
X106692381Y-147451905D02*
X105692381Y-147451905D01*
X106692381Y-146880476D02*
X106120952Y-147309048D01*
X105692381Y-146880476D02*
X106263810Y-147451905D01*
X105952381Y-154476190D02*
X104952381Y-154476190D01*
X105857143Y-153428571D02*
X105904762Y-153476190D01*
X105952381Y-153619047D01*
X105952381Y-153714285D01*
X105904762Y-153857143D01*
X105809524Y-153952381D01*
X105714286Y-154000000D01*
X105523810Y-154047619D01*
X105380952Y-154047619D01*
X105190476Y-154000000D01*
X105095238Y-153952381D01*
X105000000Y-153857143D01*
X104952381Y-153714285D01*
X104952381Y-153619047D01*
X105000000Y-153476190D01*
X105047619Y-153428571D01*
X105952381Y-152476190D02*
X105952381Y-153047619D01*
X105952381Y-152761905D02*
X104952381Y-152761905D01*
X105095238Y-152857143D01*
X105190476Y-152952381D01*
X105238095Y-153047619D01*
X149666667Y-120952381D02*
X149666667Y-121666667D01*
X149619047Y-121809524D01*
X149523809Y-121904762D01*
X149380952Y-121952381D01*
X149285714Y-121952381D01*
X150666667Y-121952381D02*
X150095238Y-121952381D01*
X150380952Y-121952381D02*
X150380952Y-120952381D01*
X150285714Y-121095238D01*
X150190476Y-121190476D01*
X150095238Y-121238095D01*
X144666667Y-148452381D02*
X144666667Y-149166667D01*
X144619047Y-149309524D01*
X144523809Y-149404762D01*
X144380952Y-149452381D01*
X144285714Y-149452381D01*
X145095238Y-148547619D02*
X145142857Y-148500000D01*
X145238095Y-148452381D01*
X145476191Y-148452381D01*
X145571429Y-148500000D01*
X145619048Y-148547619D01*
X145666667Y-148642857D01*
X145666667Y-148738095D01*
X145619048Y-148880952D01*
X145047619Y-149452381D01*
X145666667Y-149452381D01*
X148392381Y-129148095D02*
X147392381Y-129148095D01*
X147392381Y-128767142D01*
X147440000Y-128671904D01*
X147487619Y-128624285D01*
X147582857Y-128576666D01*
X147725714Y-128576666D01*
X147820952Y-128624285D01*
X147868571Y-128671904D01*
X147916190Y-128767142D01*
X147916190Y-129148095D01*
X148392381Y-127624285D02*
X148392381Y-128195714D01*
X148392381Y-127910000D02*
X147392381Y-127910000D01*
X147535238Y-128005238D01*
X147630476Y-128100476D01*
X147678095Y-128195714D01*
X149712381Y-125071905D02*
X148712381Y-125071905D01*
X149712381Y-124500476D02*
X149140952Y-124929048D01*
X148712381Y-124500476D02*
X149283810Y-125071905D01*
X131452381Y-149666666D02*
X130976190Y-150000000D01*
X131452381Y-150238095D02*
X130452381Y-150238095D01*
X130452381Y-149857142D01*
X130500000Y-149761904D01*
X130547619Y-149714285D01*
X130642857Y-149666666D01*
X130785714Y-149666666D01*
X130880952Y-149714285D01*
X130928571Y-149761904D01*
X130976190Y-149857142D01*
X130976190Y-150238095D01*
X131452381Y-148714285D02*
X131452381Y-149285714D01*
X131452381Y-149000000D02*
X130452381Y-149000000D01*
X130595238Y-149095238D01*
X130690476Y-149190476D01*
X130738095Y-149285714D01*
X125452381Y-148666666D02*
X124976190Y-149000000D01*
X125452381Y-149238095D02*
X124452381Y-149238095D01*
X124452381Y-148857142D01*
X124500000Y-148761904D01*
X124547619Y-148714285D01*
X124642857Y-148666666D01*
X124785714Y-148666666D01*
X124880952Y-148714285D01*
X124928571Y-148761904D01*
X124976190Y-148857142D01*
X124976190Y-149238095D01*
X124547619Y-148285714D02*
X124500000Y-148238095D01*
X124452381Y-148142857D01*
X124452381Y-147904761D01*
X124500000Y-147809523D01*
X124547619Y-147761904D01*
X124642857Y-147714285D01*
X124738095Y-147714285D01*
X124880952Y-147761904D01*
X125452381Y-148333333D01*
X125452381Y-147714285D01*
X119452381Y-149166666D02*
X118976190Y-149500000D01*
X119452381Y-149738095D02*
X118452381Y-149738095D01*
X118452381Y-149357142D01*
X118500000Y-149261904D01*
X118547619Y-149214285D01*
X118642857Y-149166666D01*
X118785714Y-149166666D01*
X118880952Y-149214285D01*
X118928571Y-149261904D01*
X118976190Y-149357142D01*
X118976190Y-149738095D01*
X118452381Y-148833333D02*
X118452381Y-148214285D01*
X118833333Y-148547619D01*
X118833333Y-148404761D01*
X118880952Y-148309523D01*
X118928571Y-148261904D01*
X119023810Y-148214285D01*
X119261905Y-148214285D01*
X119357143Y-148261904D01*
X119404762Y-148309523D01*
X119452381Y-148404761D01*
X119452381Y-148690476D01*
X119404762Y-148785714D01*
X119357143Y-148833333D01*
X113952381Y-149166666D02*
X113476190Y-149500000D01*
X113952381Y-149738095D02*
X112952381Y-149738095D01*
X112952381Y-149357142D01*
X113000000Y-149261904D01*
X113047619Y-149214285D01*
X113142857Y-149166666D01*
X113285714Y-149166666D01*
X113380952Y-149214285D01*
X113428571Y-149261904D01*
X113476190Y-149357142D01*
X113476190Y-149738095D01*
X113285714Y-148309523D02*
X113952381Y-148309523D01*
X112904762Y-148547619D02*
X113619048Y-148785714D01*
X113619048Y-148166666D01*
D16*
X132145333Y-123526333D02*
X132145333Y-124965667D01*
X132230000Y-125135000D01*
X132314667Y-125219667D01*
X132484000Y-125304333D01*
X132822667Y-125304333D01*
X132992000Y-125219667D01*
X133076667Y-125135000D01*
X133161333Y-124965667D01*
X133161333Y-123526333D01*
X134939334Y-125304333D02*
X133923334Y-125304333D01*
X134431334Y-125304333D02*
X134431334Y-123526333D01*
X134262000Y-123780333D01*
X134092667Y-123949667D01*
X133923334Y-124034333D01*
X116660331Y-129979333D02*
X116660331Y-129048000D01*
X116575665Y-128878667D01*
X116406331Y-128794000D01*
X116067665Y-128794000D01*
X115898331Y-128878667D01*
X116660331Y-129894667D02*
X116490998Y-129979333D01*
X116067665Y-129979333D01*
X115898331Y-129894667D01*
X115813665Y-129725333D01*
X115813665Y-129556000D01*
X115898331Y-129386667D01*
X116067665Y-129302000D01*
X116490998Y-129302000D01*
X116660331Y-129217333D01*
X117506998Y-129979333D02*
X117506998Y-128794000D01*
X117506998Y-129132667D02*
X117591665Y-128963333D01*
X117676332Y-128878667D01*
X117845665Y-128794000D01*
X118014998Y-128794000D01*
X119369665Y-129979333D02*
X119369665Y-128201333D01*
X119369665Y-129894667D02*
X119200332Y-129979333D01*
X118861665Y-129979333D01*
X118692332Y-129894667D01*
X118607665Y-129810000D01*
X118522999Y-129640667D01*
X118522999Y-129132667D01*
X118607665Y-128963333D01*
X118692332Y-128878667D01*
X118861665Y-128794000D01*
X119200332Y-128794000D01*
X119369665Y-128878667D01*
X120978332Y-128794000D02*
X120978332Y-129979333D01*
X120216332Y-128794000D02*
X120216332Y-129725333D01*
X120300999Y-129894667D01*
X120470332Y-129979333D01*
X120724332Y-129979333D01*
X120893666Y-129894667D01*
X120978332Y-129810000D01*
X121824999Y-129979333D02*
X121824999Y-128794000D01*
X121824999Y-128201333D02*
X121740333Y-128286000D01*
X121824999Y-128370667D01*
X121909666Y-128286000D01*
X121824999Y-128201333D01*
X121824999Y-128370667D01*
X122671666Y-128794000D02*
X122671666Y-129979333D01*
X122671666Y-128963333D02*
X122756333Y-128878667D01*
X122925666Y-128794000D01*
X123179666Y-128794000D01*
X123349000Y-128878667D01*
X123433666Y-129048000D01*
X123433666Y-129979333D01*
X124534333Y-129979333D02*
X124365000Y-129894667D01*
X124280333Y-129810000D01*
X124195667Y-129640667D01*
X124195667Y-129132667D01*
X124280333Y-128963333D01*
X124365000Y-128878667D01*
X124534333Y-128794000D01*
X124788333Y-128794000D01*
X124957667Y-128878667D01*
X125042333Y-128963333D01*
X125127000Y-129132667D01*
X125127000Y-129640667D01*
X125042333Y-129810000D01*
X124957667Y-129894667D01*
X124788333Y-129979333D01*
X124534333Y-129979333D01*
X125465667Y-130148667D02*
X126820334Y-130148667D01*
X127243667Y-128794000D02*
X127243667Y-129979333D01*
X127243667Y-128963333D02*
X127328334Y-128878667D01*
X127497667Y-128794000D01*
X127751667Y-128794000D01*
X127921001Y-128878667D01*
X128005667Y-129048000D01*
X128005667Y-129979333D01*
X129614334Y-129979333D02*
X129614334Y-129048000D01*
X129529668Y-128878667D01*
X129360334Y-128794000D01*
X129021668Y-128794000D01*
X128852334Y-128878667D01*
X129614334Y-129894667D02*
X129445001Y-129979333D01*
X129021668Y-129979333D01*
X128852334Y-129894667D01*
X128767668Y-129725333D01*
X128767668Y-129556000D01*
X128852334Y-129386667D01*
X129021668Y-129302000D01*
X129445001Y-129302000D01*
X129614334Y-129217333D01*
X130461001Y-128794000D02*
X130461001Y-129979333D01*
X130461001Y-128963333D02*
X130545668Y-128878667D01*
X130715001Y-128794000D01*
X130969001Y-128794000D01*
X131138335Y-128878667D01*
X131223001Y-129048000D01*
X131223001Y-129979333D01*
X132323668Y-129979333D02*
X132154335Y-129894667D01*
X132069668Y-129810000D01*
X131985002Y-129640667D01*
X131985002Y-129132667D01*
X132069668Y-128963333D01*
X132154335Y-128878667D01*
X132323668Y-128794000D01*
X132577668Y-128794000D01*
X132747002Y-128878667D01*
X132831668Y-128963333D01*
X132916335Y-129132667D01*
X132916335Y-129640667D01*
X132831668Y-129810000D01*
X132747002Y-129894667D01*
X132577668Y-129979333D01*
X132323668Y-129979333D01*
D11*
X132166667Y-106952381D02*
X132166667Y-107666667D01*
X132119047Y-107809524D01*
X132023809Y-107904762D01*
X131880952Y-107952381D01*
X131785714Y-107952381D01*
X132547619Y-106952381D02*
X133166667Y-106952381D01*
X132833333Y-107333333D01*
X132976191Y-107333333D01*
X133071429Y-107380952D01*
X133119048Y-107428571D01*
X133166667Y-107523810D01*
X133166667Y-107761905D01*
X133119048Y-107857143D01*
X133071429Y-107904762D01*
X132976191Y-107952381D01*
X132690476Y-107952381D01*
X132595238Y-107904762D01*
X132547619Y-107857143D01*
X147571905Y-133217382D02*
X147571905Y-132217382D01*
X147810000Y-132217382D01*
X147952858Y-132265001D01*
X148048096Y-132360239D01*
X148095715Y-132455477D01*
X148143334Y-132645953D01*
X148143334Y-132788811D01*
X148095715Y-132979287D01*
X148048096Y-133074525D01*
X147952858Y-133169763D01*
X147810000Y-133217382D01*
X147571905Y-133217382D01*
X148524286Y-132312620D02*
X148571905Y-132265001D01*
X148667143Y-132217382D01*
X148905239Y-132217382D01*
X149000477Y-132265001D01*
X149048096Y-132312620D01*
X149095715Y-132407858D01*
X149095715Y-132503096D01*
X149048096Y-132645953D01*
X148476667Y-133217382D01*
X149095715Y-133217382D01*
M02*
